SplineFontDB: 3.0
FontName: Vazir
FullName: Vazir
FamilyName: Vazir
Weight: Regular
Copyright: Copyright (c) 2003 by Bitstream, Inc. All Rights Reserved.\nDejaVu changes are in public domain\nChanges by Saber Rastikerdar are in public domain.\nNon-Arabic(Latin) glyphs and data are imported from Roboto font under the Apache License, Version 2.0.
Version: 10.0.0-alpha
ItalicAngle: 0
UnderlinePosition: -500
UnderlineWidth: 100
Ascent: 1638
Descent: 410
InvalidEm: 0
LayerCount: 2
Layer: 0 1 "Back" 1
Layer: 1 1 "Fore" 0
PreferredKerning: 4
XUID: [1021 502 1027637223 5617848]
UniqueID: 4023731
UseUniqueID: 1
FSType: 0
OS2Version: 1
OS2_WeightWidthSlopeOnly: 0
OS2_UseTypoMetrics: 1
CreationTime: 1431850356
ModificationTime: 1490680567
PfmFamily: 33
TTFWeight: 400
TTFWidth: 5
LineGap: 0
VLineGap: 0
Panose: 2 11 6 3 3 8 4 2 2 4
OS2TypoAscent: 2350
OS2TypoAOffset: 0
OS2TypoDescent: -1100
OS2TypoDOffset: 0
OS2TypoLinegap: 0
OS2WinAscent: 2350
OS2WinAOffset: 0
OS2WinDescent: 1100
OS2WinDOffset: 0
HheadAscent: 2350
HheadAOffset: 0
HheadDescent: -1100
HheadDOffset: 0
OS2SubXSize: 1331
OS2SubYSize: 1433
OS2SubXOff: 0
OS2SubYOff: 286
OS2SupXSize: 1331
OS2SupYSize: 1433
OS2SupXOff: 0
OS2SupYOff: 983
OS2StrikeYSize: 102
OS2StrikeYPos: 530
OS2CapHeight: 1638
OS2XHeight: 1082
OS2Vendor: 'PfEd'
OS2CodePages: 00000041.20080000
OS2UnicodeRanges: 80002003.80000000.00000008.00000000
Lookup: 1 9 0 "'fina' Terminal Forms in Arabic lookup 9" { "'fina' Terminal Forms in Arabic lookup 9 subtable"  } ['fina' ('arab' <'KUR ' 'SND ' 'URD ' 'dflt' > ) ]
Lookup: 1 9 0 "'medi' Medial Forms in Arabic lookup 11" { "'medi' Medial Forms in Arabic lookup 11 subtable"  } ['medi' ('arab' <'KUR ' 'SND ' 'URD ' 'dflt' > ) ]
Lookup: 1 9 0 "'init' Initial Forms in Arabic lookup 13" { "'init' Initial Forms in Arabic lookup 13 subtable"  } ['init' ('arab' <'KUR ' 'SND ' 'URD ' 'dflt' > ) ]

StartChar: exclam
Encoding: 33 33 1
GlifName: exclam
Width: 654
VWidth: 2640
GlyphClass: 2
Flags: W
LayerCount: 2
Fore
SplineSet
183.58203125 145.459960938 m 128,-1,1
 183.58203125 205.212890625 183.58203125 205.212890625 225.987304688 247.6171875 c 128,-1,2
 268.392578125 290.022460938 268.392578125 290.022460938 328.14453125 290.022460938 c 128,-1,3
 387.897460938 290.022460938 387.897460938 290.022460938 430.301757812 247.6171875 c 128,-1,4
 472.70703125 205.212890625 472.70703125 205.212890625 472.70703125 145.459960938 c 128,-1,5
 472.70703125 85.70703125 472.70703125 85.70703125 430.301757812 43.302734375 c 128,-1,6
 387.897460938 0.8974609375 387.897460938 0.8974609375 328.14453125 0.8974609375 c 128,-1,7
 268.392578125 0.8974609375 268.392578125 0.8974609375 225.987304688 43.302734375 c 128,-1,0
 183.58203125 85.70703125 183.58203125 85.70703125 183.58203125 145.459960938 c 128,-1,1
224.235351562 1501.83203125 m 1,8,-1
 437.518554688 1501.83203125 l 1,9,-1
 413.994140625 496.28125 l 1,10,-1
 248.934570312 496.28125 l 1,11,-1
 224.235351562 1501.83203125 l 1,8,-1
EndSplineSet
EndChar

StartChar: period
Encoding: 46 46 2
GlifName: period
Width: 654
VWidth: 2640
GlyphClass: 2
Flags: W
LayerCount: 2
Fore
SplineSet
183.58203125 145.459960938 m 128,-1,1
 183.58203125 205.212890625 183.58203125 205.212890625 225.987304688 247.6171875 c 128,-1,2
 268.392578125 290.022460938 268.392578125 290.022460938 328.14453125 290.022460938 c 128,-1,3
 387.897460938 290.022460938 387.897460938 290.022460938 430.301757812 247.6171875 c 128,-1,4
 472.70703125 205.212890625 472.70703125 205.212890625 472.70703125 145.459960938 c 128,-1,5
 472.70703125 85.70703125 472.70703125 85.70703125 430.301757812 43.302734375 c 128,-1,6
 387.897460938 0.8974609375 387.897460938 0.8974609375 328.14453125 0.8974609375 c 128,-1,7
 268.392578125 0.8974609375 268.392578125 0.8974609375 225.987304688 43.302734375 c 128,-1,0
 183.58203125 85.70703125 183.58203125 85.70703125 183.58203125 145.459960938 c 128,-1,1
EndSplineSet
EndChar

StartChar: colon
Encoding: 58 58 3
GlifName: colon
Width: 653
VWidth: 2640
GlyphClass: 2
Flags: W
LayerCount: 2
Fore
SplineSet
183.58203125 975.459960938 m 128,-1,1
 183.58203125 1035.21289062 183.58203125 1035.21289062 225.987304688 1077.6171875 c 128,-1,2
 268.392578125 1120.02246094 268.392578125 1120.02246094 328.14453125 1120.02246094 c 128,-1,3
 387.897460938 1120.02246094 387.897460938 1120.02246094 430.301757812 1077.6171875 c 128,-1,4
 472.70703125 1035.21289062 472.70703125 1035.21289062 472.70703125 975.459960938 c 128,-1,5
 472.70703125 915.70703125 472.70703125 915.70703125 430.301757812 873.302734375 c 128,-1,6
 387.897460938 830.897460938 387.897460938 830.897460938 328.14453125 830.897460938 c 128,-1,7
 268.392578125 830.897460938 268.392578125 830.897460938 225.987304688 873.302734375 c 128,-1,0
 183.58203125 915.70703125 183.58203125 915.70703125 183.58203125 975.459960938 c 128,-1,1
183.58203125 145.459960938 m 128,-1,9
 183.58203125 205.212890625 183.58203125 205.212890625 225.987304688 247.6171875 c 128,-1,10
 268.392578125 290.022460938 268.392578125 290.022460938 328.14453125 290.022460938 c 128,-1,11
 387.897460938 290.022460938 387.897460938 290.022460938 430.301757812 247.6171875 c 128,-1,12
 472.70703125 205.212890625 472.70703125 205.212890625 472.70703125 145.459960938 c 128,-1,13
 472.70703125 85.70703125 472.70703125 85.70703125 430.301757812 43.302734375 c 128,-1,14
 387.897460938 0.8974609375 387.897460938 0.8974609375 328.14453125 0.8974609375 c 128,-1,15
 268.392578125 0.8974609375 268.392578125 0.8974609375 225.987304688 43.302734375 c 128,-1,8
 183.58203125 85.70703125 183.58203125 85.70703125 183.58203125 145.459960938 c 128,-1,9
EndSplineSet
EndChar

StartChar: afii57388
Encoding: 1548 1548 5
GlifName: afii57388
Width: 744
VWidth: 2647
GlyphClass: 2
Flags: W
LayerCount: 2
Fore
SplineSet
387.479492188 0.07666015625 m 4,0,1
 239.060546875 2.3232421875 239.060546875 2.3232421875 220.938476562 128.813476562 c 0,2,3
 210.518554688 201.544921875 210.518554688 201.544921875 232.31640625 299.69140625 c 0,4,5
 281.087890625 544.08984375 281.087890625 544.08984375 485.884765625 698.556640625 c 1,6,-1
 540.256835938 664.736328125 l 1,7,8
 375.522818622 518.445426341 375.522818622 518.445426341 359.70703125 292.622070312 c 1,9,10
 476.725199166 294.459963736 476.725199166 294.459963736 515.6328125 246.014648438 c 0,11,12
 547.458456886 207.164176895 547.458456886 207.164176895 548.830262488 145 c 0,13,14
 552.083335362 -2.41490879792 552.083335362 -2.41490879792 387.479492188 0.07666015625 c 4,0,1
EndSplineSet
EndChar

StartChar: uni0615
Encoding: 1557 1557 6
GlifName: uni0615
Width: -29
VWidth: 2714
GlyphClass: 4
Flags: W
AnchorPoint: "Anchor-10" 658.199 1624.46 mark 0
AnchorPoint: "Anchor-9" 658.199 1624.46 mark 0
AnchorPoint: "Anchor-1" 672.366 2447.86 basemark 0
AnchorPoint: "Anchor-1" 658.199 1624.46 mark 0
LayerCount: 2
Fore
SplineSet
541.2421875 1790.00390625 m 1,0,-1
 677.703125 1790.00390625 l 2,1,2
 781.798204784 1790.00390625 781.798204784 1790.00390625 845.899102392 1824.50195312 c 128,-1,3
 910 1859 910 1859 912.581054688 1912.3965269 c 128,-1,4
 915.162109375 1965.79305381 915.162109375 1965.79305381 882.439453125 1983.51855469 c 0,5,6
 775.123475479 2043.41282427 775.123475479 2043.41282427 541.2421875 1790.00390625 c 1,0,-1
991.1328125 1928.79980469 m 0,7,8
 991.00004589 1714.07421875 991.00004589 1714.07421875 668.384765625 1714.07421875 c 6,9,-1
 354.936523438 1714.07421875 l 1,10,-1
 354.936523438 1790.00390625 l 1,11,-1
 462.987304688 1790.00390625 l 1,12,-1
 462.987304688 2322.15039062 l 1,13,-1
 540.234375 2321.18359375 l 1,14,-1
 539.275390625 1893.90234375 l 1,15,16
 747 2130 747 2130 912.387695312 2066.69433594 c 0,17,18
 991 2037 991 2037 991.1328125 1928.79980469 c 0,7,8
EndSplineSet
EndChar

StartChar: uni061B
Encoding: 1563 1563 7
GlifName: uni061B_
Width: 744
VWidth: 2647
GlyphClass: 2
Flags: W
LayerCount: 2
Fore
SplineSet
240.58203125 145.459960938 m 128,-1,1
 240.58203125 205.212890625 240.58203125 205.212890625 282.987304688 247.6171875 c 128,-1,2
 325.392578125 290.022460938 325.392578125 290.022460938 385.14453125 290.022460938 c 128,-1,3
 444.897460938 290.022460938 444.897460938 290.022460938 487.301757812 247.6171875 c 128,-1,4
 529.70703125 205.212890625 529.70703125 205.212890625 529.70703125 145.459960938 c 128,-1,5
 529.70703125 85.70703125 529.70703125 85.70703125 487.301757812 43.302734375 c 128,-1,6
 444.897460938 0.8974609375 444.897460938 0.8974609375 385.14453125 0.8974609375 c 128,-1,7
 325.392578125 0.8974609375 325.392578125 0.8974609375 282.987304688 43.302734375 c 128,-1,0
 240.58203125 85.70703125 240.58203125 85.70703125 240.58203125 145.459960938 c 128,-1,1
387.373535156 494.720214844 m 4,8,9
 172.527746959 497.856953887 172.527746959 497.856953887 232.325195312 794.454101562 c 0,10,11
 282.390625 1040.08496094 282.390625 1040.08496094 485.881835938 1193.28125 c 1,12,-1
 540.256835938 1159.45898438 l 1,13,14
 375.517223824 1013.15144163 375.517223824 1013.15144163 359.70703125 787.342773438 c 1,15,16
 476.684293476 789.230590926 476.684293476 789.230590926 516.002791269 740.757385307 c 0,17,18
 547.713368022 701.663488197 547.713368022 701.663488197 548.858384247 639 c 0,19,20
 551.538526647 492.323413199 551.538526647 492.323413199 387.373535156 494.720214844 c 4,8,9
EndSplineSet
EndChar

StartChar: uni061F
Encoding: 1567 1567 8
GlifName: uni061F_
Width: 1063
VWidth: 2640
GlyphClass: 2
Flags: W
LayerCount: 2
Fore
SplineSet
506.58203125 145.459960938 m 128,-1,1
 506.58203125 205.212890625 506.58203125 205.212890625 548.987304688 247.6171875 c 128,-1,2
 591.392578125 290.022460938 591.392578125 290.022460938 651.14453125 290.022460938 c 128,-1,3
 710.897460938 290.022460938 710.897460938 290.022460938 753.301757812 247.6171875 c 128,-1,4
 795.70703125 205.212890625 795.70703125 205.212890625 795.70703125 145.459960938 c 128,-1,5
 795.70703125 85.70703125 795.70703125 85.70703125 753.301757812 43.302734375 c 128,-1,6
 710.897460938 0.8974609375 710.897460938 0.8974609375 651.14453125 0.8974609375 c 128,-1,7
 591.392578125 0.8974609375 591.392578125 0.8974609375 548.987304688 43.302734375 c 128,-1,0
 506.58203125 85.70703125 506.58203125 85.70703125 506.58203125 145.459960938 c 128,-1,1
552.698242188 493.428710938 m 1,8,-1
 552.698242188 508.116210938 l 2,9,10
 552.994218381 546.254994446 552.994218381 546.254994446 469.487304688 627.86328125 c 2,11,-1
 362.150390625 732.759765625 l 2,12,13
 179 912 179 912 180.064453125 1096.82617188 c 0,14,15
 181 1282 181 1282 317.33984375 1405.91015625 c 0,16,17
 433 1511 433 1511 619.01171875 1510.81054688 c 0,18,19
 837 1510 837 1510 973 1324 c 1,20,-1
 854.357421875 1200.12207031 l 5,21,22
 750 1321 750 1321 617.728515625 1320.40039062 c 0,23,24
 531 1320 531 1320 460.66796875 1260.69726562 c 0,25,26
 381 1193 381 1193 383.453125 1068.62109375 c 0,27,28
 386.011473796 954.488131427 386.011473796 954.488131427 520.295898438 821.698242188 c 2,29,-1
 629.888671875 713.325195312 l 2,30,31
 751.635742188 593.358929782 751.635742188 593.358929782 751.635742188 510.517578125 c 2,32,-1
 751.635742188 493.428710938 l 1,33,-1
 552.698242188 493.428710938 l 1,8,-1
EndSplineSet
EndChar

StartChar: uni0621
Encoding: 1569 1569 9
GlifName: uni0621
Width: 914
VWidth: 2819
GlyphClass: 2
Flags: W
AnchorPoint: "Anchor-7" 462.93 -244.979 basechar 0
AnchorPoint: "Anchor-10" 413.827 1340.22 basechar 0
LayerCount: 2
Fore
SplineSet
119.01171875 9.2939453125 m 1,0,-1
 119.01171875 204.543945312 l 1,1,2
 242 283 242 283 343.840820312 315.028320312 c 1,3,4
 129.880245061 426.514815569 129.880245061 426.514815569 127.771816058 610 c 4,5,6
 126.384203935 730.75638598 126.384203935 730.75638598 208 826.106445312 c 0,7,8
 303 936 303 936 475.895507812 936.4140625 c 0,9,10
 627 937 627 937 741.700195312 837.661132812 c 1,11,-1
 685.61328125 710.947265625 l 1,12,13
 590 764 590 764 491.067382812 763.567382812 c 0,14,15
 382 763 382 763 326.887695312 699.432617188 c 0,16,17
 292 659 292 659 289.851567838 612.896658433 c 0,18,19
 288 567 288 567 311.065429688 530.7578125 c 0,20,21
 358 460 358 460 503.73046875 396.971679688 c 1,22,-1
 775.49609375 451.856445312 l 1,23,-1
 802.865234375 262.375976562 l 1,24,25
 514 230 514 230 119.01171875 9.2939453125 c 1,0,-1
EndSplineSet
EndChar

StartChar: uni0627
Encoding: 1575 1575 15
GlifName: uni0627
Width: 494
VWidth: 2819
GlyphClass: 2
Flags: W
AnchorPoint: "Anchor-10" 238.34 1629.56 basechar 0
AnchorPoint: "Anchor-7" 251.423 -228.495 basechar 0
LayerCount: 2
Fore
SplineSet
163.958007812 1463.81445312 m 5,0,-1
 340.720703125 1463.81445312 l 5,1,-1
 340.720703125 0.716796875 l 1,2,-1
 163.958007812 0.716796875 l 1,3,-1
 163.958007812 1463.81445312 l 5,0,-1
EndSplineSet
Substitution2: "'fina' Terminal Forms in Arabic lookup 9 subtable" uniFE8E
EndChar

StartChar: uni062D
Encoding: 1581 1581 21
GlifName: uni062D_
Width: 1361
VWidth: 2819
GlyphClass: 2
Flags: W
AnchorPoint: "Anchor-10" 652.86 1305.89 basechar 0
AnchorPoint: "Anchor-7" 524.429 -919.151 basechar 0
LayerCount: 2
Fore
SplineSet
791.1640625 565.879882812 m 2,0,1
 779.915039062 568.928710938 779.915039062 568.928710938 768.364257812 571.885742188 c 128,-1,2
 756.8125 574.842773438 756.8125 574.842773438 744.965820312 577.706054688 c 0,3,4
 507.798828125 635.403320312 507.798828125 635.403320312 417.842773438 623.920898438 c 0,5,6
 341.241210938 614.842773438 341.241210938 614.842773438 268.224609375 520.793945312 c 2,7,-1
 240.057617188 484.51171875 l 1,8,-1
 95.001953125 570.2109375 l 1,9,-1
 112.546875 599.181640625 l 2,10,11
 234.083984375 800.01171875 234.083984375 800.01171875 396.208007812 813.329101562 c 0,12,13
 510.536132812 822.370117188 510.536132812 822.370117188 794.143554688 737.979492188 c 0,14,15
 1076.3359375 653.446289062 1076.3359375 653.446289062 1251.53417969 641.431640625 c 1,16,-1
 1238.75683594 464.604492188 l 1,17,18
 1076.328125 451.987304688 1076.328125 451.987304688 1020.65234375 441.94140625 c 0,19,20
 779.504882812 395.018554688 779.504882812 395.018554688 618.439453125 315.010742188 c 128,-1,21
 457.373046875 235.002929688 457.373046875 235.002929688 376.383789062 121.668945312 c 128,-1,22
 295.39453125 8.3349609375 295.39453125 8.3349609375 294.94921875 -138.162109375 c 0,23,24
 294.231445312 -506.575195312 294.231445312 -506.575195312 833.94140625 -507.236328125 c 0,25,26
 1030.70117188 -507.59765625 1030.70117188 -507.59765625 1217.55371094 -444.84375 c 1,27,-1
 1253.11132812 -621.185546875 l 1,28,29
 1214.01074219 -634.463867188 1214.01074219 -634.463867188 1173.63378906 -645.09375 c 128,-1,30
 1133.25683594 -655.724609375 1133.25683594 -655.724609375 1091.57617188 -663.71484375 c 128,-1,31
 1049.89550781 -671.706054688 1049.89550781 -671.706054688 1006.88183594 -677.060546875 c 128,-1,32
 963.868164062 -682.4140625 963.868164062 -682.4140625 919.522460938 -685.137695312 c 128,-1,33
 875.176757812 -687.860351562 875.176757812 -687.860351562 829.442382812 -687.95703125 c 0,34,35
 121.517578125 -689.508789062 121.517578125 -689.508789062 122.05078125 -136.743164062 c 0,36,37
 122.536132812 393.803710938 122.536132812 393.803710938 791.12890625 562.009765625 c 2,38,-1
 798.551757812 563.876953125 l 1,39,-1
 791.1640625 565.879882812 l 2,0,1
EndSplineSet
Substitution2: "'fina' Terminal Forms in Arabic lookup 9 subtable" uniFEA2
Substitution2: "'medi' Medial Forms in Arabic lookup 11 subtable" uniFEA4
Substitution2: "'init' Initial Forms in Arabic lookup 13 subtable" uniFEA3
EndChar

StartChar: uni062F
Encoding: 1583 1583 23
GlifName: uni062F_
Width: 1003
VWidth: 2819
GlyphClass: 2
Flags: W
AnchorPoint: "Anchor-10" 399.764 1355.45 basechar 0
AnchorPoint: "Anchor-7" 449.494 -237.987 basechar 0
LayerCount: 2
Fore
SplineSet
102.999023438 211.654296875 m 1,0,1
 220.833007812 187.020507812 220.833007812 187.020507812 356.403320312 187.057617188 c 0,2,3
 716.036132812 187.020507812 716.036132812 187.020507812 715.314453125 371.407226562 c 0,4,5
 715.2109375 412.108398438 715.2109375 412.108398438 699.513671875 454.094726562 c 128,-1,6
 683.81640625 496.081054688 683.81640625 496.081054688 652.6640625 539.211914062 c 128,-1,7
 621.51171875 582.341796875 621.51171875 582.341796875 574.872070312 626.778320312 c 0,8,9
 524.405273438 674.935546875 524.405273438 674.935546875 457.522460938 729.21484375 c 128,-1,10
 390.640625 783.494140625 390.640625 783.494140625 308.174804688 843.260742188 c 1,11,-1
 416.529296875 1002.56835938 l 1,12,13
 893.89453125 677.620117188 893.89453125 677.620117188 897.764648438 375.9296875 c 0,14,15
 898.481445312 320.008789062 898.481445312 320.008789062 884.376953125 270.326171875 c 128,-1,16
 870.271484375 220.643554688 870.271484375 220.643554688 841.345703125 177.146484375 c 0,17,18
 722.1640625 2.04296875 722.1640625 2.04296875 371.0703125 2.158203125 c 0,19,20
 207.165039062 2.0439453125 207.165039062 2.0439453125 102.999023438 25.2294921875 c 1,21,-1
 102.999023438 211.654296875 l 1,0,1
EndSplineSet
Substitution2: "'fina' Terminal Forms in Arabic lookup 9 subtable" uniFEAA
EndChar

StartChar: uni0631
Encoding: 1585 1585 25
GlifName: uni0631
Width: 811
VWidth: 2819
GlyphClass: 2
Flags: W
AnchorPoint: "Anchor-10" 432.311 1322.43 basechar 0
AnchorPoint: "Anchor-7" 331.48 -745.049 basechar 0
LayerCount: 2
Fore
SplineSet
418.193359375 497.948242188 m 1,0,-1
 582.163085938 576.633789062 l 5,1,2
 715 337 715 337 712.819335938 119.456054688 c 4,3,4
 712 19 712 19 684.571289062 -71.9912109375 c 132,-1,5
 657 -163 657 -163 603.44921875 -244.61328125 c 4,6,7
 443 -486 443 -486 35.3515625 -525.997070312 c 1,8,-1
 3.29296875 -348.109375 l 1,9,10
 329 -315 329 -315 461.831054688 -127.840820312 c 0,11,12
 534 -26 534 -26 533.422851562 102.563476562 c 0,13,14
 533 200 533 200 504.231445312 299.141601562 c 0,15,16
 475 398 475 398 418.193359375 497.948242188 c 1,0,-1
EndSplineSet
PairPos2: "'kern' Horizontal Kerning lookup 15-2" uniFBFE dx=57 dy=0 dh=57 dv=0 dx=0 dy=0 dh=0 dv=0
PairPos2: "'kern' Horizontal Kerning lookup 15-1" uniFEE7 dx=-170 dy=0 dh=-170 dv=0 dx=0 dy=0 dh=0 dv=0
PairPos2: "'kern' Horizontal Kerning lookup 15-2" uniFB90 dx=-216 dy=0 dh=-216 dv=0 dx=0 dy=0 dh=0 dv=0
PairPos2: "'kern' Horizontal Kerning lookup 15-2" uniFB8E dx=-216 dy=0 dh=-216 dv=0 dx=0 dy=0 dh=0 dv=0
PairPos2: "'kern' Horizontal Kerning lookup 15-2" uni06A9 dx=-216 dy=0 dh=-216 dv=0 dx=0 dy=0 dh=0 dv=0
PairPos2: "'kern' Horizontal Kerning lookup 15-2" uni064A dx=-57 dy=0 dh=-57 dv=0 dx=0 dy=0 dh=0 dv=0
PairPos2: "'kern' Horizontal Kerning lookup 15-2" afii57414 dx=-57 dy=0 dh=-57 dv=0 dx=0 dy=0 dh=0 dv=0
PairPos2: "'kern' Horizontal Kerning lookup 15-2" uni0649 dx=-57 dy=0 dh=-57 dv=0 dx=0 dy=0 dh=0 dv=0
PairPos2: "'kern' Horizontal Kerning lookup 15-2" uniFEEB dx=-170 dy=0 dh=-170 dv=0 dx=0 dy=0 dh=0 dv=0
PairPos2: "'kern' Horizontal Kerning lookup 15-2" uni0647 dx=-170 dy=0 dh=-170 dv=0 dx=0 dy=0 dh=0 dv=0
PairPos2: "'kern' Horizontal Kerning lookup 15-2" uni0646 dx=-57 dy=0 dh=-57 dv=0 dx=0 dy=0 dh=0 dv=0
PairPos2: "'kern' Horizontal Kerning lookup 15-2" uniFEE3 dx=-170 dy=0 dh=-170 dv=0 dx=0 dy=0 dh=0 dv=0
PairPos2: "'kern' Horizontal Kerning lookup 15-2" uni0645 dx=-170 dy=0 dh=-170 dv=0 dx=0 dy=0 dh=0 dv=0
PairPos2: "'kern' Horizontal Kerning lookup 15-2" uniFEFB dx=-136 dy=0 dh=-136 dv=0 dx=0 dy=0 dh=0 dv=0
PairPos2: "'kern' Horizontal Kerning lookup 15-2" uniFEDF dx=-136 dy=0 dh=-136 dv=0 dx=0 dy=0 dh=0 dv=0
PairPos2: "'kern' Horizontal Kerning lookup 15-2" uni0644 dx=-57 dy=0 dh=-57 dv=0 dx=0 dy=0 dh=0 dv=0
PairPos2: "'kern' Horizontal Kerning lookup 15-2" uniFEDB dx=-216 dy=0 dh=-216 dv=0 dx=0 dy=0 dh=0 dv=0
PairPos2: "'kern' Horizontal Kerning lookup 15-2" uni0643 dx=-136 dy=0 dh=-136 dv=0 dx=0 dy=0 dh=0 dv=0
PairPos2: "'kern' Horizontal Kerning lookup 15-2" uniFED7 dx=-170 dy=0 dh=-170 dv=0 dx=0 dy=0 dh=0 dv=0
PairPos2: "'kern' Horizontal Kerning lookup 15-2" uni0642 dx=-57 dy=0 dh=-57 dv=0 dx=0 dy=0 dh=0 dv=0
PairPos2: "'kern' Horizontal Kerning lookup 15-2" uniFED3 dx=-170 dy=0 dh=-170 dv=0 dx=0 dy=0 dh=0 dv=0
PairPos2: "'kern' Horizontal Kerning lookup 15-2" uni0641 dx=-170 dy=0 dh=-170 dv=0 dx=0 dy=0 dh=0 dv=0
PairPos2: "'kern' Horizontal Kerning lookup 15-2" uniFECF dx=-170 dy=0 dh=-170 dv=0 dx=0 dy=0 dh=0 dv=0
PairPos2: "'kern' Horizontal Kerning lookup 15-2" uniFECB dx=-170 dy=0 dh=-170 dv=0 dx=0 dy=0 dh=0 dv=0
PairPos2: "'kern' Horizontal Kerning lookup 15-2" uniFEC7 dx=-170 dy=0 dh=-170 dv=0 dx=0 dy=0 dh=0 dv=0
PairPos2: "'kern' Horizontal Kerning lookup 15-2" uni0638 dx=-170 dy=0 dh=-170 dv=0 dx=0 dy=0 dh=0 dv=0
PairPos2: "'kern' Horizontal Kerning lookup 15-2" uniFEC3 dx=-170 dy=0 dh=-170 dv=0 dx=0 dy=0 dh=0 dv=0
PairPos2: "'kern' Horizontal Kerning lookup 15-2" uni0637 dx=-170 dy=0 dh=-170 dv=0 dx=0 dy=0 dh=0 dv=0
PairPos2: "'kern' Horizontal Kerning lookup 15-2" uniFEBF dx=-170 dy=0 dh=-170 dv=0 dx=0 dy=0 dh=0 dv=0
PairPos2: "'kern' Horizontal Kerning lookup 15-2" uni0636 dx=-170 dy=0 dh=-170 dv=0 dx=0 dy=0 dh=0 dv=0
PairPos2: "'kern' Horizontal Kerning lookup 15-2" uniFEBB dx=-170 dy=0 dh=-170 dv=0 dx=0 dy=0 dh=0 dv=0
PairPos2: "'kern' Horizontal Kerning lookup 15-2" uni0635 dx=-170 dy=0 dh=-170 dv=0 dx=0 dy=0 dh=0 dv=0
PairPos2: "'kern' Horizontal Kerning lookup 15-2" uniFEB7 dx=-170 dy=0 dh=-170 dv=0 dx=0 dy=0 dh=0 dv=0
PairPos2: "'kern' Horizontal Kerning lookup 15-2" uni0634 dx=-170 dy=0 dh=-170 dv=0 dx=0 dy=0 dh=0 dv=0
PairPos2: "'kern' Horizontal Kerning lookup 15-2" uniFEB3 dx=-170 dy=0 dh=-170 dv=0 dx=0 dy=0 dh=0 dv=0
PairPos2: "'kern' Horizontal Kerning lookup 15-2" uni0633 dx=-170 dy=0 dh=-170 dv=0 dx=0 dy=0 dh=0 dv=0
PairPos2: "'kern' Horizontal Kerning lookup 15-2" uni0630 dx=-170 dy=0 dh=-170 dv=0 dx=0 dy=0 dh=0 dv=0
PairPos2: "'kern' Horizontal Kerning lookup 15-2" uni062F dx=-170 dy=0 dh=-170 dv=0 dx=0 dy=0 dh=0 dv=0
PairPos2: "'kern' Horizontal Kerning lookup 15-2" uniFEA7 dx=-170 dy=0 dh=-170 dv=0 dx=0 dy=0 dh=0 dv=0
PairPos2: "'kern' Horizontal Kerning lookup 15-2" uniFEA3 dx=-170 dy=0 dh=-170 dv=0 dx=0 dy=0 dh=0 dv=0
PairPos2: "'kern' Horizontal Kerning lookup 15-2" uniFE9F dx=-170 dy=0 dh=-170 dv=0 dx=0 dy=0 dh=0 dv=0
PairPos2: "'kern' Horizontal Kerning lookup 15-2" uniFE9B dx=-170 dy=0 dh=-170 dv=0 dx=0 dy=0 dh=0 dv=0
PairPos2: "'kern' Horizontal Kerning lookup 15-2" uni062B dx=-170 dy=0 dh=-170 dv=0 dx=0 dy=0 dh=0 dv=0
PairPos2: "'kern' Horizontal Kerning lookup 15-2" uniFE97 dx=-170 dy=0 dh=-170 dv=0 dx=0 dy=0 dh=0 dv=0
PairPos2: "'kern' Horizontal Kerning lookup 15-2" uni062A dx=-170 dy=0 dh=-170 dv=0 dx=0 dy=0 dh=0 dv=0
PairPos2: "'kern' Horizontal Kerning lookup 15-2" uni0629 dx=-170 dy=0 dh=-170 dv=0 dx=0 dy=0 dh=0 dv=0
PairPos2: "'kern' Horizontal Kerning lookup 15-2" uni0628 dx=-170 dy=0 dh=-170 dv=0 dx=0 dy=0 dh=0 dv=0
PairPos2: "'kern' Horizontal Kerning lookup 15-2" uni0627 dx=-136 dy=0 dh=-136 dv=0 dx=0 dy=0 dh=0 dv=0
PairPos2: "'kern' Horizontal Kerning lookup 15-2" uni0623 dx=-136 dy=0 dh=-136 dv=0 dx=0 dy=0 dh=0 dv=0
PairPos2: "'kern' Horizontal Kerning lookup 15-2" uni0622 dx=-136 dy=0 dh=-136 dv=0 dx=0 dy=0 dh=0 dv=0
PairPos2: "'kern' Horizontal Kerning lookup 15-2" uni0621 dx=-170 dy=0 dh=-170 dv=0 dx=0 dy=0 dh=0 dv=0
PairPos2: "'kern' Horizontal Kerning lookup 15-2" uniFB94 dx=-216 dy=0 dh=-216 dv=0 dx=0 dy=0 dh=0 dv=0
PairPos2: "'kern' Horizontal Kerning lookup 15-2" uniFB92 dx=-216 dy=0 dh=-216 dv=0 dx=0 dy=0 dh=0 dv=0
PairPos2: "'kern' Horizontal Kerning lookup 15-2" uni06AF dx=-216 dy=0 dh=-216 dv=0 dx=0 dy=0 dh=0 dv=0
PairPos2: "'kern' Horizontal Kerning lookup 15-2" afii57506 dx=-170 dy=0 dh=-170 dv=0 dx=0 dy=0 dh=0 dv=0
PairPos2: "'kern' Horizontal Kerning lookup 15-2" afii57440 dx=-170 dy=0 dh=-170 dv=0 dx=0 dy=0 dh=0 dv=0
PairPos2: "'kern' Horizontal Kerning lookup 15-2" uniFE8B dx=-170 dy=0 dh=-170 dv=0 dx=0 dy=0 dh=0 dv=0
Substitution2: "'fina' Terminal Forms in Arabic lookup 9 subtable" uniFEAE
EndChar

StartChar: uni0633
Encoding: 1587 1587 27
GlifName: uni0633
Width: 2489
VWidth: 2819
GlyphClass: 2
Flags: W
AnchorPoint: "Anchor-10" 725.371 1147.58 basechar 0
AnchorPoint: "Anchor-7" 545.449 -791.749 basechar 0
LayerCount: 2
Fore
SplineSet
1554.68457031 0 m 0,0,1
 1441 0 1441 0 1361.95800781 79.958984375 c 1,2,-1
 1361.95019531 75.107421875 l 2,3,4
 1362 -88 1362 -88 1295.8203125 -225.33984375 c 0,5,6
 1154 -522 1154 -522 723.46484375 -522.41796875 c 0,7,8
 329 -523 329 -523 190 -283.029732928 c 0,9,10
 115 -154 115 -154 114.701171875 34.615234375 c 4,11,12
 114 245 114 245 221.556640625 504.11328125 c 1,13,-1
 381.928710938 439.638671875 l 1,14,15
 291 211 291 211 291.643554688 52.2548828125 c 0,16,17
 294 -345 294 -345 736.640496882 -341.440680721 c 0,18,19
 1181.79801897 -337.978236955 1181.79801897 -337.978236955 1182.2890625 98.3798828125 c 0,20,21
 1182 279 1182 279 1098.64941406 516.567382812 c 1,22,-1
 1268.96875 576.073242188 l 1,23,-1
 1336.16015625 360.4609375 l 2,24,25
 1391 186 1391 186 1558.125 186.147460938 c 0,26,27
 1682.19631981 185.999766301 1682.19631981 185.999766301 1700.18359375 350.665039062 c 2,28,-1
 1725.51660156 582.577148438 l 1,29,-1
 1878.40234375 582.577148438 l 1,30,-1
 1903.59179688 349.755859375 l 2,31,32
 1921 185 1921 185 2066.11328125 186.326171875 c 0,33,34
 2204 188 2204 188 2203.67382812 417.99609375 c 0,35,36
 2203 573 2203 573 2162.46679688 703.149414062 c 1,37,-1
 2336.39648438 734.073242188 l 1,38,39
 2381 591 2381 591 2380.12890625 425.858398438 c 0,40,41
 2379 0 2379 0 2066.71777344 0 c 0,42,43
 1898 0 1898 0 1808.84472656 156.598632812 c 1,44,45
 1722 0 1722 0 1554.68457031 0 c 0,0,1
EndSplineSet
Substitution2: "'fina' Terminal Forms in Arabic lookup 9 subtable" uniFEB2
Substitution2: "'medi' Medial Forms in Arabic lookup 11 subtable" uniFEB4
Substitution2: "'init' Initial Forms in Arabic lookup 13 subtable" uniFEB3
EndChar

StartChar: uni0635
Encoding: 1589 1589 29
GlifName: uni0635
Width: 2611
VWidth: 2819
GlyphClass: 2
Flags: W
AnchorPoint: "Anchor-7" 545.449 -786.642 basechar 0
AnchorPoint: "Anchor-10" 725.371 1147.58 basechar 0
LayerCount: 2
Fore
SplineSet
1647.41796875 0 m 2,0,1
 1459 0 1459 0 1361.94921875 77.7373046875 c 1,2,-1
 1361.94335938 73.591796875 l 2,3,4
 1362 -88 1362 -88 1295.828125 -225.323242188 c 0,5,6
 1154 -522 1154 -522 723.46484375 -522.41796875 c 0,7,8
 327 -523 327 -523 189 -281.609109812 c 0,9,10
 115 -153 115 -153 114.701171875 34.615234375 c 4,11,12
 114 245 114 245 221.556640625 504.11328125 c 1,13,-1
 381.928710938 439.638671875 l 1,14,15
 291 211 291 211 291.643554688 52.2548828125 c 0,16,17
 294 -350 294 -350 753.98046875 -341.26953125 c 0,18,19
 1182.98254075 -332.942105438 1182.98254075 -332.942105438 1182.2890625 98.4013671875 c 0,20,21
 1182 281 1182 281 1098.64746094 516.567382812 c 1,22,-1
 1268.96875 576.073242188 l 1,23,-1
 1336.15722656 360.469726562 l 2,24,25
 1374 238 1374 238 1440.59960938 233.850585938 c 1,26,27
 1799 838 1799 838 2135.10253906 836.900390625 c 0,28,29
 2337 836 2337 836 2441.78515625 684.627929688 c 0,30,31
 2519 574 2519 574 2500 424.079101562 c 0,32,33
 2447 0 2447 0 1745.88378906 0 c 2,34,-1
 1647.41796875 0 l 2,0,1
1609.44042969 186.399414062 m 1,35,-1
 1751.22753906 186.399414062 l 2,36,37
 2048 186 2048 186 2185.22753906 264.55859375 c 0,38,39
 2324 343 2324 343 2324.40527344 470.561523438 c 0,40,41
 2325 548 2325 548 2269.23144531 598.12109375 c 0,42,43
 2213 649 2213 649 2133.42480469 648.16796875 c 0,44,45
 1899 645 1899 645 1609.44042969 186.399414062 c 1,35,-1
EndSplineSet
Substitution2: "'fina' Terminal Forms in Arabic lookup 9 subtable" uniFEBA
Substitution2: "'medi' Medial Forms in Arabic lookup 11 subtable" uniFEBC
Substitution2: "'init' Initial Forms in Arabic lookup 13 subtable" uniFEBB
EndChar

StartChar: uni0637
Encoding: 1591 1591 31
GlifName: uni0637
Width: 1512
VWidth: 2819
GlyphClass: 2
Flags: W
AnchorPoint: "Anchor-10" 472.962 1630.02 basechar 0
AnchorPoint: "Anchor-7" 660.147 -228.756 basechar 0
LayerCount: 2
Fore
SplineSet
565.090820312 553.466796875 m 1,0,1
 792 837 792 837 1036.63867188 836.900390625 c 0,2,3
 1240 837 1240 837 1347.29492188 683.623046875 c 0,4,5
 1405 600 1405 600 1405.17382812 489.708007812 c 0,6,7
 1406 0 1406 0 647.391601562 0 c 2,8,-1
 113.3046875 0 l 1,9,-1
 113.3046875 186.2109375 l 1,10,-1
 326.51171875 186.360351562 l 1,11,12
 357 239 357 239 388.329101562 291.5859375 c 1,13,-1
 388.329101562 1464.50488281 l 5,14,-1
 565.090820312 1464.50488281 l 5,15,-1
 565.090820312 553.466796875 l 1,0,1
510.95703125 186.510742188 m 1,16,-1
 652.732421875 186.510742188 l 2,17,18
 949 187 949 187 1087.3203125 266.305664062 c 0,19,20
 1226 347 1226 347 1225.91210938 470.578125 c 0,21,22
 1226 550 1226 550 1170.75683594 600.10546875 c 0,23,24
 1117 649 1117 649 1034.93359375 648.16796875 c 0,25,26
 800 646 800 646 510.95703125 186.510742188 c 1,16,-1
EndSplineSet
Substitution2: "'fina' Terminal Forms in Arabic lookup 9 subtable" uniFEC2
Substitution2: "'medi' Medial Forms in Arabic lookup 11 subtable" uniFEC4
Substitution2: "'init' Initial Forms in Arabic lookup 13 subtable" uniFEC3
EndChar

StartChar: uni0639
Encoding: 1593 1593 33
GlifName: uni0639
Width: 1347
VWidth: 2819
GlyphClass: 2
Flags: W
AnchorPoint: "Anchor-7" 524.429 -919.151 basechar 0
AnchorPoint: "Anchor-10" 688.666 1376.35 basechar 0
LayerCount: 2
Fore
SplineSet
1242.21484375 -621.184570312 m 1,0,1
 1044 -688 1044 -688 850.212890625 -687.95703125 c 0,2,3
 112 -690 112 -690 111.155273438 -148.313476562 c 0,4,5
 110 213 110 213 445.85546875 385.270507812 c 1,6,7
 283.270478453 571.70784798 283.270478453 571.70784798 343.823242188 778.905273438 c 4,8,9
 369.12453275 861.678930443 369.12453275 861.678930443 430.208007812 926.5859375 c 0,10,11
 536 1039 536 1039 717.626464844 1035.89306641 c 0,12,13
 910 1033 910 1033 1077.73828125 917.37109375 c 1,14,-1
 1011.26953125 764.025390625 l 1,15,16
 867 850 867 850 719.296875 849.689453125 c 0,17,18
 595 849 595 849 541.782226562 757.458984375 c 0,19,20
 490 668 490 668 537.036132812 573.42578125 c 0,21,22
 557 533 557 533 616.000976562 457.348632812 c 1,23,24
 909 507 909 507 1151.83789062 477.379882812 c 1,25,-1
 1129.85644531 295.290039062 l 1,26,27
 282 331 282 331 284.052734375 -148.7265625 c 0,28,29
 285 -505 285 -505 854.7109375 -507.236328125 c 0,30,31
 1020 -508 1020 -508 1206.65820312 -444.84375 c 1,32,-1
 1242.21484375 -621.184570312 l 1,0,1
EndSplineSet
Substitution2: "'fina' Terminal Forms in Arabic lookup 9 subtable" uniFECA
Substitution2: "'medi' Medial Forms in Arabic lookup 11 subtable" uniFECC
Substitution2: "'init' Initial Forms in Arabic lookup 13 subtable" uniFECB
EndChar

StartChar: afii57440
Encoding: 1600 1600 35
GlifName: afii57440
Width: 273
VWidth: 2819
GlyphClass: 2
Flags: W
AnchorPoint: "Anchor-10" 128.555 1513.87 basechar 0
AnchorPoint: "Anchor-7" 121.807 -201.968 basechar 0
LayerCount: 2
Fore
SplineSet
-6.6181640625 0 m 2,0,1
 -83.7275390625 0 -83.7275390625 0 -83.7275390625 87.099609375 c 2,2,-1
 -83.7275390625 105.09765625 l 2,3,4
 -83.9951171875 186 -83.9951171875 186 -6.6181640625 186 c 2,5,-1
 281.073242188 186 l 2,6,7
 291.4765625 185.80859375 291.4765625 185.80859375 297.291992188 165.740234375 c 128,-1,8
 303.107421875 145.672851562 303.107421875 145.672851562 303.107421875 105.090820312 c 2,9,-1
 303.107421875 87.107421875 l 2,10,11
 303.001953125 0 303.001953125 0 281.091796875 0 c 2,12,-1
 -6.6181640625 0 l 2,0,1
EndSplineSet
EndChar

StartChar: uni0643
Encoding: 1603 1603 38
GlifName: uni0643
Width: 1938
VWidth: 2819
GlyphClass: 2
Flags: W
AnchorPoint: "Anchor-10" 994.972 1620.64 basechar 0
AnchorPoint: "Anchor-7" 674.107 -235.962 basechar 0
LayerCount: 2
Fore
SplineSet
916.610351562 0.392578125 m 1,0,1
 110.73784625 -2.38792643365 110.73784625 -2.38792643365 111.26171875 525.94921875 c 0,2,3
 111 660 111 660 150.552734375 774.01953125 c 1,4,-1
 305.013671875 733.45703125 l 1,5,6
 281 612 281 612 281.819335938 527.715820312 c 0,7,8
 286 189 286 189 920.594726562 186.165039062 c 0,9,10
 1026.32623397 185.698531877 1026.32623397 185.698531877 1153.64648438 196.301757812 c 0,11,12
 1612 236 1612 236 1606.125 548.403320312 c 1,13,-1
 1606.125 1459.93457031 l 1,14,-1
 1786.2890625 1459.93457031 l 1,15,-1
 1786.2890625 550.693359375 l 2,16,17
 1785.7045846 296.54420281 1785.7045846 296.54420281 1625.765625 161.006835938 c 0,18,19
 1430.92752258 -3.18803775482 1430.92752258 -3.18803775482 916.610351562 0.392578125 c 1,0,1
737.48046875 799.680664062 m 1,20,21
 1096.01621375 759.327392852 1096.01621375 759.327392852 1096.68945312 872.447265625 c 0,22,23
 1097.05651168 951.763149022 1097.05651168 951.763149022 983.083984375 968.62109375 c 0,24,25
 776.334960938 999.764648438 776.334960938 999.764648438 780.186523438 1174.73632812 c 0,26,27
 785.432942859 1375.78787088 785.432942859 1375.78787088 1160.46679688 1401.94628906 c 1,28,-1
 1160.46679688 1273.63671875 l 1,29,30
 912.229492188 1250.8125 912.229492188 1250.8125 912.969726562 1166.99902344 c 0,31,32
 913.271484375 1098.48144531 913.271484375 1098.48144531 1042.92285156 1078.54101562 c 0,33,34
 1228.91113462 1049.44562837 1228.91113462 1049.44562837 1228.90918059 905.327306373 c 128,-1,35
 1228.90722656 761.208984375 1228.90722656 761.208984375 1113.97021484 696.904785156 c 128,-1,36
 999.033203125 632.600585938 999.033203125 632.600585938 737.48046875 672.260742188 c 1,37,-1
 737.48046875 799.680664062 l 1,20,21
EndSplineSet
Substitution2: "'fina' Terminal Forms in Arabic lookup 9 subtable" uniFEDA
Substitution2: "'medi' Medial Forms in Arabic lookup 11 subtable" uniFEDC
Substitution2: "'init' Initial Forms in Arabic lookup 13 subtable" uniFEDB
EndChar

StartChar: uni0644
Encoding: 1604 1604 39
GlifName: uni0644
Width: 1434
VWidth: 2819
GlyphClass: 2
Flags: W
AnchorPoint: "Anchor-7" 555.664 -791.749 basechar 0
AnchorPoint: "Anchor-10" 587.424 1245.84 basechar 0
LayerCount: 2
Fore
SplineSet
719.06640625 -341.606445312 m 0,0,1
 1101.2038681 -337.998074956 1101.2038681 -337.998074956 1102.21484375 98.06640625 c 2,2,-1
 1105.38085938 1463.66503906 l 5,3,-1
 1280.85546875 1463.66503906 l 5,4,-1
 1280.18554688 288.366210938 l 2,5,6
 1280 153 1280 153 1271.28125 29.8232421875 c 0,7,8
 1229 -520 1229 -520 703.46484375 -522.41796875 c 24,9,10
 331 -524 331 -524 190 -278.12109375 c 0,11,12
 115 -147 115 -147 114.701171875 34.8310546875 c 0,13,14
 114 242 114 242 205.709960938 462.44140625 c 1,15,-1
 366 398 l 1,16,17
 291 209 291 209 291.643554688 52.2548828125 c 0,18,19
 294 -346 294 -346 719.06640625 -341.606445312 c 0,0,1
EndSplineSet
Substitution2: "'fina' Terminal Forms in Arabic lookup 9 subtable" uniFEDE
Substitution2: "'medi' Medial Forms in Arabic lookup 11 subtable" uniFEE0
Substitution2: "'init' Initial Forms in Arabic lookup 13 subtable" uniFEDF
EndChar

StartChar: uni0645
Encoding: 1605 1605 40
GlifName: uni0645
Width: 1243
VWidth: 2504
GlyphClass: 2
Flags: W
AnchorPoint: "Anchor-7" 770.205 -324.223 basechar 0
AnchorPoint: "Anchor-10" 751.372 1352.07 basechar 0
LayerCount: 2
Fore
SplineSet
877 -21.9794921875 m 24,0,1
 797 -24 797 -24 697.576171875 14.5927734375 c 0,2,3
 650 33 650 33 597 62 c 128,-1,4
 544 91 544 91 504.818359375 113.135742188 c 0,5,6
 466 135 466 135 425.328125 134.251953125 c 0,7,8
 293.116210938 132.001977672 293.116210938 132.001977672 293.116210938 -198.954101562 c 2,9,-1
 293.116210938 -691.365234375 l 1,10,-1
 112.283203125 -691.365234375 l 1,11,-1
 112.283203125 -193.236328125 l 2,12,13
 112 283 112 283 392.021484375 326.606445312 c 1,14,15
 452 479 452 479 550.356445312 601.99609375 c 0,16,17
 649 725 649 725 801.120117188 724.799804688 c 0,18,19
 958 725 958 725 1050.99121094 610.401367188 c 0,20,21
 1146 493 1146 493 1145.92089844 293.8046875 c 0,22,23
 1146 142 1146 142 1074.4296875 57.0703125 c 0,24,25
 1010 -19 1010 -19 877 -21.9794921875 c 24,0,1
577.426757812 301.91015625 m 5,26,27
 740 160 740 160 863.991210938 159.873046875 c 4,28,29
 979 159 979 159 977.051757812 303 c 4,30,31
 976 393 976 393 929.00390625 462.651367188 c 4,32,33
 878 538 878 538 802.888671875 538.439453125 c 4,34,35
 663 540 663 540 577.426757812 301.91015625 c 5,26,27
EndSplineSet
Substitution2: "'init' Initial Forms in Arabic lookup 13 subtable" uniFEE3
Substitution2: "'medi' Medial Forms in Arabic lookup 11 subtable" uniFEE4
Substitution2: "'fina' Terminal Forms in Arabic lookup 9 subtable" uniFEE2
EndChar

StartChar: uni0647
Encoding: 1607 1607 42
GlifName: uni0647
Width: 971
VWidth: 2819
GlyphClass: 2
Flags: W
AnchorPoint: "Anchor-10" 424.435 1346.85 basechar 0
AnchorPoint: "Anchor-7" 462.45 -226.613 basechar 0
LayerCount: 2
Fore
SplineSet
472.4609375 651.078125 m 2,0,1
 275.00271701 477.51709799 275.00271701 477.51709799 275.7421875 346.088867188 c 0,2,3
 277 186 277 186 482.875 186.499023438 c 0,4,5
 696 186 696 186 698.75 345.705078125 c 0,6,7
 700 409 700 409 643.76953125 484.938476562 c 0,8,9
 588.001823345 560.997513223 588.001823345 560.997513223 475.029296875 651.139648438 c 2,10,-1
 473.719726562 652.184570312 l 1,11,-1
 472.4609375 651.078125 l 2,0,1
387.797851562 971.446289062 m 1,12,13
 506 886 506 886 595.001953125 803.41015625 c 128,-1,14
 684 721 684 721 743.7109375 643.002929688 c 0,15,16
 803 565 803 565 834.190429688 490.170898438 c 0,17,18
 865 416 865 416 866.848632812 344.626953125 c 0,19,20
 872 158 872 158 708.720703125 58.142578125 c 0,21,22
 621 4 621 4 484.939453125 4.302734375 c 0,23,24
 363 4 363 4 276.915039062 46.8447265625 c 0,25,26
 107 131 107 131 107.368164062 333.573242188 c 0,27,28
 107.999310877 550.762859584 107.999310877 550.762859584 349.553710938 786.196289062 c 2,29,-1
 351.133789062 787.736328125 l 1,30,-1
 289.432617188 839.756835938 l 1,31,-1
 387.797851562 971.446289062 l 1,12,13
EndSplineSet
Substitution2: "'fina' Terminal Forms in Arabic lookup 9 subtable" uniFEEA
Substitution2: "'medi' Medial Forms in Arabic lookup 11 subtable" uniFEEC
Substitution2: "'init' Initial Forms in Arabic lookup 13 subtable" uniFEEB
EndChar

StartChar: uni0648
Encoding: 1608 1608 43
GlifName: uni0648
Width: 908
VWidth: 2819
GlyphClass: 2
Flags: W
AnchorPoint: "Anchor-7" 433.2 -745.049 basechar 0
AnchorPoint: "Anchor-10" 421.665 1310.17 basechar 0
LayerCount: 2
Fore
SplineSet
490.37890625 177.797851562 m 24,0,1
 559.856445312 179.995117188 559.856445312 179.995117188 626.948242188 198.99609375 c 2,2,-1
 628.55859375 199.452148438 l 1,3,-1
 628.39453125 201.116210938 l 2,4,5
 611 382 611 382 558.076171875 472.80078125 c 0,6,7
 507 562 507 562 423.163085938 559.473632812 c 0,8,9
 338 558 338 558 295.38671875 432.776367188 c 0,10,11
 272 364 272 364 272.32421875 311 c 0,12,13
 272 252 272 252 306 222.489257812 c 0,14,15
 362 174 362 174 490.37890625 177.797851562 c 24,0,1
801.5703125 126.71484375 m 0,16,17
 801 -188 801 -188 588.400390625 -363.150390625 c 0,18,19
 433 -492 433 -492 112.168945312 -525.983398438 c 1,20,-1
 79.580078125 -348.784179688 l 1,21,22
 553 -307 553 -307 629.525390625 11.8681640625 c 1,23,-1
 591.415039062 7.134765625 l 2,24,25
 94 -55 94 -55 100.228515625 306.284179688 c 0,26,27
 102 418 102 418 147.096679688 521.729492188 c 0,28,29
 244 739 244 739 418.642578125 744.803710938 c 4,30,31
 641 752 641 752 738.907226562 495.77734375 c 0,32,33
 802 331 802 331 801.5703125 126.71484375 c 0,16,17
EndSplineSet
Substitution2: "'fina' Terminal Forms in Arabic lookup 9 subtable" uniFEEE
EndChar

StartChar: uni0649
Encoding: 1609 1609 44
GlifName: uni0649
Width: 1512
VWidth: 2819
GlyphClass: 2
Flags: W
AnchorPoint: "Anchor-7" 557.707 -797.878 basechar 0
AnchorPoint: "Anchor-10" 689.747 1302.17 basechar 0
LayerCount: 2
Fore
SplineSet
725.044921875 -341.549804688 m 24,0,1
 951 -342 951 -342 1106.42675781 -230.01953125 c 0,2,3
 1227 -144 1227 -144 1233.51660156 -35.037109375 c 0,4,5
 1235 -10 1235 -10 1224.69335938 -1.08984375 c 0,6,7
 1207.23857229 14.7830490642 1207.23857229 14.7830490642 1142.37304688 15.15234375 c 2,8,-1
 1028.6484375 15.7998046875 l 2,9,10
 784.465513563 17.1977030177 784.465513563 17.1977030177 840.963600056 269 c 4,11,12
 871.429014265 404.779134343 871.429014265 404.779134343 971 518.131835938 c 0,13,14
 1143 714 1143 714 1394.40332031 718.77734375 c 1,15,-1
 1394.10742188 529.274414062 l 1,16,17
 1077 506 1077 506 1008.22167969 201.341796875 c 1,18,-1
 1187.00488281 201.625976562 l 2,19,20
 1404 202 1404 202 1403.45019531 -12.076171875 c 0,21,22
 1403 -138 1403 -138 1325.25488281 -255.258789062 c 0,23,24
 1254 -364 1254 -364 1123.74316406 -432.703125 c 0,25,26
 1038 -478 1038 -478 937.437500002 -500.309082031 c 0,27,28
 837 -523 837 -523 723.46484375 -522.41796875 c 0,29,30
 329 -521 329 -521 190 -278.12109375 c 0,31,32
 115 -147 115 -147 114.701171875 34.8310546875 c 0,33,34
 114 245 114 245 221.638671875 504.080078125 c 1,35,-1
 381.928710938 439.638671875 l 1,36,37
 291 211 291 211 291.643554688 52.2548828125 c 0,38,39
 294 -341 294 -341 725.044921875 -341.549804688 c 24,0,1
EndSplineSet
Substitution2: "'fina' Terminal Forms in Arabic lookup 9 subtable" uniFEF0
Substitution2: "'medi' Medial Forms in Arabic lookup 11 subtable" uniFBE9
Substitution2: "'init' Initial Forms in Arabic lookup 13 subtable" uniFBE8
EndChar

StartChar: uni064B
Encoding: 1611 1611 46
GlifName: uni064B_
Width: -29
VWidth: 2574
GlyphClass: 4
Flags: W
AnchorPoint: "Anchor-10" 681.723 1237.39 mark 0
AnchorPoint: "Anchor-9" 681.723 1237.39 mark 0
AnchorPoint: "Anchor-1" 636.984 1851.39 basemark 0
AnchorPoint: "Anchor-1" 681.723 1237.39 mark 0
LayerCount: 2
Fore
SplineSet
363 1196 m 1,0,-1
 363 1311.0859375 l 1,1,-1
 869 1518.08691406 l 1,2,-1
 869 1403 l 1,3,-1
 363 1196 l 1,0,-1
363 1476 m 1,4,-1
 363 1591.0859375 l 1,5,-1
 869 1798.08691406 l 1,6,-1
 869 1683 l 1,7,-1
 363 1476 l 1,4,-1
EndSplineSet
EndChar

StartChar: uni064C
Encoding: 1612 1612 47
GlifName: uni064C_
Width: -29
VWidth: 2574
GlyphClass: 4
Flags: W
AnchorPoint: "Anchor-10" 756.562 1354.08 mark 0
AnchorPoint: "Anchor-9" 756.562 1354.08 mark 0
AnchorPoint: "Anchor-1" 635.266 2128.29 basemark 0
AnchorPoint: "Anchor-1" 756.562 1354.08 mark 0
LayerCount: 2
Fore
SplineSet
653 1908 m 0,0,1
 631 1882 631 1882 630.79296875 1848.9921875 c 0,2,3
 631 1785 631 1785 703.98046875 1755.38378906 c 0,4,5
 730 1745 730 1745 786.421875 1727.59179688 c 1,6,7
 817 1779 817 1779 816.668945312 1832.02262488 c 0,8,9
 817.106164437 1941.60964077 817.106164437 1941.60964077 717 1940.32689182 c 0,10,11
 680.612543497 1939.86062711 680.612543497 1939.86062711 653 1908 c 0,0,1
354.217773438 1682.75488281 m 1,12,13
 359 1432 359 1432 502.819335938 1432.52832031 c 0,14,15
 582 1433 582 1433 667.229492188 1515.66796875 c 0,16,17
 717.10272754 1564.09975849 717.10272754 1564.09975849 760.69921875 1651.31542969 c 5,18,-1
 727.822265625 1658.29199219 l 2,19,20
 617 1682 617 1682 575.893554688 1735.61230469 c 0,21,22
 540 1783 540 1783 540 1839 c 128,-1,23
 540 1895 540 1895 558.965820312 1933 c 0,24,25
 608 2028 608 2028 712.416015625 2028.23730469 c 0,26,27
 796 2029 796 2029 851.32421875 1974.75585938 c 0,28,29
 903 1924 903 1924 903.767578125 1833.75488281 c 0,30,31
 903.998660249 1789.2579809 903.998660249 1789.2579809 879.706054688 1712.35449219 c 1,32,-1
 913.185546875 1710.59667969 l 2,33,34
 943 1709 943 1709 978.330078125 1708.35546875 c 1,35,-1
 978.330078125 1621.12109375 l 1,36,37
 936.058117905 1621.99879329 936.058117905 1621.99879329 922.100585938 1623.34082031 c 2,38,-1
 837.465820312 1631.47851562 l 1,39,40
 790 1519 790 1519 691.15435476 1432.37124406 c 0,41,42
 592 1346 592 1346 515.200195312 1345.515625 c 0,43,44
 298 1345 298 1345 292.385742188 1682.75488281 c 1,45,-1
 354.217773438 1682.75488281 l 1,12,13
EndSplineSet
EndChar

StartChar: uni064D
Encoding: 1613 1613 48
GlifName: uni064D_
Width: -29
VWidth: 2574
GlyphClass: 4
Flags: W
AnchorPoint: "Anchor-7" 618.087 68.5674 mark 0
AnchorPoint: "Anchor-6" 618.087 68.5674 mark 0
AnchorPoint: "Anchor-0" 657.803 -496.695 basemark 0
AnchorPoint: "Anchor-0" 618.087 68.5674 mark 0
LayerCount: 2
Fore
SplineSet
369 -540 m 5,0,-1
 369 -424.9140625 l 5,1,-1
 875 -217.913085938 l 5,2,-1
 875 -333 l 5,3,-1
 369 -540 l 5,0,-1
369 -260 m 5,4,-1
 369 -144.9140625 l 5,5,-1
 875 62.0869140625 l 5,6,-1
 875 -53 l 5,7,-1
 369 -260 l 5,4,-1
EndSplineSet
EndChar

StartChar: uni064E
Encoding: 1614 1614 49
GlifName: uni064E_
Width: -29
VWidth: 2574
GlyphClass: 4
Flags: W
AnchorPoint: "Anchor-10" 646.289 1516.26 mark 0
AnchorPoint: "Anchor-9" 646.289 1516.26 mark 0
AnchorPoint: "Anchor-1" 601.551 1879.74 basemark 0
AnchorPoint: "Anchor-1" 646.289 1516.26 mark 0
LayerCount: 2
Fore
SplineSet
329 1499 m 5,0,-1
 329 1614.0859375 l 5,1,-1
 835 1821.08691406 l 5,2,-1
 835 1706 l 5,3,-1
 329 1499 l 5,0,-1
EndSplineSet
EndChar

StartChar: uni064F
Encoding: 1615 1615 50
GlifName: uni064F_
Width: -29
VWidth: 2574
GlyphClass: 4
Flags: W
AnchorPoint: "Anchor-10" 712.55 1432.63 mark 0
AnchorPoint: "Anchor-9" 712.55 1432.63 mark 0
AnchorPoint: "Anchor-1" 611.26 2144.89 basemark 0
AnchorPoint: "Anchor-1" 712.55 1432.63 mark 0
LayerCount: 2
Fore
SplineSet
914.057617188 1637.78027344 m 1,0,1
 883 1638 883 1638 847.732421875 1640.84863281 c 0,2,3
 781 1647 781 1647 771.97265625 1647.61132812 c 2,4,-1
 769.647460938 1647.859375 l 1,5,-1
 768.291015625 1645.95605469 l 2,6,7
 668 1505 668 1505 492.578125 1449.90234375 c 0,8,9
 426 1429 426 1429 353.971679688 1425.19042969 c 1,10,-1
 353.971679688 1512.13964844 l 1,11,12
 526.078274852 1520.00357655 526.078274852 1520.00357655 641.672851562 1641.76171875 c 2,13,-1
 673.229492188 1675.00097656 l 1,14,15
 622 1686 622 1686 579.48046875 1708.26855469 c 0,16,17
 528 1735 528 1735 502.55859375 1773.26855469 c 0,18,19
 474 1817 474 1817 478.055664062 1872.83691406 c 0,20,21
 483 1937 483 1937 518 1980.90039062 c 0,22,23
 567 2040 567 2040 658.856445312 2042.17773438 c 0,24,25
 694 2043 694 2043 728.987304688 2029.27636719 c 0,26,27
 800 2000 800 2000 826.376953125 1930.22070312 c 0,28,29
 841 1891 841 1891 839.495117188 1850.4453125 c 0,30,31
 839 1832 839 1832 835.334960938 1809.72753906 c 0,32,33
 830.236583673 1784.17363148 830.236583673 1784.17363148 822.973632812 1760.83300781 c 2,34,-1
 813.119140625 1729.1640625 l 1,35,-1
 846.240234375 1727.20605469 l 2,36,37
 884 1725 884 1725 914.057617188 1724.7578125 c 1,38,-1
 914.057617188 1637.78027344 l 1,0,1
722.1484375 1744.20019531 m 1,39,-1
 729 1760 l 2,40,41
 752 1813 752 1813 752.397460938 1859.68554688 c 0,42,43
 752 1906 752 1906 722.318359375 1930.42382812 c 0,44,45
 695 1953 695 1953 655.490234375 1952.74609375 c 0,46,47
 610 1953 610 1953 586 1921 c 0,48,49
 566 1894 566 1894 566.520507812 1857.80761719 c 0,50,51
 567 1801 567 1801 639.708984375 1771.98925781 c 0,52,53
 665.234294876 1761.71099548 665.234294876 1761.71099548 718.7109375 1745.2578125 c 2,54,-1
 722.1484375 1744.20019531 l 1,39,-1
EndSplineSet
EndChar

StartChar: uni0650
Encoding: 1616 1616 51
GlifName: uni0650
Width: -29
VWidth: 2574
GlyphClass: 4
Flags: W
AnchorPoint: "Anchor-7" 634.604 -24.249 mark 0
AnchorPoint: "Anchor-6" 634.604 -24.249 mark 0
AnchorPoint: "Anchor-0" 687.879 -371.804 basemark 0
AnchorPoint: "Anchor-0" 634.604 -24.249 mark 0
LayerCount: 2
Fore
SplineSet
381 -384 m 1,0,-1
 381 -268.9140625 l 1,1,-1
 887 -61.9130859375 l 1,2,-1
 887 -177 l 1,3,-1
 381 -384 l 1,0,-1
EndSplineSet
EndChar

StartChar: uni0651
Encoding: 1617 1617 52
GlifName: uni0651
Width: -29
VWidth: 2659
GlyphClass: 4
Flags: W
AnchorPoint: "Anchor-10" 665.334 1626.35 mark 0
AnchorPoint: "Anchor-9" 665.334 1626.35 mark 0
AnchorPoint: "Anchor-1" 633.43 2054.56 basemark 0
AnchorPoint: "Anchor-1" 665.334 1626.35 mark 0
LayerCount: 2
Fore
SplineSet
676.024414062 1964.95898438 m 1,0,1
 678 1919 678 1919 678.469726562 1873.22460938 c 0,2,3
 678 1771 678 1771 771.876953125 1771.390625 c 0,4,5
 850 1772 850 1772 850.696289062 1883.52148438 c 0,6,7
 851 1926 851 1926 832.325195312 2014.34375 c 1,8,-1
 930.1875 2029.84375 l 1,9,10
 950 1961 950 1961 949.474609375 1894.48925781 c 0,11,12
 950 1670 950 1670 777.108398438 1668.51757812 c 0,13,14
 696 1668 696 1668 648.75390625 1728.07421875 c 1,15,16
 615 1598 615 1598 479.983398438 1597.65527344 c 0,17,18
 329.72006835 1597.96363582 329.72006835 1597.96363582 327.003006277 1785 c 0,19,20
 326.046492161 1850.84425299 326.046492161 1850.84425299 341.198242188 1906.37890625 c 5,21,-1
 428.213867188 1891.91210938 l 1,22,23
 417 1840 417 1840 417.307617188 1799.59277344 c 0,24,25
 418 1707 418 1707 492.954101562 1706.55761719 c 0,26,27
 584 1706 584 1706 588.833984375 1832.46191406 c 0,28,29
 591 1889 591 1889 590.106445312 1964.95898438 c 1,30,-1
 676.024414062 1964.95898438 l 1,0,1
EndSplineSet
EndChar

StartChar: uni0652
Encoding: 1618 1618 53
GlifName: uni0652
Width: -29
VWidth: 2574
GlyphClass: 4
Flags: W
AnchorPoint: "Anchor-10" 670.243 1358.26 mark 0
AnchorPoint: "Anchor-9" 670.243 1358.26 mark 0
AnchorPoint: "Anchor-1" 641.708 1999.62 basemark 0
AnchorPoint: "Anchor-1" 670.243 1358.26 mark 0
LayerCount: 2
Fore
SplineSet
442.376953125 1624.08007812 m 128,-1,1
 442.376953125 1715.08007812 442.376953125 1715.08007812 505.376953125 1778.08007812 c 128,-1,2
 568.376953125 1841.08007812 568.376953125 1841.08007812 659.376953125 1841.08007812 c 128,-1,3
 750.376953125 1841.08007812 750.376953125 1841.08007812 813.376953125 1778.08007812 c 128,-1,4
 876.376953125 1715.08007812 876.376953125 1715.08007812 876.376953125 1624.08007812 c 128,-1,5
 876.376953125 1533.08007812 876.376953125 1533.08007812 813.376953125 1470.08007812 c 128,-1,6
 750.376953125 1407.08007812 750.376953125 1407.08007812 659.376953125 1407.08007812 c 128,-1,7
 568.376953125 1407.08007812 568.376953125 1407.08007812 505.376953125 1470.08007812 c 128,-1,0
 442.376953125 1533.08007812 442.376953125 1533.08007812 442.376953125 1624.08007812 c 128,-1,1
538.376953125 1623.08007812 m 4,8,9
 538 1571 538 1571 574.376953125 1535.08007812 c 4,10,11
 610 1499 610 1499 662.376953125 1499.08007812 c 4,12,13
 714 1499 714 1499 750.376953125 1535.08007812 c 4,14,15
 786 1571 786 1571 786.376953125 1623.08007812 c 4,16,17
 786 1675 786 1675 750.376953125 1711.08007812 c 4,18,19
 714 1747 714 1747 662.376953125 1747.08007812 c 4,20,21
 610 1747 610 1747 574.376953125 1711.08007812 c 4,22,23
 538 1675 538 1675 538.376953125 1623.08007812 c 4,8,9
EndSplineSet
EndChar

StartChar: uni0653
Encoding: 1619 1619 54
GlifName: uni0653
Width: -30
VWidth: 2673
GlyphClass: 4
Flags: W
AnchorPoint: "Anchor-10" 461.017 1539.11 mark 0
AnchorPoint: "Anchor-9" 461.017 1539.11 mark 0
AnchorPoint: "Anchor-1" 461.017 1975.25 basemark 0
AnchorPoint: "Anchor-1" 461.017 1539.11 mark 0
LayerCount: 2
Fore
SplineSet
400.348632812 1636.8046875 m 6,0,1
 289.097070302 1652.11547185 289.097070302 1652.11547185 197.061523438 1542.6328125 c 5,2,-1
 95.6953125 1649.29980469 l 5,3,4
 214.313143403 1819.44918336 214.313143403 1819.44918336 383.756835938 1792.15820312 c 6,5,-1
 532.506835938 1768.20019531 l 2,6,7
 630 1752 630 1752 752.004882812 1813.74121094 c 1,8,-1
 817.659179688 1677.28320312 l 1,9,10
 689.104504566 1597.06521075 689.104504566 1597.06521075 540.869140625 1617.46582031 c 2,11,-1
 400.348632812 1636.8046875 l 6,0,1
EndSplineSet
EndChar

StartChar: uni0657
Encoding: 1623 1623 57
GlifName: uni0657
Width: -29
VWidth: 2574
GlyphClass: 4
Flags: W
AnchorPoint: "Anchor-10" 636.984 1500.61 mark 0
AnchorPoint: "Anchor-9" 636.984 1500.61 mark 0
AnchorPoint: "Anchor-1" 636.984 2322.06 basemark 0
AnchorPoint: "Anchor-1" 636.984 1500.61 mark 0
LayerCount: 2
Fore
SplineSet
293.921875 2005.17871094 m 1,0,1
 355.286132812 2003.85742188 355.286132812 2003.85742188 436.0234375 1995.36035156 c 2,2,-1
 438.36328125 1995.11328125 l 1,3,-1
 439.715820312 1997.03808594 l 2,4,5
 498.521484375 2080.7421875 498.521484375 2080.7421875 581.063476562 2130.59570312 c 0,6,7
 775.193359375 2249.32519531 775.193359375 2249.32519531 871.860351562 2258.5703125 c 1,8,-1
 871.860351562 2171.76855469 l 1,9,10
 854.09375 2170.62792969 854.09375 2170.62792969 835.380859375 2166.53613281 c 128,-1,11
 816.66796875 2162.44335938 816.66796875 2162.44335938 796.9609375 2155.38085938 c 128,-1,12
 777.25390625 2148.31738281 777.25390625 2148.31738281 756.5625 2138.34570312 c 128,-1,13
 735.87109375 2128.375 735.87109375 2128.375 714.022460938 2115.39453125 c 128,-1,14
 692.174804688 2102.41503906 692.174804688 2102.41503906 669.3125 2086.57519531 c 128,-1,15
 646.44921875 2070.73535156 646.44921875 2070.73535156 622.276367188 2051.85449219 c 0,16,17
 612.19140625 2044.04980469 612.19140625 2044.04980469 602.612304688 2035.82226562 c 128,-1,18
 593.033203125 2027.59570312 593.033203125 2027.59570312 583.965820312 2018.95117188 c 128,-1,19
 574.897460938 2010.30664062 574.897460938 2010.30664062 566.34765625 2001.25097656 c 2,20,-1
 534.754882812 1967.99023438 l 1,21,-1
 579.684570312 1957.9921875 l 2,22,23
 594.239257812 1955.51171875 594.239257812 1955.51171875 610.462890625 1947.55175781 c 128,-1,24
 626.6875 1939.59082031 626.6875 1939.59082031 644.567382812 1926.0859375 c 0,25,26
 730.833984375 1860.92675781 730.833984375 1860.92675781 731.084960938 1787.63476562 c 0,27,28
 731.012695312 1692.8984375 731.012695312 1692.8984375 685.842773438 1646.59179688 c 128,-1,29
 640.672851562 1600.28515625 640.672851562 1600.28515625 549.287109375 1601.12597656 c 0,30,31
 473.365234375 1601.61816406 473.365234375 1601.61816406 420.776367188 1652.3984375 c 0,32,33
 368.510742188 1703.22949219 368.510742188 1703.22949219 368.484375 1792.53222656 c 0,34,35
 368.51171875 1829.12207031 368.51171875 1829.12207031 385.004882812 1882.13671875 c 2,36,-1
 394.858398438 1913.80566406 l 1,37,-1
 361.743164062 1915.76269531 l 2,38,39
 325.485351562 1917.90429688 325.485351562 1917.90429688 293.921875 1918.19628906 c 1,40,-1
 293.921875 2005.17871094 l 1,0,1
537.047851562 1688.22460938 m 0,41,42
 641.458984375 1688.22460938 641.458984375 1688.22460938 641.458984375 1777.37109375 c 0,43,44
 641.458984375 1809.46679688 641.458984375 1809.46679688 622.973632812 1832.97949219 c 128,-1,45
 604.487304688 1856.4921875 604.487304688 1856.4921875 568.2734375 1870.97851562 c 0,46,47
 542.20703125 1881.41113281 542.20703125 1881.41113281 489.268554688 1897.71386719 c 2,48,-1
 485.83203125 1898.77148438 l 1,49,-1
 469.0546875 1859.63183594 l 2,50,51
 455.58203125 1828.19726562 455.58203125 1828.19726562 455.58203125 1783.29394531 c 0,52,53
 455.58203125 1760.49316406 455.58203125 1760.49316406 463.099609375 1742.71679688 c 128,-1,54
 470.6171875 1724.94042969 470.6171875 1724.94042969 485.655273438 1712.55371094 c 0,55,56
 500.321289062 1700.47460938 500.321289062 1700.47460938 513.091796875 1694.34960938 c 128,-1,57
 525.86328125 1688.22460938 525.86328125 1688.22460938 537.047851562 1688.22460938 c 0,41,42
EndSplineSet
EndChar

StartChar: uni065A
Encoding: 1626 1626 58
GlifName: uni065A_
Width: 1262
VWidth: 2574
GlyphClass: 4
Flags: W
AnchorPoint: "Anchor-10" 636.984 1500.61 mark 0
AnchorPoint: "Anchor-9" 636.984 1500.61 mark 0
AnchorPoint: "Anchor-1" 634.457 2069.31 basemark 0
AnchorPoint: "Anchor-1" 636.984 1500.61 mark 0
LayerCount: 2
Fore
SplineSet
558.185546875 1604.91699219 m 1,0,-1
 342.8046875 1964.98925781 l 1,1,-1
 458.802734375 1964.98925781 l 1,2,-1
 636.983398438 1697.7109375 l 1,3,-1
 815.165039062 1964.98925781 l 1,4,-1
 931.1640625 1964.98925781 l 1,5,-1
 715.780273438 1604.91699219 l 1,6,-1
 558.185546875 1604.91699219 l 1,0,-1
EndSplineSet
EndChar

StartChar: afii57392
Encoding: 1632 1632 59
GlifName: afii57392
Width: 1037
VWidth: 2819
GlyphClass: 2
Flags: W
LayerCount: 2
Fore
SplineSet
388.495117188 568.747070312 m 132,-1,1
 388.495117188 513.10546875 388.495117188 513.10546875 426.869140625 474.732421875 c 132,-1,2
 465.243164062 436.358398438 465.243164062 436.358398438 522.323242188 435.87890625 c 4,3,4
 578.4453125 436.358398438 578.4453125 436.358398438 616.819335938 474.732421875 c 132,-1,5
 655.192382812 513.10546875 655.192382812 513.10546875 655.192382812 568.747070312 c 132,-1,6
 655.192382812 624.389648438 655.192382812 624.389648438 616.819335938 662.763671875 c 132,-1,7
 578.4453125 701.13671875 578.4453125 701.13671875 521.364257812 701.616210938 c 4,8,9
 465.243164062 701.13671875 465.243164062 701.13671875 426.869140625 662.763671875 c 132,-1,0
 388.495117188 624.389648438 388.495117188 624.389648438 388.495117188 568.747070312 c 132,-1,1
301.90234375 784.625 m 132,-1,11
 346.734375 829.45703125 346.734375 829.45703125 400.393554688 851.840820312 c 132,-1,12
 454.052734375 874.224609375 454.052734375 874.224609375 516.681640625 874.224609375 c 4,13,14
 641.861328125 874.224609375 641.861328125 874.224609375 731.4609375 784.625 c 132,-1,15
 821.061523438 695.024414062 821.061523438 695.024414062 821.061523438 569.844726562 c 132,-1,16
 821.061523438 444.666015625 821.061523438 444.666015625 731.4609375 355.065429688 c 4,17,18
 686.629882812 310.234375 686.629882812 310.234375 632.971679688 288 c 132,-1,19
 579.313476562 265.764648438 579.313476562 265.764648438 516.643554688 266.051757812 c 4,20,21
 454.026367188 265.764648438 454.026367188 265.764648438 400.376953125 288.001953125 c 132,-1,22
 346.728515625 310.239257812 346.728515625 310.239257812 301.90234375 355.065429688 c 4,23,24
 212.305664062 444.663085938 212.305664062 444.663085938 212.305664062 569.845703125 c 4,25,26
 212.305664062 632.4765625 212.305664062 632.4765625 234.688476562 686.135742188 c 132,-1,10
 257.072265625 739.794921875 257.072265625 739.794921875 301.90234375 784.625 c 132,-1,11
EndSplineSet
EndChar

StartChar: afii57393
Encoding: 1633 1633 60
GlifName: afii57393
Width: 751
VWidth: 2819
GlyphClass: 2
Flags: W
LayerCount: 2
Fore
SplineSet
306.48828125 1425.69042969 m 1,0,1
 552 815 552 815 572.790039062 11.0205078125 c 1,2,-1
 391.254882812 11.0205078125 l 1,3,4
 373 768 373 768 138.94921875 1368.37402344 c 1,5,-1
 306.48828125 1425.69042969 l 1,0,1
EndSplineSet
EndChar

StartChar: afii57394
Encoding: 1634 1634 61
GlifName: afii57394
Width: 1229
VWidth: 2819
GlyphClass: 2
Flags: W
LayerCount: 2
Fore
SplineSet
306.276367188 1425.61816406 m 5,0,1
 329 1367 329 1367 404.505859375 1154.36621094 c 4,2,3
 480 942 480 942 684.80859375 941.739257812 c 4,4,5
 917 941 917 941 924.690429688 1414.07519531 c 5,6,-1
 1101.85351562 1413.52929688 l 5,7,8
 1100 759 1100 759 680.823242188 757.532226562 c 4,9,10
 572 757 572 757 491.43359375 809.369140625 c 5,11,12
 561 481 561 481 572.795898438 11.0205078125 c 1,13,-1
 391.254882812 11.0205078125 l 1,14,15
 373 768 373 768 138.94921875 1368.375 c 5,16,-1
 306.276367188 1425.61816406 l 5,0,1
EndSplineSet
EndChar

StartChar: afii57395
Encoding: 1635 1635 62
GlifName: afii57395
Width: 1493
VWidth: 2819
GlyphClass: 2
Flags: W
LayerCount: 2
Fore
SplineSet
488.259765625 816.623046875 m 5,0,1
 562 464 562 464 572.795898438 11.0205078125 c 1,2,-1
 391.254882812 11.0205078125 l 1,3,4
 373 768 373 768 138.94921875 1368.37402344 c 5,5,-1
 306.223632812 1425.59863281 l 5,6,7
 408 1144 408 1144 412.05859375 1133.21289062 c 4,8,9
 475 958 475 958 617.134765625 956.85546875 c 4,10,11
 720.945213748 956.000451238 720.945213748 956.000451238 732.841796875 1128.71582031 c 6,12,-1
 749.356445312 1368.4765625 l 5,13,-1
 905.403320312 1368.4765625 l 5,14,-1
 921.033203125 1126.515625 l 6,15,16
 932 951 932 951 1065.46679688 950.42578125 c 4,17,18
 1204.04079293 949.999874623 1204.04079293 949.999874623 1212.61035156 1296.33007812 c 6,19,-1
 1215.91503906 1429.88574219 l 5,20,-1
 1390.28808594 1430.046875 l 5,21,-1
 1389.72265625 1302.52050781 l 6,22,23
 1387 756 1387 756 1071.27636719 760.030273438 c 4,24,25
 923 762 923 762 838.649414062 870.208984375 c 5,26,27
 754 767 754 767 649.060546875 769.244140625 c 4,28,29
 544 771 544 771 488.259765625 816.623046875 c 5,0,1
EndSplineSet
EndChar

StartChar: afii57396
Encoding: 1636 1636 63
GlifName: afii57396
Width: 1089
VWidth: 2819
GlyphClass: 2
Flags: W
LayerCount: 2
Fore
SplineSet
134.7890625 310.21484375 m 0,0,1
 127 524 127 524 547.071289062 738.8203125 c 1,2,3
 225 781 225 781 224.876953125 1045.48339844 c 0,4,5
 225 1411 225 1411 791.434570312 1406.42675781 c 5,6,-1
 791.434570312 1218.84277344 l 5,7,8
 425 1204 425 1204 424.46875 1039.30078125 c 0,9,10
 424 880 424 880 830.397460938 846.0625 c 1,11,-1
 832.629882812 666.36328125 l 1,12,13
 320 461 320 461 327.658203125 317.14453125 c 0,14,15
 333.986724664 191.264059394 333.986724664 191.264059394 676.564453125 192.729492188 c 2,16,-1
 954.397460938 193.91796875 l 1,17,-1
 956.577148438 0.01171875 l 1,18,-1
 630.134765625 0.447265625 l 2,19,20
 146 1 146 1 134.7890625 310.21484375 c 0,0,1
EndSplineSet
EndChar

StartChar: afii57397
Encoding: 1637 1637 64
GlifName: afii57397
Width: 1269
VWidth: 2819
GlyphClass: 2
Flags: W
LayerCount: 2
Fore
SplineSet
607.969726562 1088.87402344 m 5,0,1
 313 773 313 773 313.059570312 513.32421875 c 0,2,3
 313 378 313 378 414 299 c 0,4,5
 501 231 501 231 653.424804688 231.766601562 c 0,6,7
 820 232 820 232 897 322.598632812 c 0,8,9
 955 391 955 391 954.5 520.077148438 c 0,10,11
 954 825 954 825 607.969726562 1088.87402344 c 5,0,1
409.850585938 1244.88085938 m 5,12,-1
 512.618164062 1410.58886719 l 5,13,14
 1141 1009 1141 1009 1141.88085938 498.1015625 c 0,15,16
 1142 280 1142 280 992 149 c 0,17,18
 874 46 874 46 636.389648438 48.173828125 c 0,19,20
 461 50 461 50 333 120 c 0,21,22
 123 236 123 236 125.0625 496.866210938 c 0,23,24
 128 836 128 836 461.69921875 1205.15722656 c 5,25,-1
 409.850585938 1244.88085938 l 5,12,-1
EndSplineSet
EndChar

StartChar: afii57398
Encoding: 1638 1638 65
GlifName: afii57398
Width: 1405
VWidth: 2819
GlyphClass: 2
Flags: W
LayerCount: 2
Fore
SplineSet
887.78125 1195.21289062 m 5,0,1
 792 1167 792 1167 526.0625 1167.04492188 c 132,-1,2
 260 1167 260 1167 79.568359375 1217.42578125 c 5,3,-1
 79.568359375 1424.63476562 l 5,4,5
 316 1365 316 1365 551.03515625 1365.18164062 c 4,6,7
 786 1366 786 1366 1056.70800781 1426.06054688 c 5,8,9
 1081 617 1081 617 1268.02832031 11.0205078125 c 1,10,-1
 1077.14453125 11.0205078125 l 1,11,12
 894 734 894 734 887.78125 1195.21289062 c 5,0,1
EndSplineSet
EndChar

StartChar: afii57399
Encoding: 1639 1639 66
GlifName: afii57399
Width: 1311
VWidth: 2819
GlyphClass: 2
Flags: W
LayerCount: 2
Fore
SplineSet
1205.72558594 1341.49609375 m 5,0,1
 888 711 888 711 737.474609375 11.0205078125 c 1,2,-1
 572.922851562 11.0205078125 l 1,3,4
 420 710 420 710 104.669921875 1341.49316406 c 5,5,-1
 270.489257812 1425.71875 l 5,6,7
 549 851 549 851 655.202148438 329.30859375 c 1,8,9
 762 854 762 854 1039.91015625 1425.71875 c 5,10,-1
 1205.72558594 1341.49609375 l 5,0,1
EndSplineSet
EndChar

StartChar: afii57400
Encoding: 1640 1640 67
GlifName: afii57400
Width: 1311
VWidth: 2819
GlyphClass: 2
Flags: W
LayerCount: 2
Fore
SplineSet
655.202148438 1087.70507812 m 5,0,1
 548 562 548 562 270.489257812 -8.705078125 c 1,2,-1
 104.669921875 75.521484375 l 1,3,4
 420 707 420 707 572.922851562 1405.99414062 c 5,5,-1
 737.473632812 1405.99414062 l 5,6,7
 889 706 889 706 1205.72460938 75.5185546875 c 1,8,-1
 1039.91015625 -8.705078125 l 1,9,10
 762 563 762 563 655.202148438 1087.70507812 c 5,0,1
EndSplineSet
EndChar

StartChar: afii57401
Encoding: 1641 1641 68
GlifName: afii57401
Width: 1293
VWidth: 2819
GlyphClass: 2
Flags: W
LayerCount: 2
Fore
SplineSet
841.328125 641.336914062 m 5,0,1
 684 615 684 615 567.131835938 615.3984375 c 4,2,3
 332 615 332 615 219.205078125 737.76171875 c 4,4,5
 139 825 139 825 138.693359375 952.41796875 c 4,6,7
 138 1175 138 1175 272.41015625 1310.95800781 c 4,8,9
 388 1427 388 1427 546.530273438 1429.03808594 c 4,10,11
 961 1435 961 1435 985.153320312 950.510742188 c 4,12,13
 1017 299 1017 299 1095.74511719 11.0205078125 c 1,14,-1
 913.9296875 11.0205078125 l 1,15,16
 861 208 861 208 841.328125 641.336914062 c 5,0,1
824.095703125 824.959960938 m 5,17,-1
 815.7734375 902.5 l 6,18,19
 780 1239 780 1239 565.846679688 1240.45898438 c 4,20,21
 471 1241 471 1241 397.3984375 1170.25585938 c 4,22,23
 312 1087 312 1087 311.39453125 961.740234375 c 4,24,25
 312 734 312 734 824.095703125 824.959960938 c 5,17,-1
EndSplineSet
EndChar

StartChar: afii57381
Encoding: 1642 1642 69
GlifName: afii57381
Width: 1296
VWidth: 3855
GlyphClass: 2
Flags: W
LayerCount: 2
Fore
SplineSet
778.833007812 332.26953125 m 132,-1,1
 778.833007812 400.127929688 778.833007812 400.127929688 827.369140625 447.764648438 c 4,2,3
 875.004882812 495.401367188 875.004882812 495.401367188 942.864257812 495.850585938 c 132,-1,4
 1010.72363281 496.299804688 1010.72363281 496.299804688 1058.36035156 447.764648438 c 4,5,6
 1105.99609375 400.127929688 1105.99609375 400.127929688 1105.99609375 332.26953125 c 132,-1,7
 1105.99609375 264.409179688 1105.99609375 264.409179688 1058.36035156 216.772460938 c 132,-1,8
 1010.72363281 169.135742188 1010.72363281 169.135742188 942.864257812 169.135742188 c 132,-1,9
 875.004882812 169.135742188 875.004882812 169.135742188 827.369140625 216.772460938 c 4,10,0
 778.833007812 264.409179688 778.833007812 264.409179688 778.833007812 332.26953125 c 132,-1,1
188.833007812 1242.26953125 m 0,11,12
 189 1310 189 1310 237.369140625 1357.76464844 c 0,13,14
 285 1405 285 1405 352.864257812 1405.85058594 c 0,15,16
 421 1406 421 1406 468.360351562 1357.76464844 c 0,17,18
 516 1310 516 1310 515.99609375 1242.26953125 c 0,19,20
 516 1174 516 1174 468.360351562 1126.77246094 c 0,21,22
 421 1079 421 1079 352.864257812 1079.13574219 c 0,23,24
 285 1079 285 1079 237.369140625 1126.77246094 c 0,25,26
 189 1174 189 1174 188.833007812 1242.26953125 c 0,11,12
900.716796875 1480.94140625 m 1,27,-1
 1052 1403 l 1,28,-1
 339.760742188 31.0625 l 1,29,-1
 188.954101562 113.935546875 l 1,30,-1
 900.716796875 1480.94140625 l 1,27,-1
EndSplineSet
EndChar

StartChar: uni066B
Encoding: 1643 1643 70
GlifName: uni066B_
Width: 785
VWidth: 2819
GlyphClass: 2
Flags: W
LayerCount: 2
Fore
SplineSet
506.680664062 786.859375 m 1,0,-1
 637.185546875 731.458984375 l 1,1,-1
 192.0546875 -295.705078125 l 1,2,-1
 59.5341796875 -238.029296875 l 1,3,-1
 506.680664062 786.859375 l 1,0,-1
EndSplineSet
EndChar

StartChar: uni066C
Encoding: 1644 1644 71
GlifName: uni066C_
Width: 561
VWidth: 2714
GlyphClass: 2
Flags: W
LayerCount: 2
Fore
SplineSet
118.303710938 146.556640625 m 0,0,1
 119.721679688 287.779296875 119.721679688 287.779296875 277.162109375 288.237304688 c 0,2,3
 418.836914062 288.864257812 418.836914062 288.864257812 445.075195312 163.501953125 c 0,4,5
 459.108398438 95.10546875 459.108398438 95.10546875 433.698242188 -6.646484375 c 0,6,7
 377.39453125 -221.83203125 377.39453125 -221.83203125 180.146484375 -383.21484375 c 1,8,-1
 126.620117188 -348.999023438 l 1,9,10
 292.999023438 -182.09375 292.999023438 -182.09375 305.735351562 -6.701171875 c 2,11,-1
 306.233398438 0.1328125 l 1,12,-1
 299.384765625 -0.0302734375 l 2,13,14
 253.631835938 -1.107421875 253.631835938 -1.107421875 234.815429688 3.3125 c 0,15,16
 117.56640625 26.97265625 117.56640625 26.97265625 118.303710938 146.556640625 c 0,0,1
EndSplineSet
EndChar

StartChar: afii63167
Encoding: 1645 1645 72
GlifName: afii63167
Width: 1511
VWidth: 2819
GlyphClass: 2
Flags: W
LayerCount: 2
Fore
SplineSet
213.09375 996.443359375 m 1,0,-1
 632.157226562 996.443359375 l 1,1,-1
 763.077148438 1395.05078125 l 1,2,-1
 893.999023438 996.443359375 l 1,3,-1
 1313.0625 996.443359375 l 1,4,-1
 974.486328125 748.931640625 l 1,5,-1
 1103.99023438 351.088867188 l 1,6,-1
 763.077148438 597.432617188 l 1,7,-1
 422.166992188 351.088867188 l 1,8,-1
 551.669921875 748.931640625 l 1,9,-1
 213.09375 996.443359375 l 1,0,-1
EndSplineSet
EndChar

StartChar: uni066E
Encoding: 1646 1646 73
GlifName: uni066E_
Width: 1819
VWidth: 2819
GlyphClass: 2
Flags: W
AnchorPoint: "Anchor-10" 970.416 1352.9 basechar 0
AnchorPoint: "Anchor-7" 970.416 -242.527 basechar 0
LayerCount: 2
Fore
SplineSet
906.544921875 186.20703125 m 0,0,1
 1100.22851562 186.102539062 1100.22851562 186.102539062 1226.97851562 206.245117188 c 128,-1,2
 1353.72851562 226.387695312 1353.72851562 226.387695312 1414.00585938 267.03125 c 0,3,4
 1536.30371094 348.331054688 1536.30371094 348.331054688 1534.57226562 527.793945312 c 0,5,6
 1533.23828125 625.49609375 1533.23828125 625.49609375 1511.38378906 733.458984375 c 1,7,-1
 1665.83496094 774.018554688 l 1,8,9
 1685.39453125 716.754882812 1685.39453125 716.754882812 1695.21191406 654.775390625 c 128,-1,10
 1705.02929688 592.795898438 1705.02929688 592.795898438 1705.12890625 525.951171875 c 0,11,12
 1705.02832031 383.412109375 1705.02832031 383.412109375 1660.02441406 281.009765625 c 128,-1,13
 1615.02050781 178.607421875 1615.02050781 178.607421875 1525.14355469 116.09375 c 0,14,15
 1357.96875 0 1357.96875 0 910.315429688 0 c 2,16,-1
 906.075195312 0 l 2,17,18
 451.130859375 0 451.130859375 0 291.284179688 116.067382812 c 0,19,20
 111.30078125 247.2421875 111.30078125 247.2421875 111.26171875 525.94921875 c 0,21,22
 111.30078125 659.564453125 111.30078125 659.564453125 150.552734375 774.01953125 c 1,23,-1
 304.995117188 733.461914062 l 1,24,25
 281.975585938 623.466796875 281.975585938 623.466796875 281.818359375 527.764648438 c 0,26,27
 281.977539062 344.215820312 281.977539062 344.215820312 402.415039062 267.012695312 c 0,28,29
 527.528320312 187.021484375 527.528320312 187.021484375 906.544921875 186.20703125 c 0,0,1
EndSplineSet
Substitution2: "'init' Initial Forms in Arabic lookup 13 subtable" uni066E.init
Substitution2: "'medi' Medial Forms in Arabic lookup 11 subtable" uni066E.medi
Substitution2: "'fina' Terminal Forms in Arabic lookup 9 subtable" uni066E.fina
EndChar

StartChar: uni066F
Encoding: 1647 1647 74
GlifName: uni066F_
Width: 1513
VWidth: 2819
GlyphClass: 2
Flags: W
AnchorPoint: "Anchor-10" 137.726 1260.68 basechar 0
AnchorPoint: "Anchor-7" 341.288 -764.895 basechar 0
LayerCount: 2
Fore
SplineSet
1391.74707031 233.983398438 m 24,0,1
 1400 153 1400 153 1399.23339844 96.017578125 c 0,2,3
 1399 30 1399 30 1390.25097656 -29.28125 c 0,4,5
 1369 -170 1369 -170 1297.70898438 -272.319335938 c 0,6,7
 1227 -374 1227 -374 1105.36230469 -437.426757812 c 0,8,9
 972 -507 972 -507 733.954101562 -507.045898438 c 0,10,11
 117 -508 117 -508 114.975585938 38.87890625 c 0,12,13
 114 270 114 270 221.826171875 498.377929688 c 1,14,-1
 382.19921875 433.90234375 l 1,15,16
 291 206 291 206 291.91796875 46.5166015625 c 0,17,18
 294 -327 294 -327 742.94140625 -326.06640625 c 0,19,20
 1202 -325 1202 -325 1233.6875 51.40625 c 1,21,-1
 1165.92382812 36.7119140625 l 2,22,23
 1066 15 1066 15 983.889648438 15.8095703125 c 0,24,25
 696 18 696 18 695.921875 283.639648438 c 0,26,27
 696 359 696 359 724.521484375 458.786132812 c 4,28,29
 752 558 752 558 814.17578125 628.681640625 c 0,30,31
 897 722 897 722 1027.53320312 722.217773438 c 0,32,33
 1113 722 1113 722 1186.48535156 674.294921875 c 0,34,35
 1358 563 1358 563 1391.74707031 233.983398438 c 24,0,1
1142.00292969 213.682617188 m 2,36,-1
 1218.23535156 230.69921875 l 1,37,38
 1204 351 1204 351 1170.06738281 424.282226562 c 0,39,40
 1119 536 1119 536 1023.265625 535.666992188 c 0,41,42
 917 536 917 536 875.41796875 390.243164062 c 0,43,44
 862 343 862 343 862.1328125 308.282226562 c 0,45,46
 862 199 862 199 1007.265625 196.958007812 c 0,47,48
 1064 196 1064 196 1142.00292969 213.682617188 c 2,36,-1
EndSplineSet
Substitution2: "'init' Initial Forms in Arabic lookup 13 subtable" uni066F.init
Substitution2: "'medi' Medial Forms in Arabic lookup 11 subtable" uni066F.medi
Substitution2: "'fina' Terminal Forms in Arabic lookup 9 subtable" uni066F.fina
EndChar

StartChar: uni0670
Encoding: 1648 1648 75
GlifName: uni0670
Width: -29
VWidth: 2574
GlyphClass: 4
Flags: W
AnchorPoint: "Anchor-10" 636.984 1500.61 mark 0
AnchorPoint: "Anchor-9" 636.984 1500.61 mark 0
AnchorPoint: "Anchor-1" 636.984 2087.18 basemark 0
AnchorPoint: "Anchor-1" 636.984 1500.61 mark 0
LayerCount: 2
Fore
SplineSet
593.435546875 1568.26757812 m 1,0,-1
 593.435546875 2019.51660156 l 1,1,-1
 680.533203125 2019.51660156 l 1,2,-1
 680.533203125 1568.26757812 l 1,3,-1
 593.435546875 1568.26757812 l 1,0,-1
EndSplineSet
EndChar

StartChar: uni0674
Encoding: 1652 1652 76
GlifName: uni0674
Width: 711
VWidth: 2537
GlyphClass: 2
Flags: W
LayerCount: 2
Fore
SplineSet
160.783203125 2160.9765625 m 4,0,1
 160.783203125 2238.35742188 160.783203125 2238.35742188 197.01953125 2292.171875 c 4,2,3
 204.267578125 2302.93457031 204.267578125 2302.93457031 212.966796875 2312.76953125 c 132,-1,4
 221.666992188 2322.60449219 221.666992188 2322.60449219 231.803710938 2331.49902344 c 4,5,6
 267.177734375 2362.54101562 267.177734375 2362.54101562 308.553710938 2378.19824219 c 132,-1,7
 349.928710938 2393.85449219 349.928710938 2393.85449219 397.013671875 2394.015625 c 6,8,-1
 403.685546875 2393.98535156 l 6,9,10
 446.879882812 2393.4296875 446.879882812 2393.4296875 486.2109375 2383.76464844 c 4,11,12
 527.950195312 2373.5 527.950195312 2373.5 565.293945312 2352.89648438 c 6,13,-1
 567.86328125 2351.47949219 l 5,14,-1
 568.565429688 2219.95410156 l 5,15,-1
 561.474609375 2223.14160156 l 6,16,17
 517.729492188 2242.80664062 517.729492188 2242.80664062 479.985351562 2252.46386719 c 132,-1,18
 442.2421875 2262.12011719 442.2421875 2262.12011719 410.645507812 2261.83105469 c 4,19,20
 352.125 2261.29492188 352.125 2261.29492188 313.947265625 2226.71679688 c 4,21,22
 309.85546875 2223.00878906 309.85546875 2223.00878906 306.375976562 2218.99023438 c 132,-1,23
 302.896484375 2214.97167969 302.896484375 2214.97167969 300.01171875 2210.6171875 c 132,-1,24
 297.126953125 2206.26269531 297.126953125 2206.26269531 294.84765625 2201.57714844 c 132,-1,25
 292.567382812 2196.89257812 292.567382812 2196.89257812 290.87890625 2191.85546875 c 132,-1,26
 289.19140625 2186.81738281 289.19140625 2186.81738281 288.098632812 2181.4296875 c 132,-1,27
 287.006835938 2176.04199219 287.006835938 2176.04199219 286.504882812 2170.28417969 c 4,28,29
 282.595703125 2125.53515625 282.595703125 2125.53515625 310.850585938 2094.0078125 c 132,-1,30
 339.046875 2062.54980469 339.046875 2062.54980469 400.916015625 2043.80957031 c 4,31,32
 403.713867188 2042.92480469 403.713867188 2042.92480469 407.255859375 2042.33398438 c 132,-1,33
 410.797851562 2041.74414062 410.797851562 2041.74414062 415.233398438 2041.453125 c 132,-1,34
 419.668945312 2041.16210938 419.668945312 2041.16210938 424.803710938 2041.20898438 c 4,35,36
 432.533203125 2041.27929688 432.533203125 2041.27929688 442.518554688 2042.05566406 c 132,-1,37
 452.50390625 2042.83300781 452.50390625 2042.83300781 464.6640625 2044.31640625 c 4,38,39
 512.318359375 2050.13085938 512.318359375 2050.13085938 588.657226562 2067.18359375 c 6,40,-1
 594.747070312 2068.54394531 l 5,41,-1
 594.747070312 1933.015625 l 5,42,-1
 158.286132812 1835.02734375 l 5,43,-1
 158.286132812 1968.27050781 l 5,44,-1
 254.625976562 1990.5 l 5,45,46
 160.783203125 2062.67871094 160.783203125 2062.67871094 160.783203125 2160.9765625 c 4,0,1
EndSplineSet
EndChar

StartChar: uni06A1
Encoding: 1697 1697 80
GlifName: uni06A_1
Width: 1822
VWidth: 2819
GlyphClass: 2
Flags: W
AnchorPoint: "Anchor-10" 649.433 1578.23 basechar 0
AnchorPoint: "Anchor-7" 632.578 -333.131 basechar 0
LayerCount: 2
Fore
SplineSet
1502.21972656 1024.01269531 m 4,0,1
 1669 916 1669 916 1707.48144531 583.701660156 c 0,2,3
 1746 248 1746 248 1567.98144531 114.411132812 c 0,4,5
 1431.07037893 12.05261724 1431.07037893 12.05261724 1023.49707031 2.658203125 c 2,6,-1
 908.171875 -0 l 1,7,-1
 906.075195312 0 l 2,8,9
 451 0 451 0 291.284179688 116.067382812 c 0,10,11
 111 247 111 247 111.26171875 525.94921875 c 0,12,13
 111 660 111 660 150.552734375 774.01953125 c 1,14,-1
 304.995117188 733.461914062 l 1,15,16
 282 623 282 623 281.818359375 527.764648438 c 0,17,18
 282 344 282 344 405.776855469 265.107421875 c 0,19,20
 530 186 530 186 906.543945312 186.20703125 c 0,21,22
 1057 186 1057 186 1112.17773438 188.359375 c 0,23,24
 1557.94333402 207.99750359 1557.94333402 207.99750359 1549.52636719 398.755859375 c 2,25,-1
 1549.421875 401.124023438 l 1,26,-1
 1481.65820312 386.4296875 l 2,27,28
 1383 365 1383 365 1299.62402344 365.52734375 c 0,29,30
 1010 368 1010 368 1011.65625 633.357421875 c 0,31,32
 1012 712 1012 712 1040.25634765 811.504394531 c 0,33,34
 1068 908 1068 908 1129.91015625 978.399414062 c 4,35,36
 1213 1072 1213 1072 1343.26757812 1071.93554688 c 4,37,38
 1429 1072 1429 1072 1502.21972656 1024.01269531 c 4,0,1
1457.73730469 563.400390625 m 2,39,-1
 1533.96972656 580.416992188 l 1,40,41
 1519.3540048 701.078621991 1519.3540048 701.078621991 1485.80150223 774 c 0,42,43
 1434.51938265 885.454065723 1434.51938265 885.454065723 1339 885.384525654 c 0,44,45
 1232.75605366 885.307177884 1232.75605366 885.307177884 1191.15234375 739.9609375 c 0,46,47
 1177.86831414 693.140963967 1177.86831414 693.140963967 1177.86739385 658 c 0,48,49
 1177.86451941 548.240303442 1177.86451941 548.240303442 1323 546.67576587 c 0,50,51
 1380.61290339 546.054707868 1380.61290339 546.054707868 1457.73730469 563.400390625 c 2,39,-1
EndSplineSet
Substitution2: "'init' Initial Forms in Arabic lookup 13 subtable" uni06A1.init
Substitution2: "'medi' Medial Forms in Arabic lookup 11 subtable" uni06A1.medi
Substitution2: "'fina' Terminal Forms in Arabic lookup 9 subtable" uni06A1.fina
EndChar

StartChar: uni06A9
Encoding: 1705 1705 81
GlifName: uni06A_9
Width: 1878
VWidth: 2819
GlyphClass: 2
Flags: W
AnchorPoint: "Anchor-7" 667.952 -239.532 basechar 0
AnchorPoint: "Anchor-10" 659.95 1397.29 basechar 0
LayerCount: 2
Fore
SplineSet
1081.76855469 0 m 2,0,-1
 906.075195312 0 l 2,1,2
 451.130859375 0 451.130859375 0 291.284179688 116.067382812 c 0,3,4
 111.30078125 247.2421875 111.30078125 247.2421875 111.26171875 525.94921875 c 0,5,6
 111.30078125 659.564453125 111.30078125 659.564453125 150.552734375 774.01953125 c 1,7,-1
 304.99609375 733.461914062 l 1,8,9
 279.947265625 613.326171875 279.947265625 613.326171875 281.819335938 527.720703125 c 0,10,11
 286.138671875 337.868164062 286.138671875 337.868164062 402.45703125 266.985351562 c 0,12,13
 535.32421875 186.6484375 535.32421875 186.6484375 903.481445312 186.20703125 c 2,14,-1
 1080.97753906 185.995117188 l 2,15,16
 1462.73730469 185.999023438 1462.73730469 185.999023438 1463.41699219 360.655273438 c 0,17,18
 1463.77050781 434.915039062 1463.77050781 434.915039062 1365.46679688 549.880859375 c 0,19,20
 1203.80078125 740.938476562 1203.80078125 740.938476562 1089.19335938 851.935546875 c 0,21,22
 995.91796875 943.727539062 995.91796875 943.727539062 995.724609375 1038.56445312 c 0,23,24
 995.916992188 1168.08789062 995.916992188 1168.08789062 1130.69824219 1221.37304688 c 2,25,-1
 1815.05175781 1491.93359375 l 1,26,-1
 1815.05175781 1300.01953125 l 1,27,-1
 1156.61425781 1044.04003906 l 1,28,-1
 1158.71484375 1041.87597656 l 2,29,30
 1361.203125 833.259765625 1361.203125 833.259765625 1510.40429688 659.314453125 c 0,31,32
 1642.61035156 503.93359375 1642.61035156 503.93359375 1641.72558594 362.821289062 c 0,33,34
 1639.5625 0 1639.5625 0 1081.76855469 0 c 2,0,-1
EndSplineSet
Substitution2: "'init' Initial Forms in Arabic lookup 13 subtable" uniFB90
Substitution2: "'medi' Medial Forms in Arabic lookup 11 subtable" uniFB91
Substitution2: "'fina' Terminal Forms in Arabic lookup 9 subtable" uniFB8F
EndChar

StartChar: afii57514
Encoding: 1722 1722 83
GlifName: afii57514
Width: 1485
VWidth: 2819
GlyphClass: 2
Flags: W
AnchorPoint: "Anchor-10" 742.984 1135.8 basechar 0
AnchorPoint: "Anchor-7" 772.12 -696.352 basechar 0
LayerCount: 2
Fore
SplineSet
732.44140625 -270.603515625 m 0,0,1
 1184 -272 1184 -272 1182.2890625 169.206054688 c 0,2,3
 1182 257 1182 257 1160.26660156 362.737304688 c 0,4,5
 1138 468 1138 468 1095.43164062 589.254882812 c 1,6,-1
 1266.06152344 648.870117188 l 1,7,8
 1363 388 1363 388 1361.90625 135.715820312 c 0,9,10
 1362 -23 1362 -23 1295.82324219 -159.607421875 c 0,11,12
 1155 -452 1155 -452 723.466796875 -451.583984375 c 0,13,14
 330 -450 330 -450 191 -211.98973922 c 0,15,16
 114.970475747 -81.229359135 114.970475747 -81.229359135 114.701171875 105.450195312 c 4,17,18
 114 317 114 317 221.5546875 574.950195312 c 1,19,-1
 381.9296875 510.473632812 l 1,20,21
 291 282 291 282 291.643554688 123.088867188 c 0,22,23
 294 -270 294 -270 732.44140625 -270.603515625 c 0,0,1
EndSplineSet
Substitution2: "'init' Initial Forms in Arabic lookup 13 subtable" uni06BA.init
Substitution2: "'medi' Medial Forms in Arabic lookup 11 subtable" uni06BA.medi
Substitution2: "'fina' Terminal Forms in Arabic lookup 9 subtable" uniFB9F
EndChar

StartChar: uni06F4
Encoding: 1780 1780 90
GlifName: uni06F_4
Width: 1294
VWidth: 2819
GlyphClass: 2
Flags: W
LayerCount: 2
Fore
SplineSet
487.849609375 800.618164062 m 5,0,1
 564 442 564 442 572.813476562 11.0205078125 c 1,2,-1
 391.254882812 11.0205078125 l 1,3,4
 373 768 373 768 138.94921875 1368.37402344 c 5,5,-1
 306.350585938 1425.64257812 l 5,6,7
 410 1152 410 1152 446.381835938 1010.39257812 c 5,8,9
 452 1197 452 1197 568.538085938 1318.45019531 c 4,10,11
 684 1439 684 1439 874.165039062 1437.79882812 c 4,12,13
 990 1437 990 1437 1093.40332031 1389.81738281 c 5,14,-1
 1051.01953125 1219.87890625 l 5,15,16
 977 1250 977 1250 885.872070312 1250.36914062 c 4,17,18
 794 1250 794 1250 722.248046875 1202.00390625 c 4,19,20
 627 1139 627 1139 605.40625 1023.96386719 c 4,21,22
 588 931 588 931 689.447265625 881.203125 c 4,23,24
 820 817 820 817 1005.12011719 855.775390625 c 4,25,26
 1069 869 1069 869 1132.71777344 894.9453125 c 5,27,-1
 1155.76367188 722.412109375 l 5,28,29
 1006 669 1006 669 870.083007812 669.28515625 c 4,30,31
 596 670 596 670 487.849609375 800.618164062 c 5,0,1
EndSplineSet
EndChar

StartChar: uni06F5
Encoding: 1781 1781 91
GlifName: uni06F_5
Width: 1367
VWidth: 2819
GlyphClass: 2
Flags: W
LayerCount: 2
Fore
SplineSet
644.983398438 1097.88183594 m 5,0,1
 292 680 292 680 292.708007812 353.098632812 c 0,2,3
 293 194 293 194 412.897460938 194.439453125 c 0,4,5
 561 194 561 194 624.025390625 494.653320312 c 1,6,-1
 747.333007812 494.548828125 l 1,7,8
 799 191 799 191 957.357421875 190.88671875 c 0,9,10
 1068 191 1068 191 1066.99707031 349.578125 c 0,11,12
 1066 695 1066 695 644.983398438 1097.88183594 c 5,0,1
686.090820312 226.154296875 m 1,13,14
 604 9 604 9 400.954101562 11.4306640625 c 0,15,16
 115 14 115 14 116.697265625 336.502929688 c 0,17,18
 119 725 119 725 513.5 1226.93164062 c 5,19,-1
 459.775390625 1277.22070312 l 5,20,-1
 581.9453125 1426.50976562 l 5,21,-1
 703.674804688 1311.03417969 l 5,22,23
 1242 805 1242 805 1240.59570312 348.805664062 c 0,24,25
 1239 13 1239 13 968.807617188 11.408203125 c 0,26,27
 764 10 764 10 686.090820312 226.154296875 c 1,13,14
EndSplineSet
EndChar

StartChar: uni06F6
Encoding: 1782 1782 92
GlifName: uni06F_6
Width: 1148
VWidth: 2819
GlyphClass: 2
Flags: W
LayerCount: 2
Fore
SplineSet
774.978515625 1216.75097656 m 5,0,1
 724 1222 724 1222 663.018554688 1222.29882812 c 4,2,3
 507 1222 507 1222 415.953125 1154.87597656 c 4,4,5
 325 1088 325 1088 324.846679688 978.923828125 c 4,6,7
 325 877 325 877 428.575195312 832.390625 c 4,8,9
 532 788 532 788 640.735351562 787.768554688 c 5,10,11
 904 917 904 917 986.41015625 944.150390625 c 5,12,-1
 993.96875 760.890625 l 5,13,14
 567 570 567 570 329.966796875 -7.80078125 c 1,15,-1
 163.206054688 48.05078125 l 5,16,17
 282 375 282 375 520.989257812 624.584960938 c 5,18,19
 139 672 139 672 143.73828125 992.963867188 c 4,20,21
 145 1077 145 1077 180.926757812 1150.6015625 c 4,22,23
 306 1404 306 1404 630.59375 1405.7734375 c 4,24,25
 713 1406 713 1406 800.452148438 1391.36328125 c 5,26,-1
 774.978515625 1216.75097656 l 5,0,1
EndSplineSet
EndChar

StartChar: uniFB8F
Encoding: 64399 64399 107
GlifName: uniF_B_8F_
Width: 1934
VWidth: 2819
GlyphClass: 2
Flags: W
AnchorPoint: "Anchor-7" 667.952 -239.532 basechar 0
AnchorPoint: "Anchor-10" 625.613 1444.96 basechar 0
LayerCount: 2
Fore
SplineSet
1076.17285156 0 m 2,0,-1
 906.075195312 0 l 2,1,2
 461.313476562 0 461.313476562 0 291.235351562 116.102539062 c 0,3,4
 111.73828125 240.208984375 111.73828125 240.208984375 111.26171875 525.94921875 c 0,5,6
 111.30078125 659.564453125 111.30078125 659.564453125 150.552734375 774.01953125 c 1,7,-1
 304.99609375 733.461914062 l 1,8,9
 279.947265625 613.326171875 279.947265625 613.326171875 281.819335938 527.719726562 c 0,10,11
 286.087890625 347.307617188 286.087890625 347.307617188 402.359375 267.048828125 c 0,12,13
 520.349609375 185.995117188 520.349609375 185.995117188 910.004882812 185.995117188 c 2,14,-1
 1075.38183594 185.995117188 l 2,15,16
 1286.62304688 185.999023438 1286.62304688 185.999023438 1364.54589844 232.868164062 c 0,17,18
 1426.94335938 270.604492188 1426.94335938 270.604492188 1429.65429688 332.979492188 c 0,19,20
 1430.13378906 349.856445312 1430.13378906 349.856445312 1427.67480469 365.262695312 c 128,-1,21
 1425.21582031 380.669921875 1425.21582031 380.669921875 1419.80859375 394.611328125 c 128,-1,22
 1414.40234375 408.552734375 1414.40234375 408.552734375 1406.0546875 420.986328125 c 0,23,24
 1385.75878906 451.559570312 1385.75878906 451.559570312 1366.96679688 477.893554688 c 128,-1,25
 1348.17578125 504.2265625 1348.17578125 504.2265625 1330.88378906 526.326171875 c 2,26,-1
 1066.31640625 864.442382812 l 2,27,28
 994.875 955.864257812 994.875 955.864257812 992.169921875 1034.88769531 c 0,29,30
 987.8046875 1168.953125 987.8046875 1168.953125 1126.60742188 1223.41601562 c 2,31,-1
 1810.96582031 1491.94238281 l 1,32,-1
 1810.96582031 1300.0234375 l 1,33,-1
 1151.39257812 1044.90722656 l 1,34,-1
 1701.19238281 343.260742188 l 2,35,36
 1742.20117188 290.936523438 1742.20117188 290.936523438 1779.63574219 256.059570312 c 128,-1,37
 1817.06933594 221.181640625 1817.06933594 221.181640625 1851.30664062 203.588867188 c 128,-1,38
 1885.54492188 185.995117188 1885.54492188 185.995117188 1916.37597656 185.995117188 c 2,39,-1
 1941.49121094 185.995117188 l 2,40,41
 1951.88867188 185.997070312 1951.88867188 185.997070312 1957.69726562 165.950195312 c 128,-1,42
 1963.50585938 145.903320312 1963.50585938 145.903320312 1963.50585938 105.090820312 c 2,43,-1
 1963.50585938 87.1083984375 l 2,44,45
 1963.36914062 0 1963.36914062 0 1941.49121094 0 c 2,46,-1
 1925.81152344 0 l 2,47,48
 1830.70605469 0 1830.70605469 0 1743.54492188 53.1181640625 c 128,-1,49
 1656.38378906 106.235351562 1656.38378906 106.235351562 1577.09375 212.6875 c 2,50,-1
 1574.7890625 215.783203125 l 1,51,-1
 1573.58886719 212.114257812 l 2,52,53
 1504.24121094 0 1504.24121094 0 1076.17285156 0 c 2,0,-1
EndSplineSet
EndChar

StartChar: uniFB9F
Encoding: 64415 64415 115
GlifName: uniF_B_9F_
Width: 1562
VWidth: 2819
GlyphClass: 2
Flags: W
AnchorPoint: "Anchor-10" 606.323 879.006 basechar 0
AnchorPoint: "Anchor-7" 503.189 -779.955 basechar 0
LayerCount: 2
Fore
SplineSet
1546.50195312 0 m 2,0,1
 1446 0 1446 0 1361.95410156 79.1884765625 c 1,2,-1
 1361.94726562 74.5732421875 l 2,3,4
 1362 -88 1362 -88 1295.81738281 -225.34765625 c 0,5,6
 1155 -523 1155 -523 723.46484375 -522.41796875 c 4,7,8
 329 -521 329 -521 190 -278.120741923 c 4,9,10
 115 -147 115 -147 114.701171875 34.8310546875 c 4,11,12
 114 245 114 245 221.638671875 504.080078125 c 5,13,-1
 381.928710938 439.638671875 l 5,14,15
 291 211 291 211 291.643554688 52.2548828125 c 4,16,17
 294 -345 294 -345 739.06640625 -341.606445312 c 4,18,19
 1180 -338 1180 -338 1182.2890625 98.3701171875 c 0,20,21
 1183 271 1183 271 1095.4296875 518.418945312 c 1,22,-1
 1265.80957031 577.946289062 l 1,23,-1
 1336.17578125 360.413085938 l 2,24,25
 1391.98365277 187.05078125 1391.98365277 187.05078125 1551.84472656 187.05078125 c 2,26,-1
 1570.07714844 187.05078125 l 2,27,28
 1592.09570312 186.999778317 1592.09570312 186.999778317 1592.09570312 109.587890625 c 2,29,-1
 1592.09570312 87.0947265625 l 2,30,31
 1592 0 1592 0 1570.07910156 0 c 2,32,-1
 1546.50195312 0 l 2,0,1
EndSplineSet
EndChar

StartChar: uniFBE8
Encoding: 64488 64488 118
GlifName: uniF_B_E_8
Width: 656
VWidth: 2819
GlyphClass: 2
Flags: W
AnchorPoint: "Anchor-10" 297.014 1312.5 basechar 0
AnchorPoint: "Anchor-7" 255.42 -500.444 basechar 0
LayerCount: 2
Fore
SplineSet
-6.6181640625 0 m 2,0,1
 -83.7275390625 0 -83.7275390625 0 -83.7275390625 87.099609375 c 2,2,-1
 -83.7275390625 105.092773438 l 2,3,4
 -83.8037109375 185.995117188 -83.8037109375 185.995117188 -6.6181640625 185.995117188 c 2,5,-1
 93.2080078125 185.995117188 l 2,6,7
 205.266601562 185.997070312 205.266601562 185.997070312 271.504882812 215.252929688 c 0,8,9
 297.479492188 226.724609375 297.479492188 226.724609375 316.439453125 244.091796875 c 128,-1,10
 335.3984375 261.459960938 335.3984375 261.459960938 347.284179688 284.655273438 c 128,-1,11
 359.169921875 307.849609375 359.169921875 307.849609375 363.95703125 336.811523438 c 0,12,13
 389.702148438 492.564453125 389.702148438 492.564453125 329.317382812 741.298828125 c 1,14,-1
 504.265625 772.264648438 l 1,15,16
 565.837890625 558.633789062 565.837890625 558.633789062 545.8125 338.33203125 c 0,17,18
 532.267578125 182.135742188 532.267578125 182.135742188 445.046875 102.474609375 c 0,19,20
 332.84765625 0 332.84765625 0 93.197265625 0 c 2,21,-1
 -6.6181640625 0 l 2,0,1
EndSplineSet
EndChar

StartChar: uniFBE9
Encoding: 64489 64489 119
GlifName: uniF_B_E_9
Width: 733
VWidth: 2819
GlyphClass: 2
Flags: W
AnchorPoint: "Anchor-10" 281.098 1240.09 basechar 0
AnchorPoint: "Anchor-7" 324.361 -166.678 basechar 0
LayerCount: 2
Fore
SplineSet
528.469726562 349.77734375 m 6,0,1
 544.704897534 185.995117187 544.704897534 185.995117187 732.583007812 185.995117188 c 6,2,-1
 740.287109375 185.995117188 l 6,3,4
 751 186 751 186 756.462890625 163.787109375 c 4,5,6
 762.302734375 140.808817653 762.302734375 140.808817653 762.302734375 96.646484375 c 6,7,-1
 762.302734375 87.115234375 l 6,8,9
 762 0 762 0 740.287109375 0 c 6,10,-1
 731.087890625 0 l 6,11,12
 514.809098973 -5.68434188608e-14 514.809098973 -5.68434188608e-14 436.86328125 151.065429688 c 6,13,-1
 435.396484375 153.908203125 l 5,14,-1
 433.483398438 151.344726562 l 6,15,16
 321 0 321 0 82.7255859375 0 c 6,17,-1
 -7.7421875 0 l 6,18,19
 -83.7275390625 0 -83.7275390625 0 -83.7275390625 87.099609375 c 6,20,-1
 -83.7275390625 105.092773438 l 6,21,22
 -83.9999835568 185.995117188 -83.9999835568 185.995117188 -7.7421875 185.995117188 c 6,23,-1
 78.197265625 185.995117188 l 6,24,25
 308.588724342 185.999991299 308.588724342 185.999991299 325.065429688 350.682617188 c 6,26,-1
 350.413085938 604.029296875 l 5,27,-1
 503.266601562 604.029296875 l 5,28,-1
 528.469726562 349.77734375 l 6,0,1
EndSplineSet
EndChar

StartChar: uniFE73
Encoding: 65139 65139 127
GlifName: uniF_E_73
Width: 708
VWidth: 2819
GlyphClass: 2
Flags: W
AnchorPoint: "Anchor-10" 262.255 1642.03 basechar 0
AnchorPoint: "Anchor-7" 262.255 -161.491 basechar 0
LayerCount: 2
Fore
SplineSet
356.108398438 437.8359375 m 2,0,1
 356.108398438 347.541015625 356.108398438 347.541015625 433.982421875 269.668945312 c 0,2,3
 451.8359375 251.813476562 451.8359375 251.813476562 474.75390625 238.462890625 c 128,-1,4
 497.670898438 225.111328125 497.670898438 225.111328125 525.614257812 216.266601562 c 0,5,6
 553.340820312 207.491210938 553.340820312 207.491210938 585.998046875 203.109375 c 128,-1,7
 618.654296875 198.728515625 618.654296875 198.728515625 656.25390625 198.728515625 c 2,8,-1
 726.525390625 198.728515625 l 1,9,-1
 726.525390625 11.0205078125 l 1,10,-1
 579.94921875 11.0205078125 l 2,11,12
 396.943359375 11.0205078125 396.943359375 11.0205078125 279.202148438 128.760742188 c 0,13,14
 168.397460938 239.56640625 168.397460938 239.56640625 168.397460938 421.186523438 c 2,15,-1
 168.397460938 447.0625 l 1,16,-1
 356.108398438 447.0625 l 1,17,-1
 356.108398438 437.8359375 l 2,0,1
EndSplineSet
EndChar

StartChar: uniFE8E
Encoding: 65166 65166 153
GlifName: uniF_E_8E_
Width: 565
VWidth: 2819
GlyphClass: 2
Flags: W
AnchorPoint: "Anchor-10" 251.528 1630.53 basechar 0
AnchorPoint: "Anchor-7" 302.446 -229.008 basechar 0
LayerCount: 2
Fore
SplineSet
571.870117188 0 m 2,0,-1
 551.955078125 0 l 2,1,2
 164.333007812 -0.0212363478515 164.333007812 -0.0212363478515 164.333007812 421.026367188 c 2,3,-1
 164.333007812 1463.83496094 l 5,4,-1
 341.096679688 1463.83496094 l 5,5,-1
 341.096679688 422.985351562 l 2,6,7
 340.999998008 185.995117188 340.999998008 185.995117188 554.868164062 185.995117188 c 2,8,-1
 571.870117188 185.995117188 l 2,9,10
 579 186 579 186 583.544921875 177.599609375 c 128,-1,11
 588 169 588 169 591.135742188 150.861328125 c 0,12,13
 593.885742188 137.552940806 593.885742188 137.552940806 593.885742188 105.090820312 c 2,14,-1
 593.885742188 87.1005859375 l 2,15,16
 594 0 594 0 571.870117188 0 c 2,0,-1
EndSplineSet
EndChar

StartChar: uniFEA2
Encoding: 65186 65186 173
GlifName: uniF_E_A_2
Width: 1381
VWidth: 2819
GlyphClass: 2
Flags: W
AnchorPoint: "Anchor-7" 524.429 -919.151 basechar 0
AnchorPoint: "Anchor-10" 652.86 1305.89 basechar 0
LayerCount: 2
Fore
SplineSet
1251.53417969 641.431640625 m 1,0,-1
 1238.75683594 464.603515625 l 1,1,2
 1134.82128906 456.479492188 1134.82128906 456.479492188 1054.52539062 445.428710938 c 2,3,-1
 1052.79785156 445.190429688 l 1,4,-1
 1052.79785156 439.858398438 l 2,5,6
 1053.21191406 183.147460938 1053.21191406 183.147460938 1365.49707031 186.059570312 c 2,7,-1
 1387.72558594 186.267578125 l 2,8,9
 1394.578125 186.190429688 1394.578125 186.190429688 1399.41992188 178.204101562 c 128,-1,10
 1404.26269531 170.216796875 1404.26269531 170.216796875 1407.00292969 152.868164062 c 128,-1,11
 1409.74316406 135.520507812 1409.74316406 135.520507812 1409.74316406 109.587890625 c 2,12,-1
 1409.74316406 87.1064453125 l 2,13,14
 1409.71386719 0 1409.71386719 0 1387.72753906 0 c 2,15,-1
 1366.35839844 0 l 2,16,17
 1133.62304688 0 1133.62304688 0 1017.36816406 101.720703125 c 128,-1,18
 901.11328125 203.44140625 901.11328125 203.44140625 900.58984375 407.2890625 c 2,19,-1
 900.5703125 414.908203125 l 1,20,-1
 898.083984375 414.275390625 l 2,21,22
 296.283203125 261.059570312 296.283203125 261.059570312 294.94921875 -138.162109375 c 0,23,24
 294.231445312 -506.575195312 294.231445312 -506.575195312 833.94140625 -507.236328125 c 0,25,26
 1030.70117188 -507.59765625 1030.70117188 -507.59765625 1217.55371094 -444.84375 c 1,27,-1
 1253.11132812 -621.185546875 l 1,28,29
 1054.86328125 -688.48828125 1054.86328125 -688.48828125 829.450195312 -687.95703125 c 0,30,31
 473.510742188 -687.204101562 473.510742188 -687.204101562 296.883789062 -549.206054688 c 128,-1,32
 120.256835938 -411.208984375 120.256835938 -411.208984375 122.05078125 -135.729492188 c 0,33,34
 122.681640625 -4.1103515625 122.681640625 -4.1103515625 164.745117188 105.260742188 c 128,-1,35
 206.80859375 214.631835938 206.80859375 214.631835938 290.38671875 301.857421875 c 128,-1,36
 373.96484375 389.083007812 373.96484375 389.083007812 499.14453125 454.1171875 c 128,-1,37
 624.323242188 519.150390625 624.323242188 519.150390625 791.138671875 562.01171875 c 2,38,-1
 798.4765625 563.897460938 l 1,39,-1
 791.1640625 565.879882812 l 2,40,41
 779.915039062 568.928710938 779.915039062 568.928710938 768.364257812 571.885742188 c 128,-1,42
 756.8125 574.842773438 756.8125 574.842773438 744.965820312 577.706054688 c 0,43,44
 507.798828125 635.403320312 507.798828125 635.403320312 417.842773438 623.920898438 c 0,45,46
 341.241210938 614.842773438 341.241210938 614.842773438 268.224609375 520.793945312 c 2,47,-1
 240.057617188 484.51171875 l 1,48,-1
 95.001953125 570.2109375 l 1,49,-1
 112.546875 599.181640625 l 2,50,51
 234.083984375 800.01171875 234.083984375 800.01171875 396.208007812 813.329101562 c 0,52,53
 510.536132812 822.370117188 510.536132812 822.370117188 794.143554688 737.979492188 c 0,54,55
 1076.3359375 653.446289062 1076.3359375 653.446289062 1251.53417969 641.431640625 c 1,0,-1
EndSplineSet
EndChar

StartChar: uniFEA3
Encoding: 65187 65187 174
GlifName: uniF_E_A_3
Width: 1354
VWidth: 2819
GlyphClass: 2
Flags: W
AnchorPoint: "Anchor-10" 613.591 1370.75 basechar 0
AnchorPoint: "Anchor-7" 548.442 -240.128 basechar 0
LayerCount: 2
Fore
SplineSet
-6.6181640625 0 m 2,0,1
 -83.7275390625 0 -83.7275390625 0 -83.7275390625 87.099609375 c 2,2,-1
 -83.7275390625 105.092773438 l 2,3,4
 -84.0009010887 186.267578125 -84.0009010887 186.267578125 -6.6181640625 186.267578125 c 2,5,-1
 51.5029296875 186.267578125 l 2,6,7
 406.582543946 186.000314214 406.582543946 186.000314214 687.716796875 348.677734375 c 6,8,-1
 979.735351562 517.653320312 l 5,9,10
 970 519 970 519 694.185546875 598.490234375 c 4,11,12
 504 653 504 653 428.244140625 644.526367188 c 132,-1,13
 352.489394852 636.05472893 352.489394852 636.05472893 278.869140625 541.223632812 c 6,14,-1
 250.702148438 504.94140625 l 5,15,-1
 105.647460938 590.640625 l 5,16,-1
 123.19140625 619.612304688 l 6,17,18
 245 820 245 820 406.852539062 833.759765625 c 4,19,20
 521 843 521 843 804 748.5 c 132,-1,21
 1087 654 1087 654 1262.29589844 641.853515625 c 5,22,-1
 1260.50195312 488.325195312 l 5,23,24
 1216 481 1216 481 873.5 250.5 c 4,25,26
 501 0 501 0 59.34765625 0 c 2,27,-1
 -6.6181640625 0 l 2,0,1
EndSplineSet
EndChar

StartChar: uniFEA4
Encoding: 65188 65188 175
GlifName: uniF_E_A_4
Width: 1387
VWidth: 2819
GlyphClass: 2
Flags: W
AnchorPoint: "Anchor-7" 548.442 -240.128 basechar 0
AnchorPoint: "Anchor-10" 613.591 1370.75 basechar 0
LayerCount: 2
Fore
SplineSet
924 284.354492188 m 5,0,1
 900 268 900 268 873.5 250.5 c 4,2,3
 494 0 494 0 59.34765625 0 c 2,4,-1
 -6.6181640625 0 l 2,5,6
 -83.7275390625 0 -83.7275390625 0 -83.7275390625 87.099609375 c 2,7,-1
 -83.7275390625 105.092773438 l 2,8,9
 -84.0009010887 186.267578125 -84.0009010887 186.267578125 -6.6181640625 186.267578125 c 2,10,-1
 51.5029296875 186.267578125 l 2,11,12
 406.582543946 186.000314214 406.582543946 186.000314214 687.716796875 348.677734375 c 6,13,-1
 979.735351562 517.653320312 l 5,14,15
 970 519 970 519 694.185546875 598.490234375 c 4,16,17
 504 653 504 653 428.244140625 644.526367188 c 132,-1,18
 352.489394852 636.05472893 352.489394852 636.05472893 278.869140625 541.223632812 c 6,19,-1
 250.702148438 504.94140625 l 5,20,-1
 105.647460938 590.640625 l 5,21,-1
 123.19140625 619.612304688 l 6,22,23
 245 820 245 820 406.852539062 833.759765625 c 4,24,25
 521 843 521 843 804 748.5 c 132,-1,26
 1087 654 1087 654 1262.29589844 641.853515625 c 5,27,-1
 1260.50195312 488.325195312 l 5,28,29
 1229 482 1229 482 1052 368 c 5,30,31
 1054.99558937 186.267578125 1054.99558937 186.267578125 1382.16113281 186.267578125 c 2,32,-1
 1395.32910156 186.267578125 l 2,33,34
 1417.35351562 185.99563502 1417.35351562 185.99563502 1417.35351562 109.587890625 c 2,35,-1
 1417.35351562 87.1015625 l 2,36,37
 1417 0 1417 0 1395.33984375 0 c 2,38,-1
 1376.90136719 0 l 2,39,40
 956 0 956 0 924 284.354492188 c 5,0,1
EndSplineSet
EndChar

StartChar: uniFEAA
Encoding: 65194 65194 181
GlifName: uniF_E_A_A_
Width: 1118
VWidth: 2819
GlyphClass: 2
Flags: W
AnchorPoint: "Anchor-7" 449.494 -237.987 basechar 0
AnchorPoint: "Anchor-10" 530.516 1370.83 basechar 0
LayerCount: 2
Fore
SplineSet
1115.53027344 0 m 2,0,1
 936.795898438 0 936.795898438 0 834.133789062 162.209960938 c 2,2,-1
 832.650390625 164.553710938 l 1,3,-1
 830.89453125 162.40625 l 2,4,5
 698.681640625 2.39453125 698.681640625 2.39453125 386.349609375 0.802734375 c 0,6,7
 254.4453125 0.0068359375 254.4453125 0.0068359375 104.0625 28.6689453125 c 1,8,-1
 104.0625 215.521484375 l 1,9,10
 239.225585938 187.018554688 239.225585938 187.018554688 396.26171875 186.77734375 c 0,11,12
 529.57421875 187.021484375 529.57421875 187.021484375 629.55078125 232.76171875 c 0,13,14
 729.776367188 278.868164062 729.776367188 278.868164062 689.716796875 397.858398438 c 0,15,16
 662.643554688 479.231445312 662.643554688 479.231445312 614.405273438 581.966796875 c 2,17,-1
 452.100585938 927.66796875 l 1,18,-1
 621.918945312 1012.20898438 l 1,19,-1
 853.038085938 486.533203125 l 2,20,21
 985.465820312 185.995117188 985.465820312 185.995117188 1106.32324219 185.995117188 c 2,22,-1
 1125.0546875 185.995117188 l 2,23,24
 1147.0703125 185.999023438 1147.0703125 185.999023438 1147.0703125 105.090820312 c 2,25,-1
 1147.0703125 87.1025390625 l 2,26,27
 1147.18457031 0 1147.18457031 0 1125.0546875 0 c 2,28,-1
 1115.53027344 0 l 2,0,1
EndSplineSet
EndChar

StartChar: uniFEAE
Encoding: 65198 65198 185
GlifName: uniF_E_A_E_
Width: 892
VWidth: 2819
GlyphClass: 2
Flags: W
AnchorPoint: "Anchor-7" 331.48 -745.049 basechar 0
AnchorPoint: "Anchor-10" 481.343 1328.55 basechar 0
LayerCount: 2
Fore
SplineSet
687.958984375 340.240234375 m 0,0,1
 755.763408765 185.995117187 755.763408765 185.995117187 874.442382812 185.995117188 c 2,2,-1
 899.639648438 185.995117188 l 2,3,4
 921.65625 185.999924936 921.65625 185.999924936 921.65625 109.587890625 c 2,5,-1
 921.65625 87.09765625 l 2,6,7
 922 0 922 0 899.639648438 0 c 2,8,-1
 883.734375 0 l 2,9,10
 757.945692713 5.68434188608e-14 757.945692713 5.68434188608e-14 707.129882812 60.919921875 c 2,11,-1
 704.104492188 64.546875 l 1,12,-1
 703.60546875 59.8505859375 l 2,13,14
 685 -114 685 -114 598.344726562 -244.609375 c 0,15,16
 437 -486 437 -486 35.3505859375 -525.994140625 c 1,17,-1
 3.2939453125 -348.115234375 l 1,18,19
 328 -316 328 -316 461.831054688 -127.840820312 c 0,20,21
 534 -26 534 -26 533.422851562 102.563476562 c 0,22,23
 533 299 533 299 418.202148438 497.952148438 c 1,24,-1
 582.1328125 576.619140625 l 1,25,26
 687.958984375 340.240234375 l 0,0,1
EndSplineSet
PairPos2: "'kern' Horizontal Kerning lookup 15-2" uniFBFE dx=57 dy=0 dh=57 dv=0 dx=0 dy=0 dh=0 dv=0
PairPos2: "'kern' Horizontal Kerning lookup 15-1" uniFEE7 dx=-170 dy=0 dh=-170 dv=0 dx=0 dy=0 dh=0 dv=0
PairPos2: "'kern' Horizontal Kerning lookup 15-2" uniFB90 dx=-216 dy=0 dh=-216 dv=0 dx=0 dy=0 dh=0 dv=0
PairPos2: "'kern' Horizontal Kerning lookup 15-2" uniFB8E dx=-216 dy=0 dh=-216 dv=0 dx=0 dy=0 dh=0 dv=0
PairPos2: "'kern' Horizontal Kerning lookup 15-2" uni06A9 dx=-216 dy=0 dh=-216 dv=0 dx=0 dy=0 dh=0 dv=0
PairPos2: "'kern' Horizontal Kerning lookup 15-2" uni064A dx=-57 dy=0 dh=-57 dv=0 dx=0 dy=0 dh=0 dv=0
PairPos2: "'kern' Horizontal Kerning lookup 15-2" afii57414 dx=-57 dy=0 dh=-57 dv=0 dx=0 dy=0 dh=0 dv=0
PairPos2: "'kern' Horizontal Kerning lookup 15-2" uni0649 dx=-57 dy=0 dh=-57 dv=0 dx=0 dy=0 dh=0 dv=0
PairPos2: "'kern' Horizontal Kerning lookup 15-2" uniFEEB dx=-170 dy=0 dh=-170 dv=0 dx=0 dy=0 dh=0 dv=0
PairPos2: "'kern' Horizontal Kerning lookup 15-2" uni0647 dx=-170 dy=0 dh=-170 dv=0 dx=0 dy=0 dh=0 dv=0
PairPos2: "'kern' Horizontal Kerning lookup 15-2" uni0646 dx=-57 dy=0 dh=-57 dv=0 dx=0 dy=0 dh=0 dv=0
PairPos2: "'kern' Horizontal Kerning lookup 15-2" uniFEE3 dx=-170 dy=0 dh=-170 dv=0 dx=0 dy=0 dh=0 dv=0
PairPos2: "'kern' Horizontal Kerning lookup 15-2" uni0645 dx=-170 dy=0 dh=-170 dv=0 dx=0 dy=0 dh=0 dv=0
PairPos2: "'kern' Horizontal Kerning lookup 15-2" uniFEFB dx=-136 dy=0 dh=-136 dv=0 dx=0 dy=0 dh=0 dv=0
PairPos2: "'kern' Horizontal Kerning lookup 15-2" uniFEDF dx=-136 dy=0 dh=-136 dv=0 dx=0 dy=0 dh=0 dv=0
PairPos2: "'kern' Horizontal Kerning lookup 15-2" uni0644 dx=-57 dy=0 dh=-57 dv=0 dx=0 dy=0 dh=0 dv=0
PairPos2: "'kern' Horizontal Kerning lookup 15-2" uniFEDB dx=-216 dy=0 dh=-216 dv=0 dx=0 dy=0 dh=0 dv=0
PairPos2: "'kern' Horizontal Kerning lookup 15-2" uni0643 dx=-136 dy=0 dh=-136 dv=0 dx=0 dy=0 dh=0 dv=0
PairPos2: "'kern' Horizontal Kerning lookup 15-2" uniFED7 dx=-170 dy=0 dh=-170 dv=0 dx=0 dy=0 dh=0 dv=0
PairPos2: "'kern' Horizontal Kerning lookup 15-2" uni0642 dx=-57 dy=0 dh=-57 dv=0 dx=0 dy=0 dh=0 dv=0
PairPos2: "'kern' Horizontal Kerning lookup 15-2" uniFED3 dx=-170 dy=0 dh=-170 dv=0 dx=0 dy=0 dh=0 dv=0
PairPos2: "'kern' Horizontal Kerning lookup 15-2" uni0641 dx=-170 dy=0 dh=-170 dv=0 dx=0 dy=0 dh=0 dv=0
PairPos2: "'kern' Horizontal Kerning lookup 15-2" uniFECF dx=-170 dy=0 dh=-170 dv=0 dx=0 dy=0 dh=0 dv=0
PairPos2: "'kern' Horizontal Kerning lookup 15-2" uniFECB dx=-170 dy=0 dh=-170 dv=0 dx=0 dy=0 dh=0 dv=0
PairPos2: "'kern' Horizontal Kerning lookup 15-2" uniFEC7 dx=-170 dy=0 dh=-170 dv=0 dx=0 dy=0 dh=0 dv=0
PairPos2: "'kern' Horizontal Kerning lookup 15-2" uni0638 dx=-170 dy=0 dh=-170 dv=0 dx=0 dy=0 dh=0 dv=0
PairPos2: "'kern' Horizontal Kerning lookup 15-2" uniFEC3 dx=-170 dy=0 dh=-170 dv=0 dx=0 dy=0 dh=0 dv=0
PairPos2: "'kern' Horizontal Kerning lookup 15-2" uni0637 dx=-170 dy=0 dh=-170 dv=0 dx=0 dy=0 dh=0 dv=0
PairPos2: "'kern' Horizontal Kerning lookup 15-2" uniFEBF dx=-170 dy=0 dh=-170 dv=0 dx=0 dy=0 dh=0 dv=0
PairPos2: "'kern' Horizontal Kerning lookup 15-2" uni0636 dx=-170 dy=0 dh=-170 dv=0 dx=0 dy=0 dh=0 dv=0
PairPos2: "'kern' Horizontal Kerning lookup 15-2" uniFEBB dx=-170 dy=0 dh=-170 dv=0 dx=0 dy=0 dh=0 dv=0
PairPos2: "'kern' Horizontal Kerning lookup 15-2" uni0635 dx=-170 dy=0 dh=-170 dv=0 dx=0 dy=0 dh=0 dv=0
PairPos2: "'kern' Horizontal Kerning lookup 15-2" uniFEB7 dx=-170 dy=0 dh=-170 dv=0 dx=0 dy=0 dh=0 dv=0
PairPos2: "'kern' Horizontal Kerning lookup 15-2" uni0634 dx=-170 dy=0 dh=-170 dv=0 dx=0 dy=0 dh=0 dv=0
PairPos2: "'kern' Horizontal Kerning lookup 15-2" uniFEB3 dx=-170 dy=0 dh=-170 dv=0 dx=0 dy=0 dh=0 dv=0
PairPos2: "'kern' Horizontal Kerning lookup 15-2" uni0633 dx=-170 dy=0 dh=-170 dv=0 dx=0 dy=0 dh=0 dv=0
PairPos2: "'kern' Horizontal Kerning lookup 15-2" uni0630 dx=-170 dy=0 dh=-170 dv=0 dx=0 dy=0 dh=0 dv=0
PairPos2: "'kern' Horizontal Kerning lookup 15-2" uni062F dx=-170 dy=0 dh=-170 dv=0 dx=0 dy=0 dh=0 dv=0
PairPos2: "'kern' Horizontal Kerning lookup 15-2" uniFEA7 dx=-170 dy=0 dh=-170 dv=0 dx=0 dy=0 dh=0 dv=0
PairPos2: "'kern' Horizontal Kerning lookup 15-2" uniFEA3 dx=-170 dy=0 dh=-170 dv=0 dx=0 dy=0 dh=0 dv=0
PairPos2: "'kern' Horizontal Kerning lookup 15-2" uniFE9F dx=-170 dy=0 dh=-170 dv=0 dx=0 dy=0 dh=0 dv=0
PairPos2: "'kern' Horizontal Kerning lookup 15-2" uniFE9B dx=-170 dy=0 dh=-170 dv=0 dx=0 dy=0 dh=0 dv=0
PairPos2: "'kern' Horizontal Kerning lookup 15-2" uni062B dx=-170 dy=0 dh=-170 dv=0 dx=0 dy=0 dh=0 dv=0
PairPos2: "'kern' Horizontal Kerning lookup 15-2" uniFE97 dx=-170 dy=0 dh=-170 dv=0 dx=0 dy=0 dh=0 dv=0
PairPos2: "'kern' Horizontal Kerning lookup 15-2" uni062A dx=-170 dy=0 dh=-170 dv=0 dx=0 dy=0 dh=0 dv=0
PairPos2: "'kern' Horizontal Kerning lookup 15-2" uni0629 dx=-170 dy=0 dh=-170 dv=0 dx=0 dy=0 dh=0 dv=0
PairPos2: "'kern' Horizontal Kerning lookup 15-2" uni0628 dx=-170 dy=0 dh=-170 dv=0 dx=0 dy=0 dh=0 dv=0
PairPos2: "'kern' Horizontal Kerning lookup 15-2" uni0627 dx=-136 dy=0 dh=-136 dv=0 dx=0 dy=0 dh=0 dv=0
PairPos2: "'kern' Horizontal Kerning lookup 15-2" uni0623 dx=-136 dy=0 dh=-136 dv=0 dx=0 dy=0 dh=0 dv=0
PairPos2: "'kern' Horizontal Kerning lookup 15-2" uni0622 dx=-136 dy=0 dh=-136 dv=0 dx=0 dy=0 dh=0 dv=0
PairPos2: "'kern' Horizontal Kerning lookup 15-2" uni0621 dx=-170 dy=0 dh=-170 dv=0 dx=0 dy=0 dh=0 dv=0
PairPos2: "'kern' Horizontal Kerning lookup 15-2" uniFB94 dx=-216 dy=0 dh=-216 dv=0 dx=0 dy=0 dh=0 dv=0
PairPos2: "'kern' Horizontal Kerning lookup 15-2" uniFB92 dx=-216 dy=0 dh=-216 dv=0 dx=0 dy=0 dh=0 dv=0
PairPos2: "'kern' Horizontal Kerning lookup 15-2" uni06AF dx=-216 dy=0 dh=-216 dv=0 dx=0 dy=0 dh=0 dv=0
PairPos2: "'kern' Horizontal Kerning lookup 15-2" afii57506 dx=-170 dy=0 dh=-170 dv=0 dx=0 dy=0 dh=0 dv=0
PairPos2: "'kern' Horizontal Kerning lookup 15-2" afii57440 dx=-170 dy=0 dh=-170 dv=0 dx=0 dy=0 dh=0 dv=0
PairPos2: "'kern' Horizontal Kerning lookup 15-2" uniFE8B dx=-170 dy=0 dh=-170 dv=0 dx=0 dy=0 dh=0 dv=0
EndChar

StartChar: uniFEB2
Encoding: 65202 65202 189
GlifName: uniF_E_B_2
Width: 2594
VWidth: 2819
GlyphClass: 2
Flags: W
AnchorPoint: "Anchor-7" 545.449 -791.749 basechar 0
AnchorPoint: "Anchor-10" 725.371 1147.58 basechar 0
LayerCount: 2
Fore
SplineSet
2586.25976562 0 m 2,0,1
 2385 0 2385 0 2293.09667969 150.603515625 c 1,2,3
 2224 2 2224 2 2063.88365054 1.02174895383 c 0,4,5
 1904 0 1904 0 1815.3515625 156.618164062 c 1,6,7
 1728 -2 1728 -2 1557.46777344 -0 c 0,8,9
 1440 1 1440 1 1361.95800781 79.958984375 c 1,10,-1
 1361.95019531 75.107421875 l 2,11,12
 1362 -88 1362 -88 1295.8203125 -225.33984375 c 0,13,14
 1154 -522 1154 -522 723.46484375 -522.41796875 c 0,15,16
 323 -523 323 -523 186 -275.974661763 c 0,17,18
 115 -149 115 -149 114.701171875 34.615234375 c 4,19,20
 114 245 114 245 221.556640625 504.11328125 c 1,21,-1
 381.928710938 439.638671875 l 1,22,23
 291 211 291 211 291.643554688 52.2548828125 c 0,24,25
 294 -345 294 -345 738.140496882 -341.440680721 c 0,26,27
 1183.12145248 -337.991306799 1183.12145248 -337.991306799 1182.2890625 98.3798828125 c 0,28,29
 1182 280 1182 280 1098.64941406 516.567382812 c 1,30,-1
 1268.96875 576.073242188 l 1,31,-1
 1336.15820312 360.46484375 l 2,32,33
 1390 188 1390 188 1550.65917969 186.147460938 c 0,34,35
 1684.51236962 185.004165054 1684.51236962 185.004165054 1702.60839844 350.665039062 c 2,36,-1
 1727.94140625 582.577148438 l 1,37,-1
 1880.828125 582.577148438 l 1,38,-1
 1906.01757812 349.760742188 l 2,39,40
 1924 185 1924 185 2058.76464844 186.671875 c 0,41,42
 2170.42116679 188.005028636 2170.42116679 188.005028636 2186.69726562 350.682617188 c 2,43,-1
 2212.04492188 604.029296875 l 1,44,-1
 2364.8984375 604.029296875 l 1,45,-1
 2390.10253906 349.782226562 l 2,46,47
 2405.99504066 187.05078125 2405.99504066 187.05078125 2584.57128906 187.05078125 c 2,48,-1
 2601.83007812 187.05078125 l 2,49,50
 2623.84765625 187.000348951 2623.84765625 187.000348951 2623.84765625 105.090820312 c 2,51,-1
 2623.84765625 87.095703125 l 2,52,53
 2624 0 2624 0 2601.83203125 0 c 2,54,-1
 2586.25976562 0 l 2,0,1
EndSplineSet
EndChar

StartChar: uniFEB3
Encoding: 65203 65203 190
GlifName: uniF_E_B_3
Width: 1616
VWidth: 2819
GlyphClass: 2
Flags: W
AnchorPoint: "Anchor-10" 838.368 1348.43 basechar 0
AnchorPoint: "Anchor-7" 753.099 -223.176 basechar 0
LayerCount: 2
Fore
SplineSet
663.642578125 186.147460938 m 4,0,1
 808.141642033 185.999855313 808.141642033 185.999855313 826.12890625 350.665039062 c 6,2,-1
 851.461914062 582.577148438 l 5,3,-1
 1004.34863281 582.577148438 l 5,4,-1
 1029.53808594 349.7578125 l 6,5,6
 1047 185 1047 185 1192.05859375 186.326171875 c 4,7,8
 1330 188 1330 188 1329.61914062 417.998046875 c 4,9,10
 1329 573 1329 573 1288.41015625 703.149414062 c 5,11,-1
 1462.34179688 734.072265625 l 5,12,13
 1485 662 1485 662 1495.60742188 585.549804688 c 4,14,15
 1507 509 1507 509 1506.07421875 425.858398438 c 4,16,17
 1505 0 1505 0 1192.6640625 0 c 4,18,19
 1109 0 1109 0 1045.00976562 38.3291015625 c 4,20,21
 981.168877378 76.8979743187 981.168877378 76.8979743187 937.57421875 153.504882812 c 6,22,-1
 935.82421875 156.580078125 l 5,23,-1
 934.091796875 153.495117188 l 6,24,25
 848 0 848 0 663.173828125 0.5107421875 c 4,26,27
 472.295733842 0.999243149055 472.295733842 0.999243149055 387.751953125 153.483398438 c 6,28,-1
 386.021484375 156.604492188 l 5,29,-1
 384.262695312 153.499023438 l 6,30,31
 297 0 297 0 37.056640625 0 c 6,32,-1
 -6.6181640625 0 l 2,33,34
 -83.7275390625 0 -83.7275390625 0 -83.7275390625 87.099609375 c 2,35,-1
 -83.7275390625 105.092773438 l 2,36,37
 -84.0001689217 187.05078125 -84.0001689217 187.05078125 -6.6181640625 187.05078125 c 2,38,-1
 37.265625 187.05078125 l 6,39,40
 266.336228052 186.999925354 266.336228052 186.999925354 285.870117188 348.935546875 c 6,41,-1
 313.939453125 581.629882812 l 5,42,-1
 465.46484375 581.629882812 l 5,43,-1
 489.7109375 351.653320312 l 6,44,45
 493 319 493 319 502.243164062 292.178710938 c 4,46,47
 511 266 511 266 525.947265625 245.829101562 c 4,48,49
 541 226 541 226 560.767578125 212.672851562 c 4,50,51
 581 199 581 199 606.684570312 192.756835938 c 4,52,53
 632 186 632 186 663.642578125 186.147460938 c 4,0,1
EndSplineSet
EndChar

StartChar: uniFEB4
Encoding: 65204 65204 191
GlifName: uniF_E_B_4
Width: 1718
VWidth: 2812
GlyphClass: 2
Flags: W
AnchorPoint: "Anchor-7" 753.099 -223.176 basechar 0
AnchorPoint: "Anchor-10" 838.368 1348.43 basechar 0
LayerCount: 2
Fore
SplineSet
1310.21777344 350.684570312 m 6,0,-1
 1335.56542969 604.029296875 l 5,1,-1
 1488.41894531 604.029296875 l 5,2,-1
 1513.62304688 349.779296875 l 6,3,4
 1529.99489098 187.05078125 1529.99489098 187.05078125 1708.09179688 187.05078125 c 6,5,-1
 1725.34960938 187.05078125 l 6,6,7
 1736 187 1736 187 1741.5546875 166.721679688 c 4,8,9
 1747.36816406 144.598982561 1747.36816406 144.598982561 1747.36816406 105.090820312 c 6,10,-1
 1747.36816406 87.11328125 l 6,11,12
 1747 70 1747 70 1746.2421875 54.9404296875 c 4,13,14
 1745 41 1745 41 1743.29101562 30.384765625 c 4,15,16
 1741 20 1741 20 1738.68652344 13.3359375 c 4,17,18
 1736 6 1736 6 1732.64941406 3.2451171875 c 4,19,20
 1729 0 1729 0 1725.35253906 0 c 6,21,-1
 1709.78027344 0 l 6,22,23
 1511.10489876 -2.84217094304e-14 1511.10489876 -2.84217094304e-14 1420.59960938 147.434570312 c 6,24,-1
 1418.65429688 150.603515625 l 5,25,-1
 1417.08300781 147.234375 l 6,26,27
 1349 2 1349 2 1186.15136719 1.0078125 c 4,28,29
 1106 1 1106 1 1044.15722656 38.5771484375 c 4,30,31
 982.215674446 76.8666795854 982.215674446 76.8666795854 938.595703125 153.504882812 c 6,32,-1
 936.83984375 156.58984375 l 5,33,-1
 935.110351562 153.490234375 l 6,34,35
 849 -1 849 -1 660.2109375 0 c 4,36,37
 566 1 566 1 498.102539062 38.849609375 c 132,-1,38
 430.22866359 76.8719048454 430.22866359 76.8719048454 387.751953125 153.483398438 c 6,39,-1
 386.021484375 156.604492188 l 5,40,-1
 384.262695312 153.499023438 l 6,41,42
 297 0 297 0 37.056640625 0 c 6,43,-1
 -6.6181640625 0 l 2,44,45
 -83.7275390625 0 -83.7275390625 0 -83.7275390625 87.099609375 c 2,46,-1
 -83.7275390625 105.092773438 l 2,47,48
 -84.0001689217 187.05078125 -84.0001689217 187.05078125 -6.6181640625 187.05078125 c 2,49,-1
 37.265625 187.05078125 l 6,50,51
 266.336228052 186.999925354 266.336228052 186.999925354 285.870117188 348.935546875 c 6,52,-1
 313.939453125 581.629882812 l 5,53,-1
 465.46484375 581.629882812 l 5,54,-1
 489.7109375 351.653320312 l 6,55,56
 507 186 507 186 663.640625 186.147460938 c 4,57,58
 808.141642034 185.999855315 808.141642034 185.999855315 826.12890625 350.665039062 c 6,59,-1
 851.461914062 582.577148438 l 5,60,-1
 1004.34863281 582.577148438 l 5,61,-1
 1029.53808594 349.7578125 l 6,62,63
 1047 185 1047 185 1182.28417969 186.671875 c 4,64,65
 1294 188 1294 188 1310.21777344 350.684570312 c 6,0,-1
EndSplineSet
EndChar

StartChar: uniFEBA
Encoding: 65210 65210 197
GlifName: uniF_E_B_A_
Width: 2650
VWidth: 2819
GlyphClass: 2
Flags: W
AnchorPoint: "Anchor-10" 725.371 1147.58 basechar 0
AnchorPoint: "Anchor-7" 545.449 -791.749 basechar 0
LayerCount: 2
Fore
SplineSet
1642.39746094 0 m 2,0,1
 1459 0 1459 0 1361.94921875 77.7373046875 c 1,2,-1
 1361.94335938 73.591796875 l 2,3,4
 1362 -89 1362 -89 1295.82519531 -225.328125 c 0,5,6
 1154 -522 1154 -522 723.46484375 -522.41796875 c 0,7,8
 329 -523 329 -523 190 -283.343127645 c 0,9,10
 115 -154 115 -154 114.701171875 34.615234375 c 4,11,12
 114 245 114 245 221.556640625 504.11328125 c 1,13,-1
 381.928710938 439.638671875 l 1,14,15
 291 211 291 211 291.643554688 52.2548828125 c 0,16,17
 294 -350 294 -350 753.98046875 -341.26953125 c 0,18,19
 1183.67603853 -332.948176646 1183.67603853 -332.948176646 1182.2890625 98.4013671875 c 0,20,21
 1182 281 1182 281 1098.64746094 516.567382812 c 1,22,-1
 1268.96875 576.073242188 l 1,23,-1
 1336.15722656 360.469726562 l 2,24,25
 1374 238 1374 238 1435.57910156 233.850585938 c 1,26,27
 1794 838 1794 838 2130.08203125 836.900390625 c 0,28,29
 2330 836 2330 836 2436.76464844 684.627929688 c 0,30,31
 2470 637 2470 637 2485.64746094 584 c 0,32,33
 2513 487 2513 487 2486.08398438 373.120117188 c 0,34,35
 2467 295 2467 295 2423.37597656 234.705078125 c 1,36,37
 2455.64779016 194.439453125 2455.64779016 194.439453125 2639.95214844 194.439453125 c 2,38,-1
 2657.75390625 194.439453125 l 2,39,40
 2679.78027344 194.004340516 2679.78027344 194.004340516 2679.78027344 105.090820312 c 2,41,-1
 2679.78027344 87.099609375 l 2,42,43
 2680 0 2680 0 2657.76464844 0 c 2,44,-1
 2634.6953125 0 l 2,45,46
 2408 0 2408 0 2278.37597656 105.953125 c 1,47,48
 2091 0 2091 0 1740.86328125 0 c 2,49,-1
 1642.39746094 0 l 2,0,1
1604.41992188 186.399414062 m 1,50,-1
 1746.20703125 186.399414062 l 2,51,52
 2043 186 2043 186 2180.20703125 264.55859375 c 0,53,54
 2319 343 2319 343 2319.38476562 470.561523438 c 0,55,56
 2320 548 2320 548 2264.2109375 598.12109375 c 0,57,58
 2208 649 2208 649 2128.40429688 648.16796875 c 0,59,60
 1894 645 1894 645 1604.41992188 186.399414062 c 1,50,-1
EndSplineSet
EndChar

StartChar: uniFEBB
Encoding: 65211 65211 198
GlifName: uniF_E_B_B_
Width: 1717
VWidth: 2819
GlyphClass: 2
Flags: W
AnchorPoint: "Anchor-10" 950.91 1349.24 basechar 0
AnchorPoint: "Anchor-7" 705.096 -226.395 basechar 0
LayerCount: 2
Fore
SplineSet
756.313476562 0 m 6,0,1
 463 0 463 0 370.25390625 155.420898438 c 1,2,3
 260 0 260 0 9.5234375 0 c 2,4,-1
 -6.6181640625 0 l 2,5,6
 -83.7275390625 0 -83.7275390625 0 -83.7275390625 87.099609375 c 2,7,-1
 -83.7275390625 105.092773438 l 2,8,9
 -83.9997935524 184.939453125 -83.9997935524 184.939453125 -6.6181640625 184.939453125 c 2,10,-1
 8.689453125 184.939453125 l 2,11,12
 245.711322828 184.999926348 245.711322828 184.999926348 262.288085938 350.682617188 c 2,13,-1
 287.635742188 604.029296875 l 1,14,-1
 440.489257812 604.029296875 l 1,15,-1
 465.693359375 349.77734375 l 2,16,17
 475 256 475 256 549.495117188 233.850585938 c 5,18,19
 908 838 908 838 1243.99804688 836.900390625 c 4,20,21
 1444 836 1444 836 1550.68066406 684.627929688 c 4,22,23
 1584 637 1584 637 1599.56347656 584 c 4,24,25
 1627 487 1627 487 1600 373.120117188 c 4,26,27
 1510 0 1510 0 854.779296875 0 c 6,28,-1
 756.313476562 0 l 6,0,1
718.3359375 186.399414062 m 5,29,-1
 860.123046875 186.399414062 l 6,30,31
 1155.15002749 186.003821441 1155.15002749 186.003821441 1294.12304688 264.55859375 c 132,-1,32
 1433 343 1433 343 1433.30078125 470.561523438 c 4,33,34
 1434 548 1434 548 1378.12695312 598.12109375 c 4,35,36
 1322 649 1322 649 1242.3203125 648.16796875 c 4,37,38
 1008 645 1008 645 718.3359375 186.399414062 c 5,29,-1
EndSplineSet
EndChar

StartChar: uniFEBC
Encoding: 65212 65212 199
GlifName: uniF_E_B_C_
Width: 1764
VWidth: 2819
GlyphClass: 2
Flags: W
AnchorPoint: "Anchor-7" 705.096 -226.395 basechar 0
AnchorPoint: "Anchor-10" 950.91 1349.24 basechar 0
LayerCount: 2
Fore
SplineSet
1392.29199219 105.953125 m 5,0,1
 1205.2433133 1.42108547152e-14 1205.2433133 1.42108547152e-14 854.779296875 0 c 6,2,-1
 756.313476562 0 l 6,3,4
 465 0 465 0 370.2421875 153.305664062 c 1,5,6
 259 0 259 0 9.5234375 0 c 2,7,-1
 -6.6181640625 0 l 2,8,9
 -83.7275390625 0 -83.7275390625 0 -83.7275390625 87.099609375 c 2,10,-1
 -83.7275390625 105.092773438 l 2,11,12
 -83.9997935524 184.939453125 -83.9997935524 184.939453125 -6.6181640625 184.939453125 c 2,13,-1
 8.689453125 184.939453125 l 2,14,15
 245.711322828 184.999926348 245.711322828 184.999926348 262.288085938 350.682617188 c 2,16,-1
 287.635742188 604.029296875 l 1,17,-1
 440.489257812 604.029296875 l 1,18,-1
 465.693359375 349.7734375 l 2,19,20
 475 256 475 256 549.495117188 233.850585938 c 5,21,22
 908 838 908 838 1243.99804688 836.900390625 c 4,23,24
 1444 836 1444 836 1550.68066406 684.627929688 c 4,25,26
 1584 637 1584 637 1599.56347656 584 c 4,27,28
 1627 487 1627 487 1600 373.120117188 c 4,29,30
 1581.25696418 295.415631385 1581.25696418 295.415631385 1537.29199219 234.705078125 c 5,31,32
 1569.93554688 194.439453125 1569.93554688 194.439453125 1753.86816406 194.439453125 c 6,33,-1
 1771.66992188 194.439453125 l 6,34,35
 1793.69628906 193.9921875 1793.69628906 193.9921875 1793.69628906 105.090820312 c 6,36,-1
 1793.69628906 87.099609375 l 6,37,38
 1793.29199219 0 1793.29199219 0 1771.68066406 0 c 6,39,-1
 1748.61132812 0 l 6,40,41
 1522.29199219 0 1522.29199219 0 1392.29199219 105.953125 c 5,0,1
718.3359375 186.399414062 m 5,42,-1
 860.123046875 186.399414062 l 6,43,44
 1156 186 1156 186 1294.12304688 264.55859375 c 4,45,46
 1433 343 1433 343 1433.30078125 470.561523438 c 4,47,48
 1434 548 1434 548 1378.12695312 598.12109375 c 4,49,50
 1322 649 1322 649 1242.3203125 648.16796875 c 4,51,52
 1008 645 1008 645 718.3359375 186.399414062 c 5,42,-1
EndSplineSet
EndChar

StartChar: uniFEC2
Encoding: 65218 65218 205
GlifName: uniF_E_C_2
Width: 1561
VWidth: 2819
GlyphClass: 2
Flags: W
AnchorPoint: "Anchor-7" 660.147 -228.756 basechar 0
AnchorPoint: "Anchor-10" 472.962 1630.02 basechar 0
LayerCount: 2
Fore
SplineSet
510.9609375 186.509765625 m 1,0,-1
 652.736328125 186.509765625 l 2,1,2
 949.79309305 187.004653209 949.79309305 187.004653209 1089.6171875 267.999023438 c 0,3,4
 1226 347 1226 347 1225.91601562 470.577148438 c 0,5,6
 1226 550 1226 550 1171.1171875 599.499023438 c 0,7,8
 1117 649 1117 649 1034.9375 648.166992188 c 0,9,10
 799 646 799 646 510.9609375 186.509765625 c 1,0,-1
647.395507812 -0.0009765625 m 2,11,-1
 113.3046875 0 l 1,12,-1
 113.3046875 186.2109375 l 1,13,-1
 326.51171875 186.360351562 l 1,14,15
 357 239 357 239 388.334960938 291.584960938 c 1,16,-1
 388.334960938 1464.50390625 l 5,17,-1
 565.094726562 1464.50390625 l 5,18,-1
 565.094726562 553.465820312 l 0,19,20
 792 837 792 837 1036.64257812 836.899414062 c 0,21,22
 1242 837 1242 837 1347.29882812 683.622070312 c 0,23,24
 1405 600 1405 600 1405.17773438 489.70703125 c 0,25,26
 1406 339 1406 339 1333.6171875 234.704101562 c 1,27,28
 1365.65116281 194.438476562 1365.65116281 194.438476562 1550.19335938 194.438476562 c 2,29,-1
 1567.99511719 194.438476562 l 2,30,31
 1590.02148438 193.999571895 1590.02148438 193.999571895 1590.02148438 105.08984375 c 2,32,-1
 1590.02148438 87.0986328125 l 2,33,34
 1589.99999976 -0.0009765625 1589.99999976 -0.0009765625 1568.00585938 -0.0009765625 c 2,35,-1
 1544.93652344 -0.0009765625 l 2,36,37
 1319 -0 1319 -0 1188.6171875 105.952148438 c 1,38,39
 1000 -0 1000 -0 647.395507812 -0.0009765625 c 2,11,-1
EndSplineSet
EndChar

StartChar: uniFEC3
Encoding: 65219 65219 206
GlifName: uniF_E_C_3
Width: 1375
VWidth: 2819
GlyphClass: 2
Flags: W
AnchorPoint: "Anchor-7" 517.138 -228.756 basechar 0
AnchorPoint: "Anchor-10" 329.951 1630.02 basechar 0
LayerCount: 2
Fore
SplineSet
511.778320312 0 m 2,0,-1
 -6.6181640625 0 l 2,1,2
 -83.7275390625 0 -83.7275390625 0 -83.7275390625 87.099609375 c 2,3,-1
 -83.7275390625 105.092773438 l 2,4,5
 -83.9995004918 185.851671133 -83.9995004918 185.851671133 -6.62890625 185.995117188 c 2,6,-1
 190.89453125 186.361328125 l 1,7,8
 222 239 222 239 252.717773438 291.5859375 c 1,9,-1
 252.717773438 1464.50488281 l 5,10,-1
 429.477539062 1464.50488281 l 5,11,-1
 429.477539062 553.466796875 l 0,12,13
 656 837 656 837 901.025390625 836.900390625 c 0,14,15
 1106 837 1106 837 1211.68164062 683.623046875 c 0,16,17
 1269 600 1269 600 1269.56054688 489.708007812 c 0,18,19
 1270 0 1270 0 511.778320312 0 c 2,0,-1
375.34375 186.510742188 m 1,20,-1
 517.119140625 186.510742188 l 2,21,22
 814 187 814 187 954 267.5 c 0,23,24
 1090 347 1090 347 1090.29882812 470.578125 c 0,25,26
 1090 550 1090 550 1035.5 599.5 c 128,-1,27
 981 649 981 649 899.3203125 648.16796875 c 0,28,29
 664 646 664 646 375.34375 186.510742188 c 1,20,-1
EndSplineSet
EndChar

StartChar: uniFEC4
Encoding: 65220 65220 207
GlifName: uniF_E_C_4
Width: 1426
VWidth: 2819
GlyphClass: 2
Flags: W
AnchorPoint: "Anchor-10" 329.951 1630.02 basechar 0
AnchorPoint: "Anchor-7" 517.138 -228.756 basechar 0
LayerCount: 2
Fore
SplineSet
375.34375 186.510742188 m 1,0,-1
 517.119140625 186.510742188 l 2,1,2
 814.567185629 187.005938711 814.567185629 187.005938711 954 268 c 0,3,4
 1090 347 1090 347 1090.29882812 470.578125 c 0,5,6
 1090 550 1090 550 1035.5 599.5 c 128,-1,7
 981 649 981 649 899.3203125 648.16796875 c 0,8,9
 664 646 664 646 375.34375 186.510742188 c 1,0,-1
1053 105.953125 m 1,10,11
 864 0 864 0 511.778320312 0 c 2,12,-1
 -6.6181640625 0 l 2,13,14
 -83.7275390625 0 -83.7275390625 0 -83.7275390625 87.099609375 c 2,15,-1
 -83.7275390625 105.092773438 l 2,16,17
 -83.9995004918 185.851671133 -83.9995004918 185.851671133 -6.62890625 185.995117188 c 2,18,-1
 190.89453125 186.361328125 l 1,19,20
 222 239 222 239 252.717773438 291.5859375 c 1,21,-1
 252.717773438 1464.50488281 l 5,22,-1
 429.477539062 1464.50488281 l 5,23,-1
 429.477539062 553.466796875 l 0,24,25
 656 837 656 837 901.025390625 836.900390625 c 0,26,27
 1106 837 1106 837 1211.68164062 683.623046875 c 0,28,29
 1269 600 1269 600 1269.56054688 489.708007812 c 0,30,31
 1270 339 1270 339 1198 234.705078125 c 1,32,33
 1230.64373111 194.439453125 1230.64373111 194.439453125 1414.57617188 194.439453125 c 2,34,-1
 1432.37792969 194.439453125 l 2,35,36
 1454.40429688 193.991782955 1454.40429688 193.991782955 1454.40429688 105.090820312 c 2,37,-1
 1454.40429688 87.099609375 l 2,38,39
 1454 0 1454 0 1432.38867188 0 c 2,40,-1
 1409.31933594 0 l 2,41,42
 1183 0 1183 0 1053 105.953125 c 1,10,11
EndSplineSet
EndChar

StartChar: uniFECA
Encoding: 65226 65226 213
GlifName: uniF_E_C_A_
Width: 1212
VWidth: 2819
GlyphClass: 2
Flags: W
AnchorPoint: "Anchor-10" 592.645 1350.88 basechar 0
AnchorPoint: "Anchor-7" 514.214 -919.151 basechar 0
LayerCount: 2
Fore
SplineSet
284.39453125 -201.491210938 m 0,0,1
 283 -505 283 -505 769.586914062 -507.236328125 c 0,2,3
 945 -508 945 -508 1100.42285156 -455.3984375 c 1,4,-1
 1135.97851562 -631.73828125 l 1,5,6
 972 -686 972 -686 765.087890625 -687.95703125 c 0,7,8
 759 -688 759 -688 753.28125 -687.9453125 c 0,9,10
 110 -685 110 -685 111.49609375 -201.1015625 c 0,11,12
 111.999770295 101.861831667 111.999770295 101.861831667 431.399414062 304.830078125 c 2,13,-1
 434.174804688 306.59375 l 1,14,-1
 431.333007812 308.247070312 l 2,15,16
 153 470 153 470 152.342773438 623.771484375 c 0,17,18
 152 736 152 736 327.893554688 813.752929688 c 0,19,20
 436 861 436 861 601.987304688 859.442382812 c 4,21,22
 785 858 785 858 886.579101562 815.563476562 c 0,23,24
 1047 747 1047 747 1050.87402344 630.953125 c 0,25,26
 1054.9901468 491.334220666 1054.9901468 491.334220666 744.28125 297.610351562 c 2,27,-1
 741.37109375 295.795898438 l 1,28,-1
 744.3828125 294.15625 l 2,29,30
 927.194347364 194.439453125 927.194347364 194.439453125 1151.24121094 194.439453125 c 2,31,-1
 1217.86132812 194.439453125 l 2,32,33
 1239.88867188 194.002209866 1239.88867188 194.002209866 1239.88867188 105.090820312 c 2,34,-1
 1239.88867188 87.099609375 l 2,35,36
 1240 0 1240 0 1217.87207031 0 c 2,37,-1
 1150.95214844 0 l 2,38,39
 859.605899492 -2.84217094304e-14 859.605899492 -2.84217094304e-14 599.235351562 194.91015625 c 2,40,-1
 598.198242188 195.686523438 l 1,41,-1
 597.065429688 195.056640625 l 2,42,43
 285 22 285 22 284.39453125 -201.491210938 c 0,0,1
600.138671875 412.479492188 m 2,44,45
 690.749023438 461.318359375 690.749023438 461.318359375 750.388671875 499.411132812 c 128,-1,46
 810.02734375 537.504882812 810.02734375 537.504882812 840.40234375 566.375976562 c 128,-1,47
 870.776367188 595.247070312 870.776367188 595.247070312 870.495117188 614.362304688 c 0,48,49
 870.268554688 680.319335938 870.268554688 680.319335938 599.216796875 680.34375 c 0,50,51
 339.200195312 680.319335938 339.200195312 680.319335938 338.439453125 603.139648438 c 0,52,53
 338.15234375 553.53125 338.15234375 553.53125 598.236328125 412.482421875 c 2,54,-1
 599.186523438 411.966796875 l 1,55,-1
 600.138671875 412.479492188 l 2,44,45
EndSplineSet
EndChar

StartChar: uniFECB
Encoding: 65227 65227 214
GlifName: uniF_E_C_B_
Width: 1089
VWidth: 2819
GlyphClass: 2
Flags: W
AnchorPoint: "Anchor-10" 505.489 1368.83 basechar 0
AnchorPoint: "Anchor-7" 495.967 -243.429 basechar 0
LayerCount: 2
Fore
SplineSet
-6.6181640625 -0 m 2,0,1
 -83.7275390625 0.013671875 -83.7275390625 0.013671875 -83.7275390625 87.099609375 c 2,2,-1
 -83.7275390625 105.092773438 l 2,3,4
 -83.8046875 194.438476562 -83.8046875 194.438476562 -6.625 194.439453125 c 2,5,-1
 274.024414062 194.442382812 l 1,6,-1
 269.529296875 198.008789062 l 2,7,8
 218.51171875 238.493164062 218.51171875 238.493164062 192.696289062 300.200195312 c 128,-1,9
 166.880859375 361.907226562 166.880859375 361.907226562 166.28515625 445.063476562 c 0,10,11
 164.427734375 586.770507812 164.427734375 586.770507812 246.358398438 700.2890625 c 0,12,13
 366.719726562 868.353515625 366.719726562 868.353515625 604.302734375 866.658203125 c 0,14,15
 803.028320312 865.309570312 803.028320312 865.309570312 930.37109375 731.889648438 c 1,16,-1
 864.096679688 582.775390625 l 1,17,18
 737.129882812 675.240234375 737.129882812 675.240234375 628.3359375 681.913085938 c 0,19,20
 620.586914062 682.41796875 620.586914062 682.41796875 613.0234375 682.641601562 c 128,-1,21
 605.459960938 682.864257812 605.459960938 682.864257812 598.081054688 682.8046875 c 128,-1,22
 590.702148438 682.744140625 590.702148438 682.744140625 583.510742188 682.401367188 c 128,-1,23
 576.319335938 682.05859375 576.319335938 682.05859375 569.313476562 681.432617188 c 128,-1,24
 562.307617188 680.805664062 562.307617188 680.805664062 555.490234375 679.896484375 c 128,-1,25
 548.673828125 678.987304688 548.673828125 678.987304688 542.04296875 677.794921875 c 128,-1,26
 535.412109375 676.6015625 535.412109375 676.6015625 528.971679688 675.125976562 c 128,-1,27
 522.53125 673.649414062 522.53125 673.649414062 516.278320312 671.889648438 c 128,-1,28
 510.024414062 670.12890625 510.024414062 670.12890625 503.962890625 668.0859375 c 0,29,30
 476.204101562 659.278320312 476.204101562 659.278320312 452.126953125 644.85546875 c 128,-1,31
 428.048828125 630.431640625 428.048828125 630.431640625 407.7109375 610.41796875 c 0,32,33
 342.268554688 545.358398438 342.268554688 545.358398438 339.654296875 452.891601562 c 0,34,35
 335.051757812 321.637695312 335.051757812 321.637695312 507.100585938 233.3671875 c 0,36,37
 536.045898438 218.563476562 536.045898438 218.563476562 560.465820312 224.4921875 c 2,38,-1
 979.581054688 326.245117188 l 1,39,-1
 979.581054688 132.229492188 l 1,40,41
 556.110351562 -0.099609375 556.110351562 -0.099609375 111.495117188 -0.0205078125 c 2,42,-1
 -6.6181640625 -0 l 2,0,1
EndSplineSet
EndChar

StartChar: uniFECC
Encoding: 65228 65228 215
GlifName: uniF_E_C_C_
Width: 1146
VWidth: 2819
GlyphClass: 2
Flags: W
AnchorPoint: "Anchor-10" 565.737 1347.69 basechar 0
AnchorPoint: "Anchor-7" 559.461 -232.192 basechar 0
LayerCount: 2
Fore
SplineSet
730.705078125 265.071289062 m 2,0,1
 863.621327293 185.995117188 863.621327293 185.995117188 1130.12597656 185.995117188 c 2,2,-1
 1152.61328125 185.995117188 l 2,3,4
 1174.62890625 185.99991906 1174.62890625 185.99991906 1174.62890625 105.090820312 c 2,5,-1
 1174.62890625 87.1025390625 l 2,6,7
 1175 0 1175 0 1152.61328125 0 c 2,8,-1
 1130.49414062 0 l 2,9,10
 789.086802985 0 789.086802985 0 589.962890625 153.799804688 c 2,11,-1
 588.67578125 154.793945312 l 1,12,-1
 587.440429688 153.736328125 l 2,13,14
 408 0 408 0 16.26171875 0 c 2,15,-1
 -6.6181640625 0 l 2,16,17
 -83.7275390625 0 -83.7275390625 0 -83.7275390625 87.099609375 c 2,18,-1
 -83.7275390625 105.092773438 l 2,19,20
 -83.9999835568 185.995117188 -83.9999835568 185.995117188 -6.6181640625 185.995117188 c 2,21,-1
 19.4697265625 185.995117188 l 2,22,23
 316.226664339 186.000003732 316.226664339 186.000003732 435.640625 265.237304688 c 2,24,-1
 438.357421875 267.040039062 l 1,25,-1
 435.51953125 268.64453125 l 2,26,27
 139 436 139 436 138.497070312 594.518554688 c 0,28,29
 138 706 138 706 314.046875 784.486328125 c 0,30,31
 423 833 423 833 595.84765625 832.326171875 c 0,32,33
 764 832 764 832 872.739257812 786.294921875 c 0,34,35
 955 752 955 752 995.481445312 705.84765625 c 0,36,37
 1036 660 1036 660 1037.02636719 601.727539062 c 0,38,39
 1039.00216821 461.84649713 1039.00216821 461.84649713 730.665039062 268.484375 c 2,40,-1
 727.891601562 266.745117188 l 1,41,-1
 730.705078125 265.071289062 l 2,0,1
586.29296875 383.212890625 m 2,42,43
 716.907226562 453.756835938 716.907226562 453.756835938 781.678710938 503.818359375 c 128,-1,44
 846.450195312 553.879882812 846.450195312 553.879882812 846.092773438 585.086914062 c 0,45,46
 845.916992188 618.595703125 845.916992188 618.595703125 780.651367188 634.740234375 c 128,-1,47
 715.385742188 650.884765625 715.385742188 650.884765625 585.374023438 651.077148438 c 0,48,49
 325.935546875 651.721679688 325.935546875 651.721679688 324.592773438 573.891601562 c 0,50,51
 323.840820312 523.91015625 323.840820312 523.91015625 584.392578125 383.212890625 c 2,52,-1
 585.342773438 382.69921875 l 1,53,-1
 586.29296875 383.212890625 l 2,42,43
EndSplineSet
EndChar

StartChar: uniFEDA
Encoding: 65242 65242 229
GlifName: uniF_E_D_A_
Width: 2033
VWidth: 2819
GlyphClass: 2
Flags: W
AnchorPoint: "Anchor-10" 853.097 1615.06 basechar 0
AnchorPoint: "Anchor-7" 611.403 -282.233 basechar 0
LayerCount: 2
Fore
SplineSet
737.48046875 799.680664062 m 1,0,1
 1096.01621375 759.327392852 1096.01621375 759.327392852 1096.68945312 872.447265625 c 0,2,3
 1097.05651168 951.763149022 1097.05651168 951.763149022 983.083984375 968.62109375 c 0,4,5
 776.334960938 999.764648438 776.334960938 999.764648438 780.186523438 1174.73632812 c 0,6,7
 785.432942859 1375.78787088 785.432942859 1375.78787088 1160.46679688 1401.94628906 c 1,8,-1
 1160.46679688 1273.63671875 l 1,9,10
 912.229492188 1250.8125 912.229492188 1250.8125 912.969726562 1166.99902344 c 0,11,12
 913.271484375 1098.48144531 913.271484375 1098.48144531 1042.92285156 1078.54101562 c 0,13,14
 1228.91113462 1049.44562837 1228.91113462 1049.44562837 1228.90918059 905.327306373 c 128,-1,15
 1228.90722656 761.208984375 1228.90722656 761.208984375 1113.97021484 696.904785156 c 128,-1,16
 999.033203125 632.600585938 999.033203125 632.600585938 737.48046875 672.260742188 c 1,17,-1
 737.48046875 799.680664062 l 1,0,1
2010.69140625 0 m 2,18,19
 1744 0 1744 0 1673.54980469 219.022460938 c 1,20,21
 1629 122 1629 122 1424.54589844 55.58203125 c 0,22,23
 1256 1 1256 1 916.610351562 0.392578125 c 0,24,25
 112 0 112 0 111.26171875 525.94921875 c 0,26,27
 111 660 111 660 150.552734375 774.01953125 c 1,28,-1
 305.013671875 733.45703125 l 1,29,30
 281 612 281 612 281.819335938 527.715820312 c 0,31,32
 286 187 286 187 920.594726562 186.165039062 c 0,33,34
 1034 186 1034 186 1153.64648438 196.301757812 c 0,35,36
 1612 236 1612 236 1606.125 548.403320312 c 1,37,-1
 1606.125 1470.14941406 l 5,38,-1
 1786.2890625 1470.14941406 l 5,39,-1
 1786.2890625 530.263671875 l 2,40,41
 1786.00022467 186.267578125 1786.00022467 186.267578125 2018.04980469 186.267578125 c 2,42,-1
 2040.16113281 186.267578125 l 2,43,44
 2062.18847656 185.997690713 2062.18847656 185.997690713 2062.18847656 109.587890625 c 2,45,-1
 2062.18847656 87.099609375 l 2,46,47
 2062 0 2062 0 2040.171875 0 c 2,48,-1
 2010.69140625 0 l 2,18,19
EndSplineSet
EndChar

StartChar: uniFEDB
Encoding: 65243 65243 230
GlifName: uniF_E_D_B_
Width: 964
VWidth: 2819
GlyphClass: 2
Flags: W
AnchorPoint: "Anchor-7" 361.502 -239.532 basechar 0
AnchorPoint: "Anchor-10" 335.311 1603.97 basechar 0
LayerCount: 2
Fore
SplineSet
244.454101562 1041.87597656 m 6,0,1
 343.863426025 939.367338587 343.863426025 939.367338587 433.525390625 841.923828125 c 4,2,3
 521 746 521 746 596.141601562 659.31640625 c 4,4,5
 728 504 728 504 727.463867188 362.822265625 c 4,6,7
 725 0 725 0 167.5078125 0 c 6,8,-1
 -6.6181640625 0 l 2,9,10
 -83.7275390625 0 -83.7275390625 0 -83.7275390625 87.099609375 c 2,11,-1
 -83.7275390625 105.092773438 l 2,12,13
 -83.9999835568 185.995117188 -83.9999835568 185.995117188 -6.6181640625 185.995117188 c 2,14,-1
 166.716796875 185.995117188 l 6,15,16
 357 186 357 186 452.828125 229.513671875 c 4,17,18
 549 273 549 273 549.15625 360.661132812 c 4,19,20
 549 435 549 435 451.206054688 549.881835938 c 4,21,22
 289 741 289 741 174.9296875 851.936523438 c 4,23,24
 81 944 81 944 81.4638671875 1038.56738281 c 4,25,26
 81.0006154795 1167.82826308 81.0006154795 1167.82826308 216.436523438 1221.37304688 c 6,27,-1
 900.791015625 1491.93359375 l 5,28,-1
 900.791015625 1300.01953125 l 5,29,-1
 242.35546875 1044.04003906 l 5,30,-1
 244.454101562 1041.87597656 l 6,0,1
EndSplineSet
EndChar

StartChar: uniFEDC
Encoding: 65244 65244 231
GlifName: uniF_E_D_C_
Width: 1026
VWidth: 2819
GlyphClass: 2
Flags: W
AnchorPoint: "Anchor-10" 335.311 1603.97 basechar 0
AnchorPoint: "Anchor-7" 361.502 -239.532 basechar 0
LayerCount: 2
Fore
SplineSet
792.526367188 343.260742188 m 6,0,1
 915.757165395 185.995117188 915.757165395 185.995117188 1007.70996094 185.995117188 c 6,2,-1
 1032.82617188 185.995117188 l 6,3,4
 1054.83984375 185.999964733 1054.83984375 185.999964733 1054.83984375 105.090820312 c 6,5,-1
 1054.83984375 87.1005859375 l 6,6,7
 1055 41 1055 41 1049.109375 21.6259765625 c 4,8,9
 1043 0 1043 0 1032.82617188 0 c 6,10,-1
 1017.14648438 0 l 6,11,12
 827.155238923 -8.52651282912e-14 827.155238923 -8.52651282912e-14 668.426757812 212.689453125 c 6,13,-1
 666.1171875 215.784179688 l 5,14,-1
 664.921875 212.112304688 l 6,15,16
 596 0 596 0 167.5078125 0 c 6,17,-1
 -6.6181640625 0 l 2,18,19
 -83.7275390625 0 -83.7275390625 0 -83.7275390625 87.099609375 c 2,20,-1
 -83.7275390625 105.092773438 l 2,21,22
 -83.9999835568 185.995117188 -83.9999835568 185.995117188 -6.6181640625 185.995117188 c 2,23,-1
 166.716796875 185.995117188 l 6,24,25
 237 186 237 186 292.71875 191.162109375 c 4,26,27
 348 196 348 196 389.052734375 206.747070312 c 4,28,29
 430 217 430 217 455.876953125 232.865234375 c 4,30,31
 519 271 519 271 520.98828125 332.978515625 c 4,32,33
 523 382 523 382 497.393554688 420.98046875 c 4,34,35
 453.064049648 486.904749061 453.064049648 486.904749061 422.217773438 526.326171875 c 6,36,-1
 157.646484375 864.447265625 l 6,37,38
 86 956 86 956 83.50390625 1034.8828125 c 4,39,40
 79.0033573605 1168.90002462 79.0033573605 1168.90002462 217.94140625 1223.41601562 c 6,41,-1
 902.30078125 1491.94238281 l 5,42,-1
 902.30078125 1300.0234375 l 5,43,-1
 242.727539062 1044.90722656 l 5,44,-1
 792.526367188 343.260742188 l 6,0,1
EndSplineSet
EndChar

StartChar: uniFEDE
Encoding: 65246 65246 233
GlifName: uniF_E_D_E_
Width: 1516
VWidth: 2819
GlyphClass: 2
Flags: W
AnchorPoint: "Anchor-10" 587.424 1245.84 basechar 0
AnchorPoint: "Anchor-7" 555.664 -791.749 basechar 0
LayerCount: 2
Fore
SplineSet
703.46484375 -522.41796875 m 8,0,1
 331 -524 331 -524 190 -278.12109375 c 0,2,3
 115 -147 115 -147 114.701171875 34.8310546875 c 0,4,5
 114 242 114 242 205.709960938 462.44140625 c 1,6,-1
 366 398 l 1,7,8
 291 209 291 209 291.643554688 52.2548828125 c 0,9,10
 294 -346 294 -346 719.06640625 -341.606445312 c 0,11,12
 1101.2031113 -337.998082102 1101.2031113 -337.998082102 1102.21484375 98.06640625 c 2,13,-1
 1105.38085938 1462.64355469 l 5,14,-1
 1280.85546875 1462.64355469 l 5,15,-1
 1280.29589844 507.622070312 l 2,16,17
 1280 352 1280 352 1338.26356435 269.461839619 c 0,18,19
 1396.81169136 186.267578125 1396.81169136 186.267578125 1504.34277344 186.267578125 c 2,20,-1
 1523.52636719 186.267578125 l 2,21,22
 1545.55273438 186.005325285 1545.55273438 186.005325285 1545.55273438 109.587890625 c 2,23,-1
 1545.55273438 87.10546875 l 2,24,25
 1546 0 1546 0 1523.53710938 0 c 2,26,-1
 1500.19140625 0 l 2,27,28
 1363 0 1363 0 1274.88476562 88.12109375 c 1,29,30
 1273 43 1273 43 1263.7109375 -34.7568359375 c 0,31,32
 1209 -520 1209 -520 703.46484375 -522.41796875 c 8,0,1
EndSplineSet
EndChar

StartChar: uniFEDF
Encoding: 65247 65247 234
GlifName: uniF_E_D_F_
Width: 596
VWidth: 2819
GlyphClass: 2
Flags: W
AnchorPoint: "Anchor-10" 339.334 1631.98 basechar 0
AnchorPoint: "Anchor-7" 276.438 -232.01 basechar 0
LayerCount: 2
Fore
SplineSet
-6.6181640625 0 m 2,0,1
 -83.7275390625 0 -83.7275390625 0 -83.7275390625 87.099609375 c 2,2,-1
 -83.7275390625 105.092773438 l 2,3,4
 -83.9999835568 185.995117188 -83.9999835568 185.995117188 -6.6181640625 185.995117188 c 2,5,-1
 19.5693359375 185.995117188 l 2,6,7
 265.500976562 186.0073623 265.500976562 186.0073623 265.500976562 421.28125 c 2,8,-1
 265.500976562 1463.83496094 l 5,9,-1
 442.263671875 1463.83496094 l 5,10,-1
 442.263671875 415.845703125 l 2,11,12
 442 0 442 0 14.611328125 0 c 2,13,-1
 -6.6181640625 0 l 2,0,1
EndSplineSet
EndChar

StartChar: uniFEE0
Encoding: 65248 65248 235
GlifName: uniF_E_E_0
Width: 692
VWidth: 2819
GlyphClass: 2
Flags: W
AnchorPoint: "Anchor-7" 276.438 -232.01 basechar 0
AnchorPoint: "Anchor-10" 339.334 1631.98 basechar 0
LayerCount: 2
Fore
SplineSet
352.571289062 150.737304688 m 2,0,1
 249.19611843 0 249.19611843 0 20.626953125 0 c 2,2,-1
 -6.6181640625 0 l 2,3,4
 -83.7275390625 0 -83.7275390625 0 -83.7275390625 87.099609375 c 2,5,-1
 -83.7275390625 105.092773438 l 2,6,7
 -83.9999835568 185.995117188 -83.9999835568 185.995117188 -6.6181640625 185.995117188 c 2,8,-1
 23.02734375 185.995117188 l 2,9,10
 269.864257812 185.999418127 269.864257812 185.999418127 269.864257812 417.959960938 c 2,11,-1
 269.864257812 1463.74414062 l 5,12,-1
 450.000976562 1463.74414062 l 5,13,-1
 450.000976562 417.973632812 l 2,14,15
 449.999999979 185.995117188 449.999999979 185.995117188 679.525390625 185.995117188 c 2,16,-1
 689.166992188 185.995117188 l 2,17,18
 721.73828125 185.999961078 721.73828125 185.999961078 721.73828125 105.090820312 c 2,19,-1
 721.73828125 87.09375 l 2,20,21
 722 40 722 40 713.642578125 21.5029296875 c 0,22,23
 705 0 705 0 689.166992188 0 c 2,24,-1
 681.928710938 0 l 2,25,26
 462.803469539 -8.52651282912e-14 462.803469539 -8.52651282912e-14 355.852539062 150.763671875 c 2,27,-1
 354.193359375 153.102539062 l 1,28,-1
 352.571289062 150.737304688 l 2,0,1
EndSplineSet
EndChar

StartChar: uniFEE2
Encoding: 65250 65250 237
GlifName: uniF_E_E_2
Width: 1333
VWidth: 2504
GlyphClass: 2
Flags: W
AnchorPoint: "Anchor-10" 739.114 1346.01 basechar 0
LayerCount: 2
Fore
SplineSet
577.426757812 301.91015625 m 1,0,1
 740 160 740 160 863.991210938 159.873046875 c 0,2,3
 979 159 979 159 977.051757812 293 c 4,4,5
 976 393 976 393 929.00390625 462.651367188 c 0,6,7
 878 538 878 538 802.888671875 538.439453125 c 0,8,9
 663 540 663 540 577.426757812 301.91015625 c 1,0,1
1129.28808594 414 m 0,10,11
 1177.98910286 187.05078125 1177.98910286 187.05078125 1325.24804688 187.05078125 c 2,12,-1
 1339.92578125 187.05078125 l 2,13,14
 1361.9453125 187.000125807 1361.9453125 187.000125807 1361.9453125 105.090820312 c 2,15,-1
 1361.9453125 87.1044921875 l 2,16,17
 1362 0 1362 0 1339.9296875 0 c 2,18,-1
 1324.9609375 0 l 2,19,20
 1173 0 1173 0 1105.75488281 104 c 1,21,22
 1031 -18 1031 -18 877 -21.9794921875 c 24,23,24
 797 -24 797 -24 697.576171875 14.5927734375 c 0,25,26
 650 33 650 33 597 62 c 128,-1,27
 544 91 544 91 504.818359375 113.135742188 c 0,28,29
 466 135 466 135 425.328125 134.251953125 c 0,30,31
 293.116210938 132.001977672 293.116210938 132.001977672 293.116210938 -198.954101562 c 2,32,-1
 293.116210938 -691.365234375 l 1,33,-1
 112.283203125 -691.365234375 l 1,34,-1
 112.283203125 -193.236328125 l 2,35,36
 112 283 112 283 392.021484375 326.606445312 c 1,37,38
 452 479 452 479 550.356445312 601.99609375 c 0,39,40
 649 725 649 725 801.120117188 724.799804688 c 0,41,42
 1065.04296292 725.140947227 1065.04296292 725.140947227 1129.28808594 414 c 0,10,11
EndSplineSet
EndChar

StartChar: uniFEE3
Encoding: 65251 65251 238
GlifName: uniF_E_E_3
Width: 1079
VWidth: 2819
GlyphClass: 2
Flags: W
AnchorPoint: "Anchor-10" 581.804 1347.98 basechar 0
AnchorPoint: "Anchor-7" 519.462 -230.893 basechar 0
LayerCount: 2
Fore
SplineSet
403.435546875 301.095703125 m 5,0,1
 566.008789062 159.185546875 566.008789062 159.185546875 690 159.05859375 c 4,2,3
 805.008789062 158.185546875 805.008789062 158.185546875 803.060546875 302.185546875 c 4,4,5
 802.008789062 392.185546875 802.008789062 392.185546875 755.012695312 461.836914062 c 4,6,7
 704.008789062 537.185546875 704.008789062 537.185546875 628.897460938 537.625 c 4,8,9
 489.008789062 539.185546875 489.008789062 539.185546875 403.435546875 301.095703125 c 5,0,1
317.98828125 134.802734375 m 1,10,11
 202 0 202 0 12.1337890625 0 c 2,12,-1
 -7.7421875 0 l 2,13,14
 -83.7275390625 0 -83.7275390625 0 -83.7275390625 87.099609375 c 2,15,-1
 -83.7275390625 105.09765625 l 2,16,17
 -83.9999835558 185.995117188 -83.9999835558 185.995117188 -7.7421875 185.995117188 c 2,18,-1
 7.94140625 185.995117188 l 2,19,20
 100 186 100 186 163 250 c 0,21,22
 213 301 213 301 267.814453125 422.93359375 c 0,23,24
 402 724 402 724 627.12890625 723.985351562 c 0,25,26
 784 724 784 724 877 609.586914062 c 0,27,28
 972 492 972 492 971.9296875 296.990234375 c 0,29,30
 972 141 972 141 900.438476562 56.255859375 c 0,31,32
 834 -22 834 -22 710.473632812 -21.2109375 c 0,33,34
 505 -20 505 -20 317.98828125 134.802734375 c 1,10,11
EndSplineSet
EndChar

StartChar: uniFEE4
Encoding: 65252 65252 239
GlifName: uniF_E_E_4
Width: 1158
VWidth: 2819
GlyphClass: 2
Flags: W
AnchorPoint: "Anchor-7" 519.462 -230.893 basechar 0
AnchorPoint: "Anchor-10" 564.438 1351.05 basechar 0
LayerCount: 2
Fore
SplineSet
403.435546875 301.095703125 m 5,0,1
 566.008789062 159.185546875 566.008789062 159.185546875 690 159.05859375 c 4,2,3
 805.008789062 158.185546875 805.008789062 158.185546875 803.060546875 302.185546875 c 4,4,5
 802.008789062 392.185546875 802.008789062 392.185546875 755.012695312 461.836914062 c 4,6,7
 704.008789062 537.185546875 704.008789062 537.185546875 628.897460938 537.625 c 4,8,9
 489.008789062 539.185546875 489.008789062 539.185546875 403.435546875 301.095703125 c 5,0,1
931.087890625 104 m 1,10,11
 851 -22 851 -22 710.473632812 -21.2109375 c 0,12,13
 505 -20 505 -20 317.98828125 134.802734375 c 1,14,15
 202 0 202 0 12.1337890625 0 c 2,16,-1
 -7.7421875 0 l 2,17,18
 -83.7275390625 0 -83.7275390625 0 -83.7275390625 87.099609375 c 2,19,-1
 -83.7275390625 105.09765625 l 2,20,21
 -83.9999835558 185.995117188 -83.9999835558 185.995117188 -7.7421875 185.995117188 c 2,22,-1
 7.94140625 185.995117188 l 2,23,24
 124 186 124 186 190 274 c 0,25,26
 218 312 218 312 267.814453125 422.93359375 c 0,27,28
 402 724 402 724 627.12890625 723.985351562 c 0,29,30
 888.406066322 724.009594773 888.406066322 724.009594773 954.62109375 414 c 0,31,32
 1001.98940106 187.05078125 1001.98940106 187.05078125 1150.58105469 187.05078125 c 2,33,-1
 1165.25878906 187.05078125 l 2,34,35
 1187.27832031 186.999349923 1187.27832031 186.999349923 1187.27832031 105.090820312 c 2,36,-1
 1187.27832031 87.1044921875 l 2,37,38
 1187 0 1187 0 1165.26269531 0 c 2,39,-1
 1150.29394531 0 l 2,40,41
 999 0 999 0 931.087890625 104 c 1,10,11
EndSplineSet
EndChar

StartChar: uniFEEA
Encoding: 65258 65258 245
GlifName: uniF_E_E_A_
Width: 1092
VWidth: 2819
GlyphClass: 2
Flags: W
AnchorPoint: "Anchor-10" 721.032 1301.4 basechar 0
AnchorPoint: "Anchor-7" 490.892 -220.426 basechar 0
LayerCount: 2
Fore
SplineSet
106.77734375 441.33203125 m 0,0,1
 107.212890625 791.034179688 107.212890625 791.034179688 653.229492188 882.758789062 c 2,2,-1
 655.069335938 883.068359375 l 1,3,-1
 649.828125 936.952148438 l 1,4,-1
 818.384765625 959.590820312 l 1,5,-1
 897.127929688 377.366210938 l 2,6,7
 922.703125 186.029296875 922.703125 186.029296875 1090.24121094 186.029296875 c 2,8,-1
 1099.49804688 186.029296875 l 2,9,10
 1121.51757812 186.001953125 1121.51757812 186.001953125 1121.51757812 109.587890625 c 2,11,-1
 1121.51757812 87.1025390625 l 2,12,13
 1121.64746094 0 1121.64746094 0 1099.50097656 0 c 2,14,-1
 1087.23242188 0 l 2,15,16
 825.849609375 0 825.849609375 0 752.72265625 249.850585938 c 2,17,-1
 751.842773438 252.854492188 l 1,18,-1
 749.486328125 250.794921875 l 2,19,20
 636.662109375 152.201171875 636.662109375 152.201171875 462.893554688 151.641601562 c 0,21,22
 281.719726562 151.18359375 281.719726562 151.18359375 188.198242188 241.698242188 c 0,23,24
 107.211914062 319.60546875 107.211914062 319.60546875 106.77734375 441.33203125 c 0,0,1
677.432617188 708.944335938 m 2,25,26
 288.110351562 645.288085938 288.110351562 645.288085938 287.6875 460.66796875 c 0,27,28
 287.381835938 394.418945312 287.381835938 394.418945312 331.616210938 360.95703125 c 128,-1,29
 375.8515625 327.49609375 375.8515625 327.49609375 463.723632812 326.998046875 c 0,30,31
 481.49609375 326.9921875 481.49609375 326.9921875 497.872070312 327.955078125 c 128,-1,32
 514.247070312 328.916992188 514.247070312 328.916992188 529.259765625 330.8515625 c 128,-1,33
 544.2734375 332.78515625 544.2734375 332.78515625 557.897460938 335.696289062 c 128,-1,34
 571.521484375 338.607421875 571.521484375 338.607421875 583.767578125 342.495117188 c 128,-1,35
 596.014648438 346.383789062 596.014648438 346.383789062 606.8828125 351.259765625 c 128,-1,36
 617.75 356.134765625 617.75 356.134765625 627.2265625 361.993164062 c 0,37,38
 726.432617188 422.963867188 726.432617188 422.963867188 705.786132812 549.9375 c 2,39,-1
 679.40234375 709.266601562 l 1,40,-1
 677.432617188 708.944335938 l 2,25,26
EndSplineSet
EndChar

StartChar: uniFEEB
Encoding: 65259 65259 246
GlifName: uniF_E_E_B_
Width: 1361
VWidth: 2819
GlyphClass: 2
Flags: W
AnchorPoint: "Anchor-10" 569.578 1421.04 basechar 0
AnchorPoint: "Anchor-7" 506.354 -224.111 basechar 0
LayerCount: 2
Fore
SplineSet
-6.6181640625 0 m 2,0,1
 -83.7275390625 0 -83.7275390625 0 -83.7275390625 87.099609375 c 2,2,-1
 -83.7275390625 105.092773438 l 2,3,4
 -83.8037109375 185.995117188 -83.8037109375 185.995117188 -6.6181640625 185.995117188 c 2,5,-1
 284.525390625 185.995117188 l 1,6,-1
 279.620117188 189.60546875 l 2,7,8
 138.890625 293.196289062 138.890625 293.196289062 140.35546875 451.305664062 c 0,9,10
 140.919921875 567.245117188 140.919921875 567.245117188 225.377929688 664.420898438 c 0,11,12
 261.59375 706.561523438 261.59375 706.561523438 303.206054688 734.659179688 c 128,-1,13
 344.818359375 762.756835938 344.818359375 762.756835938 391.845703125 776.8359375 c 128,-1,14
 438.872070312 790.915039062 438.872070312 790.915039062 491.377929688 791.008789062 c 0,15,16
 566.06640625 790.868164062 566.06640625 790.868164062 632.327148438 763.758789062 c 128,-1,17
 698.588867188 736.649414062 698.588867188 736.649414062 756.530273438 682.510742188 c 0,18,19
 788.05078125 652.860351562 788.05078125 652.860351562 809.127929688 620.95703125 c 128,-1,20
 830.204101562 589.052734375 830.204101562 589.052734375 840.846679688 554.931640625 c 128,-1,21
 851.48828125 520.809570312 851.48828125 520.809570312 851.752929688 484.389648438 c 0,22,23
 851.97265625 302.68359375 851.97265625 302.68359375 701.668945312 210.533203125 c 2,24,-1
 687.416992188 201.794921875 l 1,25,-1
 703.915039062 199.088867188 l 2,26,27
 808.8671875 181.913085938 808.8671875 181.913085938 884.959960938 182.044921875 c 0,28,29
 911.174804688 182.000976562 911.174804688 182.000976562 932.514648438 183.5625 c 128,-1,30
 953.85546875 185.124023438 953.85546875 185.124023438 970.514648438 188.331054688 c 128,-1,31
 987.173828125 191.538085938 987.173828125 191.538085938 999.043945312 196.3984375 c 0,32,33
 1071.41992188 225.427734375 1071.41992188 225.427734375 1079.4453125 342.233398438 c 0,34,35
 1083.81445312 431.484375 1083.81445312 431.484375 984.05078125 543.490234375 c 0,36,37
 749.859375 805.61328125 749.859375 805.61328125 455.216796875 925.940429688 c 1,38,-1
 543.123046875 1087.23730469 l 1,39,40
 1114.13964844 776.400390625 1114.13964844 776.400390625 1231.93261719 485.15234375 c 0,41,42
 1270.71386719 389.03125 1270.71386719 389.03125 1251.28222656 287.259765625 c 0,43,44
 1245.97070312 258.298828125 1245.97070312 258.298828125 1238.17675781 232.4765625 c 128,-1,45
 1230.38183594 206.653320312 1230.38183594 206.653320312 1220.10839844 183.979492188 c 128,-1,46
 1209.83496094 161.306640625 1209.83496094 161.306640625 1197.09375 141.768554688 c 128,-1,47
 1184.35351562 122.231445312 1184.35351562 122.231445312 1169.13183594 105.803710938 c 0,48,49
 1074.74707031 1.01953125 1074.74707031 1.01953125 867.590820312 0.5048828125 c 0,50,51
 708.32421875 0.0009765625 708.32421875 0.0009765625 492.651367188 68.3623046875 c 2,52,-1
 492.06640625 68.5478515625 l 1,53,-1
 491.477539062 68.373046875 l 2,54,55
 261.125976562 -0.0263671875 261.125976562 -0.0263671875 91.041015625 0 c 2,56,-1
 -6.6181640625 0 l 2,0,1
683.588867188 468.72265625 m 0,57,58
 682.303710938 534.071289062 682.303710938 534.071289062 648.833984375 569.865234375 c 0,59,60
 621.610351562 599.030273438 621.610351562 599.030273438 584.497070312 614.208007812 c 128,-1,61
 547.3828125 629.38671875 547.3828125 629.38671875 500.55078125 630.568359375 c 0,62,63
 404.451171875 633.362304688 404.451171875 633.362304688 344.954101562 538.87890625 c 0,64,65
 336.556640625 525.618164062 336.556640625 525.618164062 330.916992188 510.6171875 c 128,-1,66
 325.278320312 495.616210938 325.278320312 495.616210938 322.405273438 478.935546875 c 128,-1,67
 319.532226562 462.254882812 319.532226562 462.254882812 319.411132812 443.875976562 c 0,68,69
 319.1875 421.922851562 319.1875 421.922851562 326.40625 400.81640625 c 128,-1,70
 333.625976562 379.709960938 333.625976562 379.709960938 348.188476562 359.564453125 c 128,-1,71
 362.750976562 339.41796875 362.750976562 339.41796875 384.655273438 320.154296875 c 0,72,73
 414.505859375 294.052734375 414.505859375 294.052734375 441.4765625 277.655273438 c 128,-1,74
 468.447265625 261.2578125 468.447265625 261.2578125 492.627929688 254.56640625 c 2,75,-1
 493.326171875 254.373046875 l 1,76,-1
 493.987304688 254.672851562 l 2,77,78
 575.918945312 291.827148438 575.918945312 291.827148438 620.38671875 332.895507812 c 0,79,80
 682.626953125 390.379882812 682.626953125 390.379882812 683.588867188 468.72265625 c 0,57,58
EndSplineSet
EndChar

StartChar: uniFEEC
Encoding: 65260 65260 247
GlifName: uniF_E_E_C_
Width: 975
VWidth: 2819
GlyphClass: 2
Flags: W
AnchorPoint: "Anchor-7" 438.956 -792.272 basechar 0
AnchorPoint: "Anchor-10" 457.545 1362.14 basechar 0
LayerCount: 2
Fore
SplineSet
959.123046875 0 m 2,0,1
 639 0 639 0 678.24609375 -428.756835938 c 1,2,-1
 558.840820312 -543.979492188 l 1,3,4
 237 -403 237 -403 172.846679688 0 c 1,5,-1
 -6.6181640625 0 l 2,6,7
 -83.7275390625 0 -83.7275390625 0 -83.7275390625 87.099609375 c 2,8,-1
 -83.7275390625 105.092773438 l 2,9,10
 -83.9993242306 186.796850164 -83.9993242306 186.796850164 -6.6005859375 187.05078125 c 2,11,-1
 160.385742188 187.598632812 l 1,12,13
 182 618 182 618 330.12890625 777.107421875 c 0,14,15
 408 861 408 861 534.108398438 861.265625 c 0,16,17
 659 861 659 861 728.579101562 777.294921875 c 0,18,19
 798 693 798 693 796.537109375 536.873046875 c 0,20,21
 794 321 794 321 668.819824219 176.820800781 c 0,22,23
 523 8 523 8 334.291015625 -1.0439453125 c 1,24,25
 372 -232 372 -232 524.014648438 -321.4375 c 1,26,-1
 524.0078125 -310.625976562 l 2,27,28
 523.999999203 187.05078125 523.999999203 187.05078125 961.392578125 187.05078125 c 2,29,-1
 982.327148438 187.05078125 l 2,30,31
 1004.34472656 186.999192278 1004.34472656 186.999192278 1004.34472656 105.090820312 c 2,32,-1
 1004.34472656 87.109375 l 2,33,34
 1004 0 1004 0 982.330078125 0 c 2,35,-1
 959.123046875 0 l 2,0,1
325.3125 186.001953125 m 1,36,37
 454 189 454 189 549.708007812 289.91015625 c 0,38,39
 636 381 636 381 635.8984375 532.953125 c 0,40,41
 636 671 636 671 533.123046875 676.409179688 c 0,42,43
 467 680 467 680 410.65625 601.3359375 c 0,44,45
 337.193753178 499.349605189 337.193753178 499.349605189 325.3125 186.001953125 c 1,36,37
EndSplineSet
EndChar

StartChar: uniFEEE
Encoding: 65262 65262 249
GlifName: uniF_E_E_E_
Width: 906
VWidth: 2819
GlyphClass: 2
Flags: W
AnchorPoint: "Anchor-7" 433.2 -745.049 basechar 0
AnchorPoint: "Anchor-10" 421.665 1310.17 basechar 0
LayerCount: 2
Fore
SplineSet
431.528320312 743.579101562 m 4,0,1
 615 753 615 753 715.894639147 581 c 0,2,3
 798.462735763 440.911544775 798.462735763 440.911544775 814.26953125 187.87109375 c 2,4,-1
 814.38671875 185.995117188 l 1,5,-1
 913.392578125 185.995117188 l 2,6,7
 925.279448066 186.000588956 925.279448066 186.000588956 929.564453125 163.518554688 c 0,8,9
 935.40625 130.719058794 935.40625 130.719058794 935.40625 95.58984375 c 2,10,-1
 935.40625 87.1162109375 l 2,11,12
 934.999415736 -0.125289490446 934.999415736 -0.125289490446 913.412109375 0 c 2,13,-1
 797.6484375 0.671875 l 1,14,-1
 797.314453125 -0.9296875 l 2,15,16
 748 -237 748 -237 588.115234375 -366.750976562 c 0,17,18
 435 -492 435 -492 111.15234375 -525.984375 c 1,19,-1
 78.5546875 -346.680664062 l 1,20,21
 542.520594227 -306.955426187 542.520594227 -306.955426187 628.829101562 -1.23046875 c 2,22,-1
 629.545898438 1.30859375 l 1,23,-1
 480.337890625 1.51171875 l 2,24,25
 243 2 243 2 155.059570312 122.859375 c 0,26,27
 108 187 108 187 103.794921875 275.73828125 c 0,28,29
 97.1217375848 407.594571701 97.1217375848 407.594571701 167.1875 549.73828125 c 0,30,31
 258 735 258 735 431.528320312 743.579101562 c 4,0,1
489.791992188 189.985351562 m 2,32,-1
 636.5859375 188.537109375 l 1,33,-1
 636.471679688 190.665039062 l 2,34,35
 635.737304688 204.333007812 635.737304688 204.333007812 634.791015625 217.493164062 c 0,36,37
 609.385742188 570.6796875 609.385742188 570.6796875 430.96484375 557.765625 c 0,38,39
 355.365234375 552.54296875 355.365234375 552.54296875 312.104492188 452.313476562 c 0,40,41
 275.017578125 368.15234375 275.017578125 368.15234375 278.590820312 302.416992188 c 0,42,43
 285.374023438 190.0859375 285.374023438 190.0859375 489.791992188 189.985351562 c 2,32,-1
EndSplineSet
EndChar

StartChar: uniFEF0
Encoding: 65264 65264 251
GlifName: uniF_E_F_0
Width: 1521
VWidth: 2819
GlyphClass: 2
Flags: W
AnchorPoint: "Anchor-10" 721.192 1268.83 basechar 0
AnchorPoint: "Anchor-7" 545.449 -791.749 basechar 0
LayerCount: 2
Fore
SplineSet
1527.00976562 187.05078125 m 2,0,1
 1549.02929688 187.05078125 1549.02929688 187.05078125 1549.02929688 105.090820312 c 2,2,-1
 1549.02929688 87.1142578125 l 2,3,4
 1549 0 1549 0 1527.02929688 0 c 2,5,-1
 1376.11816406 0 l 1,6,7
 1424 -37 1424 -37 1424.97363281 -107.557617188 c 0,8,9
 1425 -257 1425 -257 1254 -379 c 4,10,11
 1054 -521 1054 -521 733.669921875 -522.41796875 c 0,12,13
 389 -524 389 -524 236 -358.033218199 c 0,14,15
 115 -228 115 -228 114.701171875 -6.2451171875 c 0,16,17
 114 228 114 228 212.943359375 438.296875 c 1,18,-1
 373.31640625 373.821289062 l 1,19,20
 291 167 291 167 291.643554688 11.3935546875 c 0,21,22
 294 -344 294 -344 742.673828125 -341.439453125 c 0,23,24
 1025 -340 1025 -340 1191.62207031 -198.436523438 c 0,25,26
 1255 -144 1255 -144 1255.54394531 -88.875 c 0,27,28
 1255.00273037 0.548866723202 1255.00273037 0.548866723202 1133 0.694491568651 c 2,29,-1
 965.409179688 0.89453125 l 1,30,31
 908 7 908 7 886.665527344 93.5141601565 c 0,32,33
 866 180 866 180 890.342773438 187.05078125 c 1,34,-1
 1527.00976562 187.05078125 l 2,0,1
965.409179688 0.89453125 m 128,-1,36
 965.356445312 0.89453125 965.356445312 0.89453125 965.303710938 0.89453125 c 2,37,-1
 965.51171875 0.8837890625 l 2,38,35
 965.459960938 0.888671875 965.459960938 0.888671875 965.409179688 0.89453125 c 128,-1,36
EndSplineSet
EndChar

StartChar: uniFEFB
Encoding: 65275 65275 262
GlifName: uniF_E_F_B_
Width: 1241
VWidth: 2819
GlyphClass: 3
Flags: W
AnchorPoint: "Anchor-9" 208.552 1567.76 baselig 1
AnchorPoint: "Anchor-6" 312.884 -237.827 baselig 1
AnchorPoint: "Anchor-6" 920.542 -234.218 baselig 0
AnchorPoint: "Anchor-9" 1001.03 1638.32 baselig 0
LayerCount: 2
Fore
SplineSet
249.590820312 1398.34179688 m 5,0,1
 501.589611307 755.49590864 501.589611307 755.49590864 633.862304688 219.602539062 c 2,2,-1
 634.375 217.525390625 l 1,3,-1
 636.413085938 218.176757812 l 2,4,5
 911.436362918 306.139565305 911.436362918 306.139565305 911.52734375 613.305664062 c 2,6,-1
 911.779296875 1463.94042969 l 5,7,-1
 1088.27148438 1463.94042969 l 5,8,-1
 1088.27148438 621.588867188 l 2,9,10
 1088 417 1088 417 1014.28515625 279.881835938 c 0,11,12
 940 143 940 143 792.578125 73.1455078125 c 0,13,14
 645 3 645 3 422.765625 1.1240234375 c 0,15,16
 323 0 323 0 123.661132812 21.0830078125 c 1,17,-1
 123.661132812 213.384765625 l 1,18,19
 309.492937008 178.908548467 309.492937008 178.908548467 465.4375 183.37109375 c 2,20,-1
 467.928710938 183.442382812 l 1,21,-1
 467.319335938 185.859375 l 2,22,23
 349 657 349 657 81.26171875 1335.64648438 c 5,24,-1
 249.590820312 1398.34179688 l 5,0,1
EndSplineSet
LCarets2: 1 0
Ligature2: "'rlig' Required Ligatures in Arabic lookup 16 subtable" uniFEDF uniFE8E
EndChar

StartChar: uniFEFC
Encoding: 65276 65276 263
GlifName: uniF_E_F_C_
Width: 1321
VWidth: 2819
GlyphClass: 3
Flags: W
AnchorPoint: "Anchor-9" 1001.03 1638.32 baselig 0
AnchorPoint: "Anchor-6" 920.542 -234.218 baselig 0
AnchorPoint: "Anchor-6" 312.884 -237.827 baselig 1
AnchorPoint: "Anchor-9" 208.552 1567.76 baselig 1
LayerCount: 2
Fore
SplineSet
636.413085938 218.176757812 m 2,0,1
 911.436343352 306.07350554 911.436343352 306.07350554 911.52734375 613.305664062 c 2,2,-1
 911.779296875 1463.94042969 l 5,3,-1
 1088.27148438 1463.94042969 l 5,4,-1
 1088.27148438 529.655273438 l 2,5,6
 1088.00004023 187.05078125 1088.00004023 187.05078125 1304.93261719 187.05078125 c 2,7,-1
 1329.23925781 187.05078125 l 2,8,9
 1351.25683594 186.999400643 1351.25683594 186.999400643 1351.25683594 105.090820312 c 2,10,-1
 1351.25683594 87.1005859375 l 2,11,12
 1351 0 1351 0 1329.2421875 0 c 2,13,-1
 1292.02929688 0 l 2,14,15
 1038.30063356 1.98951966013e-13 1038.30063356 1.98951966013e-13 969.28125 238.608398438 c 2,16,-1
 967.971679688 243.135742188 l 1,17,-1
 965.625976562 239.047851562 l 2,18,19
 831 5 831 5 422.765625 1.1240234375 c 0,20,21
 323 0 323 0 123.661132812 21.0830078125 c 1,22,-1
 123.661132812 213.389648438 l 1,23,24
 312.377390413 178.931090572 312.377390413 178.931090572 465.4375 183.37109375 c 2,25,-1
 467.928710938 183.443359375 l 1,26,-1
 467.319335938 185.859375 l 2,27,28
 350 650 350 650 81.26171875 1335.64648438 c 5,29,-1
 249.590820312 1398.34179688 l 5,30,31
 501.589611307 755.49590864 501.589611307 755.49590864 633.862304688 219.602539062 c 2,32,-1
 634.375 217.525390625 l 1,33,-1
 636.413085938 218.176757812 l 2,0,1
EndSplineSet
LCarets2: 1 0
Ligature2: "'rlig' Required Ligatures in Arabic lookup 16 subtable" uniFEE0 uniFE8E
EndChar

StartChar: arabic_dot
Encoding: 65536 -1 264
GlifName: arabic_dot
Width: 193
VWidth: 2646
GlyphClass: 2
Flags: W
LayerCount: 2
Fore
SplineSet
-47.2389509947 102.962895318 m 1,0,-1
 96.3154390735 246.517285386 l 1,1,-1
 240.628590022 102.206050019 l 1,2,-1
 97.0732422118 -41.348340098 l 1,3,-1
 -47.2389509947 102.962895318 l 1,0,-1
EndSplineSet
EndChar

StartChar: arabic_2dots
Encoding: 65537 -1 265
GlifName: arabic_2dots
Width: 514
VWidth: 2646
GlyphClass: 2
Flags: W
LayerCount: 2
Fore
SplineSet
281.349901773 102.962890651 m 1,0,-1
 420.133793938 241.747739874 l 1,1,-1
 559.675479125 102.206054688 l 1,2,-1
 420.89062985 -36.5787945875 l 1,3,-1
 281.349901773 102.962890651 l 1,0,-1
-42.4674859154 102.962895527 m 1,4,-1
 96.31543944 241.747734998 l 1,5,-1
 235.857124626 102.206049812 l 1,6,-1
 97.0732421616 -36.5787897112 l 1,7,-1
 -42.4674859154 102.962895527 l 1,4,-1
EndSplineSet
EndChar

StartChar: arabic_3dots
Encoding: 65538 -1 266
GlifName: arabic_3dots
Width: 514
VWidth: 2646
GlyphClass: 2
Flags: W
LayerCount: 2
Fore
SplineSet
120.37237241 364.940439637 m 1,0,-1
 255.976557566 500.545581403 l 1,1,-1
 392.337588446 364.182637087 l 1,2,-1
 256.733403453 228.580365312 l 1,3,-1
 120.37237241 364.940439637 l 1,0,-1
284.530575563 83.8486328125 m 1,4,-1
 420.133798984 219.451856235 l 1,5,-1
 556.495771726 83.0917969292 l 1,6,-1
 420.890634976 -52.5114266017 l 1,7,-1
 284.530575563 83.8486328125 l 1,4,-1
-39.2877788516 83.8486377736 m 1,8,-1
 96.3154396097 219.451856235 l 1,9,-1
 232.67741734 83.091791941 l 1,10,-1
 97.0732422146 -52.5114265746 l 1,11,-1
 -39.2877788516 83.8486377736 l 1,8,-1
EndSplineSet
EndChar

StartChar: arabic_3dots_a
Encoding: 65539 -1 267
GlifName: arabic_3dots_a
Width: 514
VWidth: 2646
GlyphClass: 2
Flags: W
LayerCount: 2
Fore
SplineSet
120.37237241 -164.268564637 m 1,0,-1
 256.733398465 -27.9084953004 l 1,1,-1
 392.337588473 -163.511728699 l 1,2,-1
 255.976562527 -299.873711364 l 1,3,-1
 120.37237241 -164.268564637 l 1,0,-1
284.530565613 116.822265598 m 1,4,-1
 420.890639938 253.183296641 l 1,5,-1
 556.495781649 117.580068149 l 1,6,-1
 420.13379405 -18.7819194495 l 1,7,-1
 284.530565613 116.822265598 l 1,4,-1
-39.287788801 116.822260637 m 1,8,-1
 97.0732471757 253.183296613 l 1,9,-1
 232.677427262 117.580073137 l 1,10,-1
 96.3154346758 -18.7819194495 l 1,11,-1
 -39.287788801 116.822260637 l 1,8,-1
EndSplineSet
EndChar

StartChar: uni066E.fina
Encoding: 65540 -1 268
GlifName: uni066E_.fina
Width: 1957
VWidth: 2819
GlyphClass: 2
Flags: W
AnchorPoint: "Anchor-10" 892.338 1364.57 basechar 0
AnchorPoint: "Anchor-7" 847.362 -242.527 basechar 0
LayerCount: 2
Fore
SplineSet
908.1953125 0 m 2,0,-1
 906.075195312 0 l 2,1,2
 451.130859375 0 451.130859375 0 291.284179688 116.067382812 c 0,3,4
 111.30078125 247.2421875 111.30078125 247.2421875 111.26171875 525.94921875 c 0,5,6
 111.30078125 659.564453125 111.30078125 659.564453125 150.552734375 774.01953125 c 1,7,-1
 304.995117188 733.461914062 l 1,8,9
 281.975585938 623.466796875 281.975585938 623.466796875 281.818359375 527.764648438 c 0,10,11
 281.977539062 344.215820312 281.977539062 344.215820312 402.41796875 267.010742188 c 0,12,13
 529.576171875 185.999023438 529.576171875 185.999023438 906.55078125 186.20703125 c 0,14,15
 1520.22070312 187.021484375 1520.22070312 187.021484375 1567.92480469 472.719726562 c 2,16,-1
 1589.90234375 604.338867188 l 1,17,-1
 1721.76171875 604.338867188 l 1,18,-1
 1746.96484375 350.084960938 l 2,19,20
 1763.33984375 187.05078125 1763.33984375 187.05078125 1951.50390625 187.05078125 c 2,21,-1
 1964.03613281 187.05078125 l 2,22,23
 1986.05566406 187.0234375 1986.05566406 187.0234375 1986.05566406 105.090820312 c 2,24,-1
 1986.05566406 87.1103515625 l 2,25,26
 1985.94921875 43.27734375 1985.94921875 43.27734375 1980.1171875 21.638671875 c 128,-1,27
 1974.28613281 0 1974.28613281 0 1964.0390625 0 c 2,28,-1
 1951.60351562 0 l 2,29,30
 1660.47851562 0 1660.47851562 0 1611.45703125 196.3515625 c 2,31,-1
 1610.5 200.185546875 l 1,32,-1
 1607.97753906 197.143554688 l 2,33,34
 1444.48339844 0 1444.48339844 0 908.1953125 0 c 2,0,-1
EndSplineSet
EndChar

StartChar: uni06A1.fina
Encoding: 65543 -1 269
GlifName: uni06A_1.fina
Width: 2038
VWidth: 2819
GlyphClass: 2
Flags: W
AnchorPoint: "Anchor-10" 721.891 1503.3 basechar 0
AnchorPoint: "Anchor-7" 603.904 -292.443 basechar 0
LayerCount: 2
Fore
SplineSet
906.544921875 186.20703125 m 0,0,1
 975 186 975 186 1036.25585938 189.143554688 c 0,2,3
 1097 192 1097 192 1150.89160156 198.166992188 c 0,4,5
 1204 204 1204 204 1250.4921875 213.291015625 c 0,6,7
 1299.3445497 223.274780322 1299.3445497 223.274780322 1335.03613281 234.5234375 c 2,8,-1
 1338.7265625 235.686523438 l 1,9,-1
 1335.64257812 238.024414062 l 2,10,11
 1168 365 1168 365 1167.9296875 538.577148438 c 0,12,13
 1168 618 1168 618 1197.69824219 684.448242188 c 0,14,15
 1228 751 1228 751 1287.87597656 803.4921875 c 0,16,17
 1408 909 1408 909 1527.58984375 909.37109375 c 0,18,19
 1646 909 1646 909 1763.97070312 803.49609375 c 0,20,21
 1788 782 1788 782 1807.09960938 759.079101562 c 128,-1,22
 1826 736 1826 736 1840.65039062 710.39453125 c 0,23,24
 1855 685 1855 685 1864.63378906 657.424804688 c 0,25,26
 1874 630 1874 630 1879.0546875 600.158203125 c 0,27,28
 1884 570 1884 570 1883.921875 538.575195312 c 0,29,30
 1884.00004062 364.909744727 1884.00004062 364.909744727 1717.22753906 238.022460938 c 2,31,-1
 1714.29980469 235.794921875 l 1,32,-1
 1717.76074219 234.548828125 l 2,33,34
 1853.01360173 185.995117188 1853.01360173 185.995117188 2014.80273438 185.995117188 c 2,35,-1
 2045.84375 185.995117188 l 2,36,37
 2056 186 2056 186 2062.04980469 165.950195312 c 0,38,39
 2067.85839844 146.474770765 2067.85839844 146.474770765 2067.85839844 105.090820312 c 2,40,-1
 2067.85839844 87.1123046875 l 2,41,42
 2068 0 2068 0 2045.84375 0 c 2,43,-1
 2016.89648438 0 l 2,44,45
 1712.1963548 -1.13686837722e-13 1712.1963548 -1.13686837722e-13 1523.24316406 144.780273438 c 6,46,-1
 1522.06933594 145.6796875 l 5,47,-1
 1520.86523438 144.8203125 l 6,48,49
 1318 0 1318 0 908.1953125 0 c 2,50,-1
 906.075195312 0 l 2,51,52
 451 0 451 0 291.284179688 116.067382812 c 0,53,54
 111 247 111 247 111.26171875 525.94921875 c 0,55,56
 111 660 111 660 150.552734375 774.01953125 c 1,57,-1
 304.995117188 733.461914062 l 1,58,59
 282 623 282 623 281.818359375 527.764648438 c 0,60,61
 282 344 282 344 402.415039062 267.012695312 c 0,62,63
 528 187 528 187 906.544921875 186.20703125 c 0,0,1
1525.43945312 727.166992188 m 0,64,65
 1473.48242188 727.309570312 1473.48242188 727.309570312 1402.58496094 657.735351562 c 0,66,67
 1382.27050781 637.32421875 1382.27050781 637.32421875 1368.74511719 615.3984375 c 128,-1,68
 1355.21875 593.473632812 1355.21875 593.473632812 1348.48828125 570.006835938 c 128,-1,69
 1341.7578125 546.5390625 1341.7578125 546.5390625 1341.86523438 521.59375 c 0,70,71
 1342.2265625 498.7109375 1342.2265625 498.7109375 1360.68457031 466.237304688 c 128,-1,72
 1379.14257812 433.763671875 1379.14257812 433.763671875 1415.72363281 391.177734375 c 0,73,74
 1480.53515625 315.72265625 1480.53515625 315.72265625 1525.92578125 316.040039062 c 0,75,76
 1533.58105469 315.986328125 1533.58105469 315.986328125 1541.75292969 318.0625 c 128,-1,77
 1549.92480469 320.139648438 1549.92480469 320.139648438 1558.59179688 324.338867188 c 128,-1,78
 1567.25976562 328.537109375 1567.25976562 328.537109375 1576.42675781 334.811523438 c 128,-1,79
 1585.59472656 341.084960938 1585.59472656 341.084960938 1595.296875 349.471679688 c 128,-1,80
 1605 357.858398438 1605 357.858398438 1615.18164062 368.26171875 c 128,-1,81
 1625.36425781 378.665039062 1625.36425781 378.665039062 1636.1171875 391.16796875 c 0,82,83
 1710.22558594 476.33984375 1710.22558594 476.33984375 1709.98632812 521.608398438 c 0,84,85
 1710.10546875 559.504882812 1710.10546875 559.504882812 1694.89941406 593.569335938 c 128,-1,86
 1679.69433594 627.633789062 1679.69433594 627.633789062 1649.26757812 657.734375 c 0,87,88
 1579.31445312 727.309570312 1579.31445312 727.309570312 1525.43945312 727.166992188 c 0,64,65
EndSplineSet
EndChar

StartChar: uni06A1.init
Encoding: 65544 -1 270
GlifName: uni06A_1.init
Width: 913
VWidth: 2819
GlyphClass: 2
Flags: W
AnchorPoint: "Anchor-10" 426.795 1564.77 basechar 0
AnchorPoint: "Anchor-7" 350.909 -230.855 basechar 0
LayerCount: 2
Fore
SplineSet
789.607421875 583.724609375 m 4,0,1
 828.818633012 230.633184146 828.818633012 230.633184146 656.840820312 103.022460938 c 4,2,3
 518 0 518 0 202.645507812 0 c 6,4,-1
 -6.6181640625 0 l 6,5,6
 -83.7275390625 0 -83.7275390625 0 -83.7275390625 87.099609375 c 6,7,-1
 -83.7275390625 105.092773438 l 6,8,9
 -84.0009010887 186.267578125 -84.0009010887 186.267578125 -6.6181640625 186.267578125 c 6,10,-1
 203.271484375 186.267578125 l 6,11,12
 630 186 630 186 631.547851562 401.147460938 c 5,13,-1
 563.784179688 386.453125 l 6,14,15
 465 365 465 365 381.75 365.55078125 c 4,16,17
 93 368 93 368 93.7822265625 633.380859375 c 4,18,19
 94 709 94 709 122.381835938 808.52734375 c 4,20,21
 150 908 150 908 212.036132812 978.422851562 c 4,22,23
 295 1072 295 1072 425.393554688 1071.95898438 c 4,24,25
 511 1072 511 1072 584.345703125 1024.03613281 c 4,26,27
 753 915 753 915 789.607421875 583.724609375 c 4,0,1
539.86328125 563.423828125 m 6,28,-1
 616.095703125 580.440429688 l 5,29,30
 601 701 601 701 567.927734375 774.0234375 c 4,31,32
 517 885 517 885 421.125976562 885.408203125 c 4,33,34
 315 885 315 885 273.278320312 739.984375 c 4,35,36
 260 693 260 693 259.993164062 658.0234375 c 4,37,38
 260 548 260 548 405.125976562 546.69921875 c 4,39,40
 462 546 462 546 539.86328125 563.423828125 c 6,28,-1
EndSplineSet
EndChar

StartChar: uni06A1.medi
Encoding: 65545 -1 271
GlifName: uni06A_1.medi
Width: 1042
VWidth: 2819
GlyphClass: 2
Flags: W
AnchorPoint: "Anchor-10" 525.661 1326.87 basechar 0
AnchorPoint: "Anchor-7" 503.173 -230.855 basechar 0
LayerCount: 2
Fore
SplineSet
411.275878906 661.854492187 m 128,-1,1
 345.305664062 596.399414062 345.305664062 596.399414062 345.62890625 521.59375 c 0,2,3
 346.342955516 476.328230232 346.342955516 476.328230232 415.321380102 396.025443241 c 128,-1,4
 484.299804688 315.72265625 484.299804688 315.72265625 529.689453125 316.040039062 c 0,5,6
 574.995039668 315.721556542 574.995039668 315.721556542 644.49214874 396.030700146 c 128,-1,7
 713.989257812 476.33984375 713.989257812 476.33984375 713.75 521.608398438 c 0,8,9
 713.98828125 597.430664062 713.98828125 597.430664062 653.03125 657.734375 c 0,10,11
 583.077239596 727.310731584 583.077239596 727.310731584 530.161666673 727.310150948 c 128,-1,0
 477.24609375 727.309570312 477.24609375 727.309570312 411.275878906 661.854492187 c 128,-1,1
525.798828125 142.704101562 m 5,12,13
 335 0 335 0 32.630859375 0 c 2,14,-1
 -6.6181640625 0 l 2,15,16
 -83.7275390625 0 -83.7275390625 0 -83.7275390625 87.099609375 c 2,17,-1
 -83.7275390625 105.092773438 l 2,18,19
 -83.9988498822 185.658472734 -83.9988498822 185.658472734 -6.603515625 185.995117188 c 2,20,-1
 32.4619140625 186.165039062 l 2,21,22
 201 187 201 187 341.341796875 235.765625 c 1,23,24
 173 365 173 365 172.078759863 531.247357132 c 0,25,26
 171 745 171 745 372.04296875 862.298828125 c 0,27,28
 452 909 452 909 531.356445312 909.37109375 c 0,29,30
 648 909 648 909 767.736328125 803.495117188 c 0,31,32
 888 698 888 698 887.72656159 531.271437886 c 0,33,34
 888 365 888 365 718.057617188 235.793945312 c 1,35,36
 857.01362474 185.995117188 857.01362474 185.995117188 1018.56738281 185.995117188 c 2,37,-1
 1049.60839844 185.995117188 l 2,38,39
 1071.62207031 185.999917587 1071.62207031 185.999917587 1071.62207031 105.090820312 c 2,40,-1
 1071.62207031 87.1064453125 l 2,41,42
 1072 0 1072 0 1049.60839844 0 c 2,43,-1
 1020.66113281 0 l 2,44,45
 715 0 715 0 525.798828125 142.704101562 c 5,12,13
EndSplineSet
EndChar

StartChar: uni066F.fina
Encoding: 65546 -1 272
GlifName: uni066F_.fina
Width: 1525
VWidth: 2819
GlyphClass: 2
Flags: W
AnchorPoint: "Anchor-10" 405.178 1156.46 basechar 0
AnchorPoint: "Anchor-7" 534.375 -810.211 basechar 0
LayerCount: 2
Fore
SplineSet
1421.18164062 185.848632812 m 1,0,-1
 1531.85839844 186.267578125 l 2,1,2
 1542 186 1542 186 1548.06640625 166.020507812 c 0,3,4
 1553.88085938 146.401991746 1553.88085938 146.401991746 1553.88085938 105.090820312 c 2,5,-1
 1553.88085938 87.1083984375 l 2,6,7
 1554 43 1554 43 1547.98925781 21.576171875 c 0,8,9
 1541.98468851 -0.0551593131767 1541.98468851 -0.0551593131767 1531.89453125 -0 c 2,10,-1
 1408.6328125 0.673828125 l 1,11,-1
 1408.44042969 -1.1220703125 l 2,12,13
 1349 -558 1349 -558 733.68359375 -557.250976562 c 0,14,15
 116 -557 116 -557 114.701171875 9.7822265625 c 0,16,17
 114 241 114 241 221.556640625 469.28125 c 1,18,-1
 381.927734375 404.806640625 l 1,19,20
 291 176 291 176 291.643554688 17.4208984375 c 0,21,22
 294 -375 294 -375 742.658203125 -376.271484375 c 0,23,24
 973 -377 973 -377 1096.48632812 -282.681640625 c 0,25,26
 1219.90404629 -189.072778189 1219.90404629 -189.072778189 1235.69042969 -0.994140625 c 2,27,-1
 1235.87207031 1.169921875 l 1,28,-1
 1087.13183594 1.3720703125 l 2,29,30
 789 2 789 2 725.596679688 192.890625 c 0,31,32
 710 240 710 240 709.989094474 300 c 0,33,34
 710 422 710 422 773.982421875 548.579101562 c 0,35,36
 872 744 872 744 1055.20898438 743.888671875 c 4,37,38
 1233 744 1233 744 1328.78597367 570 c 0,39,40
 1405.82276268 430.321356448 1405.82276268 430.321356448 1421.06347656 187.729492188 c 2,41,-1
 1421.18164062 185.848632812 l 1,0,-1
1096.5859375 189.845703125 m 1,42,-1
 1243.38085938 188.397460938 l 1,43,-1
 1243.265625 190.526367188 l 2,44,45
 1229.50292969 443.754882812 1229.50292969 443.754882812 1143.07519531 522.486328125 c 0,46,47
 1103.9609375 558.118164062 1103.9609375 558.118164062 1050.10058594 558.087890625 c 0,48,49
 1044.01855469 558.084960938 1044.01855469 558.084960938 1037.76171875 557.625976562 c 0,50,51
 961.918945312 552.545898438 961.918945312 552.545898438 918.89453125 452.166992188 c 0,52,53
 881.573242188 368.15234375 881.573242188 368.15234375 885.3828125 302.28125 c 0,54,55
 891.92578125 190.086914062 891.92578125 190.086914062 1096.5859375 189.845703125 c 1,42,-1
EndSplineSet
EndChar

StartChar: arabic_gaf_bar
Encoding: 65550 -1 273
GlifName: arabic_gaf_bar
Width: 717
VWidth: 2640
GlyphClass: 2
Flags: W
LayerCount: 2
Fore
SplineSet
722.104492188 1894.50488281 m 5,0,-1
 5.8720703125 1603.27050781 l 5,1,-1
 5.8720703125 1707.47460938 l 5,2,-1
 722.104492188 1998.70605469 l 5,3,-1
 722.104492188 1894.50488281 l 5,0,-1
EndSplineSet
EndChar

StartChar: guillemotleft
Encoding: 171 171 283
GlifName: guillemotleft
Width: 1149
VWidth: 2214
Flags: W
LayerCount: 2
Fore
SplineSet
434.887695312 0.4990234375 m 5,0,1
 136 473 136 473 135.305664062 532.717773438 c 0,2,3
 135 599 135 599 435.678710938 1005.57226562 c 5,4,-1
 633.748046875 1005.57226562 l 5,5,-1
 612.3046875 976.259765625 l 6,6,7
 334 596 334 596 334.073242188 532.166992188 c 0,8,9
 334.00060008 473.484760544 334.00060008 473.484760544 613.14453125 28.7255859375 c 6,10,-1
 630.860351562 0.4990234375 l 5,11,-1
 434.887695312 0.4990234375 l 5,0,1
843.48828125 0.4990234375 m 5,12,13
 544 473 544 473 543.905273438 532.717773438 c 0,14,15
 543 599 543 599 844.279296875 1005.57226562 c 5,16,-1
 1042.34765625 1005.57226562 l 5,17,-1
 1020.90429688 976.259765625 l 6,18,19
 743 596 743 596 742.672851562 532.166992188 c 0,20,21
 743.000703911 472.872692957 743.000703911 472.872692957 1021.74511719 28.7255859375 c 6,22,-1
 1039.45996094 0.4990234375 l 5,23,-1
 843.48828125 0.4990234375 l 5,12,13
EndSplineSet
EndChar

StartChar: guillemotright
Encoding: 187 187 284
GlifName: guillemotright
Width: 1149
VWidth: 2214
Flags: W
LayerCount: 2
Fore
SplineSet
714.059570312 0.4990234375 m 1,0,-1
 518.086914062 0.4990234375 l 1,1,-1
 535.80078125 28.724609375 l 2,2,3
 815 474 815 474 814.836914062 532.361328125 c 4,4,5
 814.999355405 595.748469098 814.999355405 595.748469098 536.641601562 976.260742188 c 2,6,-1
 515.19921875 1005.57226562 l 1,7,-1
 713.268554688 1005.57226562 l 1,8,9
 1014 598 1014 598 1013.64355469 533.040039062 c 4,10,11
 1013 473 1013 473 714.059570312 0.4990234375 c 1,0,-1
305.458984375 0.4990234375 m 1,12,-1
 109.487304688 0.4990234375 l 1,13,-1
 127.201171875 28.724609375 l 2,14,15
 406 473 406 473 406.236328125 532.361328125 c 4,16,17
 405.998899207 596.296422727 405.998899207 596.296422727 128.041992188 976.260742188 c 2,18,-1
 106.599609375 1005.57226562 l 1,19,-1
 304.66796875 1005.57226562 l 1,20,21
 605 597 605 597 605.04296875 533.040039062 c 4,22,23
 604 473 604 473 305.458984375 0.4990234375 c 1,12,-1
EndSplineSet
EndChar

StartChar: NameMe.302
Encoding: 65562 -1 293
GlifName: N_ameM_e.302
Width: 692
VWidth: 2819
Flags: W
LayerCount: 2
Fore
SplineSet
352.571289062 150.737304688 m 2,0,1
 249.19611843 0 249.19611843 0 20.626953125 0 c 2,2,-1
 -6.6181640625 0 l 2,3,4
 -83.7275390625 0 -83.7275390625 0 -83.7275390625 87.099609375 c 2,5,-1
 -83.7275390625 105.092773438 l 2,6,7
 -83.9999835568 185.995117188 -83.9999835568 185.995117188 -6.6181640625 185.995117188 c 2,8,-1
 23.02734375 185.995117188 l 2,9,10
 269.864257812 185.94919477 269.864257812 185.94919477 269.864257812 417.959960938 c 2,11,-1
 269.864257812 1249.22949219 l 5,12,-1
 450.000976562 1249.22949219 l 5,13,-1
 450.000976562 417.973632812 l 2,14,15
 449.999999979 185.995117188 449.999999979 185.995117188 679.525390625 185.995117188 c 2,16,-1
 689.166992188 185.995117188 l 2,17,18
 721.73828125 185.999961078 721.73828125 185.999961078 721.73828125 105.090820312 c 2,19,-1
 721.73828125 87.09375 l 2,20,21
 722 40 722 40 713.642578125 21.5029296875 c 0,22,23
 705 0 705 0 689.166992188 0 c 2,24,-1
 681.928710938 0 l 2,25,26
 462.803469539 -8.52651282912e-14 462.803469539 -8.52651282912e-14 355.852539062 150.763671875 c 2,27,-1
 354.193359375 153.102539062 l 1,28,-1
 352.571289062 150.737304688 l 2,0,1
EndSplineSet
EndChar

StartChar: NameMe.303
Encoding: 65563 -1 294
GlifName: N_ameM_e.303
Width: 596
VWidth: 2819
Flags: W
LayerCount: 2
Fore
SplineSet
-6.6181640625 0 m 2,0,1
 -83.7275390625 0 -83.7275390625 0 -83.7275390625 87.099609375 c 2,2,-1
 -83.7275390625 105.092773438 l 2,3,4
 -83.9999835568 185.995117188 -83.9999835568 185.995117188 -6.6181640625 185.995117188 c 2,5,-1
 19.5693359375 185.995117188 l 2,6,7
 265.500976562 186.020418661 265.500976562 186.020418661 265.500976562 421.28125 c 2,8,-1
 265.500976562 1433.19042969 l 5,9,-1
 442.263671875 1433.19042969 l 5,10,-1
 442.263671875 415.845703125 l 2,11,12
 442 0 442 0 14.611328125 0 c 2,13,-1
 -6.6181640625 0 l 2,0,1
EndSplineSet
EndChar

StartChar: NameMe.65564
Encoding: 65564 -1 297
GlifName: N_ameM_e.65564
Width: 591
VWidth: 2819
Flags: W
AnchorPoint: "Anchor-10" 265.161 1436.76 basechar 0
AnchorPoint: "Anchor-7" 306.062 -327.451 basechar 0
LayerCount: 2
Fore
SplineSet
597.870117188 0 m 2,0,-1
 577.955078125 -0 l 2,1,2
 170.333007812 0.00450810900202 170.333007812 0.00450810900202 170.333007812 421.026367188 c 2,3,-1
 170.333007812 1315.65332031 l 5,4,-1
 347.096679688 1315.65332031 l 5,5,-1
 347.096679688 422.985351562 l 2,6,7
 346.999998008 185.995117188 346.999998008 185.995117188 580.868164062 185.995117188 c 2,8,-1
 597.870117188 185.995117188 l 2,9,10
 605 186 605 186 609.544921875 177.599609375 c 128,-1,11
 614 169 614 169 617.135742188 150.861328125 c 0,12,13
 619.885742188 138.513049909 619.885742188 138.513049909 619.885742188 105.090820312 c 2,14,-1
 619.885742188 87.1005859375 l 2,15,16
 620 0 620 0 597.870117188 0 c 2,0,-1
EndSplineSet
EndChar

StartChar: NameMe.65565
Encoding: 65565 -1 298
GlifName: N_ameM_e.65565
Width: 689
VWidth: 2819
Flags: W
LayerCount: 2
Fore
SplineSet
121.96875 -267.358398438 m 2,0,1
 157.66015625 -275.194335938 157.66015625 -275.194335938 202.158203125 -275.04296875 c 0,2,3
 294.01953125 -274.70703125 294.01953125 -274.70703125 354.106445312 -249.936523438 c 0,4,5
 373.831054688 -241.82421875 373.831054688 -241.82421875 390.509765625 -232.268554688 c 0,6,7
 398.858398438 -227.485351562 398.858398438 -227.485351562 406.446289062 -222.33203125 c 128,-1,8
 414.034179688 -217.178710938 414.034179688 -217.178710938 420.862304688 -211.655273438 c 0,9,10
 434.485351562 -200.634765625 434.485351562 -200.634765625 445.154296875 -188.189453125 c 128,-1,11
 455.823242188 -175.745117188 455.823242188 -175.745117188 463.560546875 -161.83203125 c 0,12,13
 464.232421875 -160.553710938 464.232421875 -160.553710938 464.849609375 -159.32421875 c 128,-1,14
 465.467773438 -158.094726562 465.467773438 -158.094726562 466.040039062 -156.897460938 c 128,-1,15
 466.612304688 -155.700195312 466.612304688 -155.700195312 467.150390625 -154.510742188 c 2,16,-1
 470.016601562 -147.552734375 l 2,17,18
 471.283203125 -144.125976562 471.283203125 -144.125976562 472.1875 -140.838867188 c 128,-1,19
 473.096679688 -137.540039062 473.096679688 -137.540039062 473.653320312 -134.331054688 c 0,20,21
 475.200195312 -124.349609375 475.200195312 -124.349609375 473.16796875 -118.694335938 c 0,22,23
 472.637695312 -117.215820312 472.637695312 -117.215820312 471.736328125 -115.905273438 c 128,-1,24
 470.834960938 -114.595703125 470.834960938 -114.595703125 469.600585938 -113.489257812 c 128,-1,25
 468.3671875 -112.381835938 468.3671875 -112.381835938 466.845703125 -111.458984375 c 128,-1,26
 465.325195312 -110.537109375 465.325195312 -110.537109375 463.49609375 -109.77734375 c 0,27,28
 461.038085938 -108.755859375 461.038085938 -108.755859375 457.71484375 -108.018554688 c 0,29,30
 456.139648438 -107.668945312 456.139648438 -107.668945312 454.313476562 -107.383789062 c 128,-1,31
 452.486328125 -107.09765625 452.486328125 -107.09765625 450.395507812 -106.873046875 c 0,32,33
 446.294921875 -106.431640625 446.294921875 -106.431640625 441.538085938 -106.310546875 c 2,34,-1
 346.275390625 -103.904296875 l 2,35,36
 336.861328125 -103.646484375 336.861328125 -103.646484375 328.197265625 -102.559570312 c 128,-1,37
 319.547851562 -101.473632812 319.547851562 -101.473632812 311.647460938 -99.5693359375 c 128,-1,38
 303.795898438 -97.6748046875 303.795898438 -97.6748046875 296.650390625 -94.94140625 c 128,-1,39
 289.517578125 -92.2119140625 289.517578125 -92.2119140625 283.073242188 -88.6435546875 c 128,-1,40
 276.66015625 -85.0927734375 276.66015625 -85.0927734375 271.016601562 -80.7294921875 c 0,41,42
 268.1953125 -78.5478515625 268.1953125 -78.5478515625 265.560546875 -76.1611328125 c 128,-1,43
 262.926757812 -73.7734375 262.926757812 -73.7734375 260.4765625 -71.1767578125 c 0,44,45
 231.043945312 -39.98828125 231.043945312 -39.98828125 231.80859375 17.1728515625 c 0,46,47
 232.712890625 89.9365234375 232.712890625 89.9365234375 281.244140625 159.75390625 c 0,48,49
 283.12890625 162.487304688 283.12890625 162.487304688 285.081054688 165.161132812 c 0,50,51
 286.056640625 166.497070312 286.056640625 166.497070312 287.048828125 167.818359375 c 128,-1,52
 288.041015625 169.138671875 288.041015625 169.138671875 289.05078125 170.4453125 c 0,53,54
 291.068359375 173.05859375 291.068359375 173.05859375 293.151367188 175.611328125 c 128,-1,55
 295.236328125 178.1640625 295.236328125 178.1640625 297.385742188 180.655273438 c 128,-1,56
 299.536132812 183.146484375 299.536132812 183.146484375 301.752929688 185.579101562 c 0,57,58
 312.841796875 197.740234375 312.841796875 197.740234375 325.573242188 208.3828125 c 128,-1,59
 338.31640625 219.034179688 338.31640625 219.034179688 352.706054688 228.163085938 c 0,60,61
 395.908203125 255.57421875 395.908203125 255.57421875 452.66796875 269.1875 c 0,62,63
 481.015625 275.987304688 481.015625 275.987304688 512.919921875 279.502929688 c 128,-1,64
 544.823242188 283.018554688 544.823242188 283.018554688 580.26953125 283.231445312 c 2,65,-1
 593.03515625 283.30859375 l 1,66,-1
 583.545898438 157.486328125 l 1,67,-1
 572.903320312 157.225585938 l 2,68,69
 557.649414062 156.850585938 557.649414062 156.850585938 543.499023438 155.837890625 c 0,70,71
 538.78125 155.5 538.78125 155.5 534.177734375 155.08984375 c 128,-1,72
 529.57421875 154.6796875 529.57421875 154.6796875 525.083984375 154.197265625 c 128,-1,73
 520.59375 153.715820312 520.59375 153.715820312 516.216796875 153.161132812 c 0,74,75
 503.083007812 151.495117188 503.083007812 151.495117188 491.051757812 149.180664062 c 0,76,77
 487.0390625 148.408203125 487.0390625 148.408203125 483.141601562 147.5625 c 128,-1,78
 479.245117188 146.715820312 479.245117188 146.715820312 475.461914062 145.794921875 c 128,-1,79
 471.677734375 144.874023438 471.677734375 144.874023438 468.010742188 143.879882812 c 0,80,81
 456.998046875 140.893554688 456.998046875 140.893554688 447.083007812 137.243164062 c 0,82,83
 442.12109375 135.416015625 442.12109375 135.416015625 437.420898438 133.416992188 c 128,-1,84
 432.720703125 131.41796875 432.720703125 131.41796875 428.28515625 129.247070312 c 0,85,86
 425.32421875 127.797851562 425.32421875 127.797851562 422.485351562 126.274414062 c 128,-1,87
 419.646484375 124.750976562 419.646484375 124.750976562 416.926757812 123.150390625 c 128,-1,88
 414.206054688 121.548828125 414.206054688 121.548828125 411.608398438 119.873046875 c 0,89,90
 385.852539062 103.2578125 385.852539062 103.2578125 371.233398438 79.642578125 c 128,-1,91
 356.641601562 56.0693359375 356.641601562 56.0693359375 352.764648438 25.517578125 c 2,92,-1
 351.901367188 18.7177734375 l 1,93,-1
 454.822265625 15.6416015625 l 2,94,95
 515.129882812 13.8125 515.129882812 13.8125 547.840820312 -11.38671875 c 0,96,97
 554.2578125 -16.3662109375 554.2578125 -16.3662109375 559.857421875 -22.7373046875 c 128,-1,98
 565.45703125 -29.1083984375 565.45703125 -29.1083984375 570.245117188 -36.8857421875 c 0,99,100
 573.4453125 -42.0859375 573.4453125 -42.0859375 576.271484375 -47.921875 c 128,-1,101
 579.098632812 -53.7568359375 579.098632812 -53.7568359375 581.564453125 -60.2666015625 c 128,-1,102
 584.03125 -66.77734375 584.03125 -66.77734375 586.129882812 -73.951171875 c 0,103,104
 587.543945312 -78.62890625 587.543945312 -78.62890625 588.604492188 -83.5302734375 c 128,-1,105
 589.666015625 -88.431640625 589.666015625 -88.431640625 590.374023438 -93.5625 c 128,-1,106
 591.083007812 -98.6923828125 591.083007812 -98.6923828125 591.438476562 -104.053710938 c 128,-1,107
 591.79296875 -109.415039062 591.79296875 -109.415039062 591.79296875 -115.001953125 c 0,108,109
 591.79296875 -117.861328125 591.79296875 -117.861328125 591.69140625 -120.750976562 c 128,-1,110
 591.590820312 -123.639648438 591.590820312 -123.639648438 591.389648438 -126.563476562 c 128,-1,111
 591.188476562 -129.484375 591.188476562 -129.484375 590.885742188 -132.4375 c 0,112,113
 589.975585938 -141.311523438 589.975585938 -141.311523438 588.161132812 -150.44921875 c 0,114,115
 587.583984375 -153.356445312 587.583984375 -153.356445312 586.943359375 -156.239257812 c 128,-1,116
 586.303710938 -159.12109375 586.303710938 -159.12109375 585.602539062 -161.977539062 c 128,-1,117
 584.901367188 -164.833984375 584.901367188 -164.833984375 584.138671875 -167.665039062 c 128,-1,118
 583.375 -170.495117188 583.375 -170.495117188 582.549804688 -173.30078125 c 128,-1,119
 581.725585938 -176.10546875 581.725585938 -176.10546875 580.838867188 -178.885742188 c 0,120,121
 579.73046875 -182.360351562 579.73046875 -182.360351562 578.525390625 -185.796875 c 128,-1,122
 577.3203125 -189.232421875 577.3203125 -189.232421875 576.018554688 -192.629882812 c 128,-1,123
 574.715820312 -196.02734375 574.715820312 -196.02734375 573.317382812 -199.38671875 c 128,-1,124
 571.91796875 -202.745117188 571.91796875 -202.745117188 570.422851562 -206.065429688 c 0,125,126
 564.439453125 -219.345703125 564.439453125 -219.345703125 556.90234375 -232.006835938 c 128,-1,127
 549.364257812 -244.672851562 549.364257812 -244.672851562 540.266601562 -256.731445312 c 128,-1,128
 531.196289062 -268.752929688 531.196289062 -268.752929688 520.627929688 -280.134765625 c 128,-1,129
 510.05859375 -291.517578125 510.05859375 -291.517578125 497.9765625 -302.272460938 c 0,130,131
 491.934570312 -307.650390625 491.934570312 -307.650390625 485.512695312 -312.870117188 c 128,-1,132
 479.090820312 -318.08984375 479.090820312 -318.08984375 472.2890625 -323.150390625 c 128,-1,133
 465.48828125 -328.208984375 465.48828125 -328.208984375 458.3046875 -333.110351562 c 128,-1,134
 451.12109375 -338.01171875 451.12109375 -338.01171875 443.575195312 -342.741210938 c 0,135,136
 353.404296875 -398.810546875 353.404296875 -398.810546875 197.694335938 -399.497070312 c 0,137,138
 184.766601562 -399.560546875 184.766601562 -399.560546875 172.325195312 -399.143554688 c 128,-1,139
 159.8828125 -398.7265625 159.8828125 -398.7265625 147.931640625 -397.831054688 c 128,-1,140
 135.979492188 -396.935546875 135.979492188 -396.935546875 124.516601562 -395.560546875 c 128,-1,141
 113.053710938 -394.186523438 113.053710938 -394.186523438 102.078125 -392.333984375 c 2,142,-1
 90.669921875 -390.409179688 l 1,143,-1
 109.690429688 -264.6640625 l 1,144,-1
 121.96875 -267.358398438 l 2,0,1
EndSplineSet
EndChar
